{"glyphs":{"0":{"ha":771,"x_min":35,"x_max":733,"o":"m 385 -17 q 227 9 293 -17 q 119 90 161 35 q 56 235 76 146 q 35 451 35 325 q 56 675 35 583 q 119 824 76 767 q 228 907 163 881 q 383 933 293 933 q 544 907 478 933 q 652 824 610 881 q 714 675 694 767 q 733 451 733 583 q 697 179 733 282 q 584 30 661 76 q 385 -17 507 -17 m 385 167 q 442 178 418 167 q 483 221 467 190 q 508 308 500 251 q 515 451 515 364 q 508 601 515 543 q 485 692 500 660 q 445 738 469 725 q 385 750 421 750 q 325 738 350 750 q 284 693 300 725 q 260 602 268 661 q 253 451 253 543 q 261 308 253 364 q 286 221 269 251 q 327 178 303 190 q 385 167 351 167 z "},"1":{"ha":771,"x_min":101,"x_max":597,"o":"m 381 0 l 381 682 l 168 568 l 101 725 l 410 915 l 597 915 l 597 0 l 381 0 z "},"2":{"ha":771,"x_min":78,"x_max":689,"o":"m 78 0 l 78 168 l 268 363 q 372 471 329 425 q 438 557 415 517 q 461 642 461 597 q 426 726 461 704 q 310 747 390 747 q 235 743 276 747 q 157 733 194 739 q 93 722 119 728 l 82 889 q 158 909 113 899 q 258 926 204 919 q 365 933 313 933 q 599 869 518 933 q 681 671 681 804 q 661 542 681 597 q 599 436 642 486 q 486 328 557 386 l 321 175 l 689 175 l 689 0 l 78 0 z "},"3":{"ha":771,"x_min":67,"x_max":700,"o":"m 365 -17 q 259 -10 315 -17 q 152 4 203 -4 q 67 21 101 13 l 76 189 q 156 180 110 185 q 250 172 201 175 q 338 168 299 168 q 445 193 408 168 q 482 275 482 218 q 467 336 482 314 q 422 369 451 358 q 353 382 393 379 l 163 382 l 163 554 l 347 554 q 405 566 378 554 q 449 601 432 578 q 465 656 465 624 q 431 728 465 707 q 326 749 397 749 q 241 745 286 749 q 155 738 196 742 q 86 728 114 733 l 78 893 q 153 911 108 901 q 248 927 199 921 q 339 933 297 933 q 537 908 461 933 q 648 828 613 883 q 683 681 683 772 q 673 603 683 635 q 646 548 663 571 q 610 509 629 525 q 574 481 590 493 q 641 437 613 461 q 685 375 669 413 q 700 275 700 338 q 663 104 700 168 q 551 12 626 40 q 365 -17 476 -17 z "},"4":{"ha":771,"x_min":40,"x_max":738,"o":"m 449 0 l 449 143 l 40 143 l 40 301 l 231 915 l 476 915 l 256 325 l 449 325 l 463 544 l 664 549 l 664 325 l 738 325 l 738 143 l 664 143 l 664 0 l 449 0 z "},"5":{"ha":771,"x_min":54,"x_max":719,"o":"m 390 -15 q 276 -8 339 -15 q 155 11 214 0 q 54 32 96 22 l 72 192 q 163 178 111 186 q 270 167 215 171 q 369 163 325 163 q 469 194 433 163 q 506 285 506 225 q 490 349 506 325 q 447 383 475 372 q 379 393 418 393 q 318 388 349 393 q 261 374 288 382 q 217 358 235 367 l 74 378 l 96 915 l 683 915 l 683 725 l 265 725 l 250 551 q 295 567 268 558 q 354 581 322 575 q 417 588 386 588 q 581 561 514 588 q 683 473 647 535 q 719 304 719 411 q 679 122 719 193 q 565 18 639 51 q 390 -15 492 -15 z "},"6":{"ha":771,"x_min":44,"x_max":731,"o":"m 396 -17 q 197 38 274 -17 q 82 199 119 93 q 44 456 44 304 q 72 682 44 590 q 150 828 100 774 q 269 908 200 883 q 419 932 338 932 q 515 926 463 932 q 616 912 567 919 q 700 896 665 904 l 683 733 q 610 742 654 738 q 517 751 565 747 q 426 754 469 754 q 298 702 340 754 q 253 554 256 650 q 287 565 267 558 q 331 577 307 571 q 378 588 354 583 q 424 592 401 592 q 654 519 578 592 q 731 292 731 447 q 690 120 731 189 q 574 17 650 51 q 396 -17 499 -17 m 396 158 q 497 194 463 158 q 531 293 531 229 q 496 388 531 358 q 400 418 461 418 q 344 413 372 418 q 292 399 315 407 q 251 385 268 392 q 265 267 253 318 q 310 187 278 215 q 396 158 342 158 z "},"7":{"ha":771,"x_min":88,"x_max":688,"o":"m 390 -17 l 179 32 l 465 682 l 465 718 l 88 718 l 88 915 l 688 915 l 688 688 l 390 -17 z "},"8":{"ha":771,"x_min":29,"x_max":739,"o":"m 383 -17 q 249 -5 313 -17 q 135 36 185 7 q 58 115 86 65 q 29 240 29 165 q 46 349 29 307 q 93 419 63 390 q 168 472 124 447 q 97 525 124 497 q 58 592 71 553 q 46 690 46 632 q 89 831 46 778 q 208 908 132 883 q 383 933 283 933 q 559 910 482 933 q 681 833 636 886 q 725 689 725 781 q 713 591 725 631 q 672 524 700 551 q 597 472 644 496 q 677 421 646 449 q 724 352 708 393 q 739 246 739 311 q 711 119 739 169 q 634 38 683 68 q 520 -4 585 8 q 383 -17 456 -17 m 383 154 q 456 165 425 154 q 505 200 488 175 q 522 269 522 225 q 510 328 522 304 q 476 367 497 351 q 426 392 454 382 l 338 392 q 272 347 297 376 q 246 265 246 317 q 263 200 246 225 q 312 165 281 175 q 383 154 343 154 m 338 546 l 426 546 q 488 590 465 563 q 511 658 511 617 q 478 739 511 714 q 383 764 446 764 q 291 739 322 764 q 260 660 260 714 q 281 590 260 617 q 338 546 301 563 z "},"9":{"ha":771,"x_min":39,"x_max":725,"o":"m 349 -17 q 255 -10 307 -17 q 153 4 203 -4 q 68 21 104 13 l 85 183 q 159 174 115 179 q 251 166 203 169 q 342 163 300 163 q 472 213 431 163 q 517 364 514 263 q 458 344 489 353 q 398 331 428 336 q 343 325 368 325 q 115 397 192 325 q 39 624 39 469 q 81 794 39 725 q 197 897 122 863 q 372 932 272 932 q 574 877 496 932 q 688 717 651 822 q 725 461 725 611 q 698 230 725 322 q 621 83 671 138 q 502 6 571 29 q 349 -17 433 -17 m 368 500 q 422 505 393 500 q 476 518 450 510 q 518 532 501 526 q 504 651 518 601 q 460 729 490 701 q 372 757 429 757 q 274 720 308 757 q 240 622 240 683 q 273 528 240 557 q 368 500 306 500 z "},"A":{"ha":858,"x_min":13,"x_max":847,"o":"m 13 0 l 246 944 l 613 944 l 847 0 l 626 0 l 579 174 l 274 174 l 229 0 l 13 0 m 306 347 l 551 347 l 456 769 l 403 769 l 306 347 z "},"Á":{"ha":858,"x_min":13,"x_max":847,"o":"m 13 0 l 246 944 l 613 944 l 847 0 l 626 0 l 579 174 l 274 174 l 229 0 l 13 0 m 306 347 l 551 347 l 456 769 l 403 769 l 306 347 m 396 1033 l 257 1071 l 435 1235 l 624 1188 l 396 1033 z "},"Ă":{"ha":858,"x_min":13,"x_max":847,"o":"m 13 0 l 246 944 l 613 944 l 847 0 l 626 0 l 579 174 l 274 174 l 229 0 l 13 0 m 306 347 l 551 347 l 456 769 l 403 769 l 306 347 m 428 1039 q 304 1066 353 1039 q 232 1138 256 1093 q 207 1235 208 1182 l 339 1242 q 365 1183 342 1206 q 428 1160 389 1160 q 493 1183 469 1160 q 518 1242 517 1206 l 650 1235 q 625 1138 649 1182 q 553 1066 601 1093 q 428 1039 506 1039 z "},"Â":{"ha":858,"x_min":13,"x_max":847,"o":"m 13 0 l 246 944 l 613 944 l 847 0 l 626 0 l 579 174 l 274 174 l 229 0 l 13 0 m 306 347 l 551 347 l 456 769 l 403 769 l 306 347 m 185 1042 l 347 1231 l 503 1231 l 672 1042 l 493 1042 l 429 1140 l 365 1042 l 185 1042 z "},"Ä":{"ha":858,"x_min":13,"x_max":847,"o":"m 13 0 l 246 944 l 613 944 l 847 0 l 626 0 l 579 174 l 274 174 l 229 0 l 13 0 m 306 347 l 551 347 l 456 769 l 403 769 l 306 347 m 489 1053 l 489 1218 l 654 1218 l 654 1053 l 489 1053 m 204 1053 l 204 1218 l 369 1218 l 369 1053 l 204 1053 z "},"À":{"ha":858,"x_min":13,"x_max":847,"o":"m 13 0 l 246 944 l 613 944 l 847 0 l 626 0 l 579 174 l 274 174 l 229 0 l 13 0 m 306 347 l 551 347 l 456 769 l 403 769 l 306 347 m 438 1033 l 214 1189 l 404 1235 l 575 1071 l 438 1033 z "},"Ā":{"ha":858,"x_min":13,"x_max":847,"o":"m 13 0 l 246 944 l 613 944 l 847 0 l 626 0 l 579 174 l 274 174 l 229 0 l 13 0 m 306 347 l 551 347 l 456 769 l 403 769 l 306 347 m 210 1056 l 210 1194 l 650 1194 l 650 1056 l 210 1056 z "},"Ą":{"ha":858,"x_min":13,"x_max":858,"o":"m 13 0 l 246 944 l 613 944 l 847 0 l 626 0 l 579 174 l 274 174 l 229 0 l 13 0 m 306 347 l 551 347 l 456 769 l 403 769 l 306 347 m 708 -297 q 617 -281 657 -297 q 556 -235 578 -265 q 533 -157 533 -204 q 556 -79 533 -115 q 612 -16 579 -43 q 676 28 644 11 l 835 11 q 785 -37 808 -11 q 748 -87 763 -62 q 733 -132 733 -112 q 744 -161 733 -150 q 778 -172 756 -172 q 811 -169 792 -172 q 843 -165 831 -167 l 858 -281 q 794 -291 835 -285 q 708 -297 753 -297 z "},"Å":{"ha":858,"x_min":13,"x_max":847,"o":"m 13 0 l 246 944 l 613 944 l 847 0 l 626 0 l 579 174 l 274 174 l 229 0 l 13 0 m 306 347 l 551 347 l 456 769 l 403 769 l 306 347 m 429 875 q 301 910 351 875 q 251 1015 251 944 q 274 1095 251 1064 q 338 1142 297 1126 q 429 1157 379 1157 q 557 1122 506 1157 q 608 1015 608 1088 q 558 911 608 947 q 429 875 507 875 m 431 964 q 463 970 449 964 q 485 988 478 976 q 493 1015 493 1000 q 476 1054 493 1042 q 431 1067 458 1067 q 397 1060 411 1067 q 375 1043 383 1054 q 367 1015 367 1032 q 385 977 367 990 q 431 964 403 964 z "},"Ǻ":{"ha":858,"x_min":13,"x_max":847,"o":"m 13 0 l 246 944 l 613 944 l 847 0 l 626 0 l 579 174 l 274 174 l 229 0 l 13 0 m 306 347 l 551 347 l 456 769 l 403 769 l 306 347 m 429 876 q 301 911 351 876 q 251 1017 251 946 q 274 1097 251 1065 q 338 1143 297 1128 q 429 1158 379 1158 q 557 1124 506 1158 q 608 1017 608 1089 q 558 913 608 949 q 429 876 507 876 m 431 965 q 463 972 449 965 q 485 990 478 978 q 493 1017 493 1001 q 476 1056 493 1043 q 431 1068 458 1068 q 397 1062 411 1068 q 375 1044 383 1056 q 367 1017 367 1033 q 385 978 367 992 q 431 965 403 965 m 396 1193 l 257 1231 l 435 1394 l 624 1347 l 396 1193 z "},"Ã":{"ha":858,"x_min":13,"x_max":847,"o":"m 13 0 l 246 944 l 613 944 l 847 0 l 626 0 l 579 174 l 274 174 l 229 0 l 13 0 m 306 347 l 551 347 l 456 769 l 403 769 l 306 347 m 536 1049 q 481 1058 513 1049 q 419 1079 450 1067 q 361 1101 388 1092 q 321 1110 335 1110 q 269 1092 301 1110 q 214 1060 238 1075 l 181 1174 q 219 1210 197 1192 q 268 1242 242 1229 q 318 1256 294 1256 q 378 1247 346 1256 q 439 1226 410 1238 q 493 1206 468 1215 q 533 1197 518 1197 q 583 1213 550 1197 q 639 1243 615 1229 l 671 1128 q 635 1093 657 1111 q 587 1062 613 1075 q 536 1049 561 1049 z "},"Æ":{"ha":1221,"x_min":10,"x_max":1176,"o":"m 10 0 l 265 949 l 1176 949 l 1176 764 l 750 764 l 750 569 l 1093 569 l 1093 392 l 750 392 l 750 183 l 1176 183 l 1176 0 l 536 0 l 536 171 l 278 171 l 228 0 l 10 0 m 314 351 l 536 351 l 536 764 l 421 764 l 314 351 z "},"Ǽ":{"ha":1221,"x_min":10,"x_max":1176,"o":"m 10 0 l 265 949 l 1176 949 l 1176 764 l 750 764 l 750 569 l 1093 569 l 1093 392 l 750 392 l 750 183 l 1176 183 l 1176 0 l 536 0 l 536 171 l 278 171 l 228 0 l 10 0 m 314 351 l 536 351 l 536 764 l 421 764 l 314 351 m 667 1033 l 528 1071 l 706 1235 l 894 1188 l 667 1033 z "},"B":{"ha":849,"x_min":78,"x_max":804,"o":"m 78 0 l 78 944 l 464 944 q 629 922 558 944 q 739 847 700 899 q 778 707 778 794 q 767 608 778 649 q 734 539 757 568 q 671 485 711 510 q 743 444 713 469 q 789 377 774 419 q 804 267 804 335 q 779 138 804 189 q 710 56 754 86 q 605 13 665 25 q 475 0 544 0 l 78 0 m 297 158 l 458 158 q 533 169 503 158 q 578 207 563 179 q 593 283 593 235 q 581 344 593 321 q 550 381 569 368 q 506 398 531 393 q 456 403 482 403 l 297 403 l 297 158 m 297 553 l 454 553 q 524 567 497 553 q 562 608 550 581 q 574 675 574 635 q 543 763 574 736 q 449 789 513 789 l 297 789 l 297 553 z "},"C":{"ha":747,"x_min":51,"x_max":710,"o":"m 428 -17 q 244 11 317 -17 q 128 98 171 39 q 69 249 86 157 q 51 472 51 342 q 69 696 51 603 q 128 847 86 789 q 245 933 171 906 q 435 961 319 961 q 529 956 479 961 q 627 943 579 951 q 710 926 675 935 l 704 754 q 636 763 676 758 q 553 770 596 767 q 474 774 511 774 q 372 758 411 774 q 312 708 333 743 q 283 615 290 672 q 275 472 275 558 q 283 330 275 388 q 312 238 290 272 q 372 188 333 203 q 475 172 411 172 q 597 178 531 172 q 706 188 663 183 l 710 17 q 631 1 678 10 q 531 -12 585 -7 q 428 -17 478 -17 z "},"Ć":{"ha":747,"x_min":51,"x_max":710,"o":"m 428 -17 q 244 11 317 -17 q 128 98 171 39 q 69 249 86 157 q 51 472 51 342 q 69 696 51 603 q 128 847 86 789 q 245 933 171 906 q 435 961 319 961 q 529 956 479 961 q 627 943 579 951 q 710 926 675 935 l 704 754 q 636 763 676 758 q 553 770 596 767 q 474 774 511 774 q 372 758 411 774 q 312 708 333 743 q 283 615 290 672 q 275 472 275 558 q 283 330 275 388 q 312 238 290 272 q 372 188 333 203 q 475 172 411 172 q 597 178 531 172 q 706 188 663 183 l 710 17 q 631 1 678 10 q 531 -12 585 -7 q 428 -17 478 -17 m 389 1033 l 250 1071 l 428 1235 l 617 1188 l 389 1033 z "},"Č":{"ha":747,"x_min":51,"x_max":710,"o":"m 428 -17 q 244 11 317 -17 q 128 98 171 39 q 69 249 86 157 q 51 472 51 342 q 69 696 51 603 q 128 847 86 789 q 245 933 171 906 q 435 961 319 961 q 529 956 479 961 q 627 943 579 951 q 710 926 675 935 l 704 754 q 636 763 676 758 q 553 770 596 767 q 474 774 511 774 q 372 758 411 774 q 312 708 333 743 q 283 615 290 672 q 275 472 275 558 q 283 330 275 388 q 312 238 290 272 q 372 188 333 203 q 475 172 411 172 q 597 178 531 172 q 706 188 663 183 l 710 17 q 631 1 678 10 q 531 -12 585 -7 q 428 -17 478 -17 m 321 1042 l 158 1229 l 338 1229 l 403 1133 l 467 1229 l 646 1229 l 475 1042 l 321 1042 z "},"Ç":{"ha":747,"x_min":51,"x_max":710,"o":"m 428 -17 q 244 11 317 -17 q 128 98 171 39 q 69 249 86 157 q 51 472 51 342 q 69 696 51 603 q 128 847 86 789 q 245 933 171 906 q 435 961 319 961 q 529 956 479 961 q 627 943 579 951 q 710 926 675 935 l 704 754 q 636 763 676 758 q 553 770 596 767 q 474 774 511 774 q 372 758 411 774 q 312 708 333 743 q 283 615 290 672 q 275 472 275 558 q 283 330 275 388 q 312 238 290 272 q 372 188 333 203 q 475 172 411 172 q 597 178 531 172 q 706 188 663 183 l 710 17 q 631 1 678 10 q 531 -12 585 -7 q 428 -17 478 -17 m 472 -304 q 389 -300 431 -304 q 324 -292 347 -296 l 328 -203 q 363 -203 336 -203 q 406 -204 389 -204 q 450 -194 438 -204 q 463 -164 463 -185 q 449 -135 463 -142 q 406 -128 436 -128 l 372 -128 l 372 17 l 453 17 l 453 -47 q 551 -57 513 -47 q 608 -92 590 -67 q 626 -165 626 -117 q 586 -272 626 -239 q 472 -304 546 -304 z "},"Ĉ":{"ha":747,"x_min":51,"x_max":710,"o":"m 428 -17 q 244 11 317 -17 q 128 98 171 39 q 69 249 86 157 q 51 472 51 342 q 69 696 51 603 q 128 847 86 789 q 245 933 171 906 q 435 961 319 961 q 529 956 479 961 q 627 943 579 951 q 710 926 675 935 l 704 754 q 636 763 676 758 q 553 770 596 767 q 474 774 511 774 q 372 758 411 774 q 312 708 333 743 q 283 615 290 672 q 275 472 275 558 q 283 330 275 388 q 312 238 290 272 q 372 188 333 203 q 475 172 411 172 q 597 178 531 172 q 706 188 663 183 l 710 17 q 631 1 678 10 q 531 -12 585 -7 q 428 -17 478 -17 m 171 1042 l 333 1231 l 489 1231 l 658 1042 l 479 1042 l 415 1140 l 351 1042 l 171 1042 z "},"Ċ":{"ha":747,"x_min":51,"x_max":710,"o":"m 428 -17 q 244 11 317 -17 q 128 98 171 39 q 69 249 86 157 q 51 472 51 342 q 69 696 51 603 q 128 847 86 789 q 245 933 171 906 q 435 961 319 961 q 529 956 479 961 q 627 943 579 951 q 710 926 675 935 l 704 754 q 636 763 676 758 q 553 770 596 767 q 474 774 511 774 q 372 758 411 774 q 312 708 333 743 q 283 615 290 672 q 275 472 275 558 q 283 330 275 388 q 312 238 290 272 q 372 188 333 203 q 475 172 411 172 q 597 178 531 172 q 706 188 663 183 l 710 17 q 631 1 678 10 q 531 -12 585 -7 q 428 -17 478 -17 m 306 1047 l 306 1210 l 486 1210 l 486 1047 l 306 1047 z "},"D":{"ha":901,"x_min":78,"x_max":853,"o":"m 78 0 l 78 944 l 447 944 q 638 914 560 944 q 764 825 717 883 q 832 681 811 767 q 853 486 853 596 q 833 287 853 376 q 768 133 814 197 q 645 34 722 68 q 454 0 568 0 l 78 0 m 297 183 l 440 183 q 540 206 501 183 q 597 270 578 229 q 624 367 617 311 q 631 486 631 422 q 623 600 631 550 q 595 687 615 650 q 538 743 575 724 q 440 763 500 763 l 297 763 l 297 183 z "},"Ð":{"ha":908,"x_min":13,"x_max":860,"o":"m 13 401 l 13 551 l 450 551 l 450 401 l 13 401 m 85 0 l 85 944 l 454 944 q 645 914 567 944 q 771 825 724 883 q 839 681 818 767 q 860 486 860 596 q 840 287 860 376 q 775 133 821 197 q 652 34 729 68 q 461 0 575 0 l 85 0 m 304 183 l 447 183 q 547 206 508 183 q 604 270 585 229 q 631 367 624 311 q 638 486 638 422 q 630 600 638 550 q 602 687 622 650 q 544 743 582 724 q 447 763 507 763 l 304 763 l 304 183 z "},"Ď":{"ha":901,"x_min":78,"x_max":853,"o":"m 78 0 l 78 944 l 447 944 q 638 914 560 944 q 764 825 717 883 q 832 681 811 767 q 853 486 853 596 q 833 287 853 376 q 768 133 814 197 q 645 34 722 68 q 454 0 568 0 l 78 0 m 297 183 l 440 183 q 540 206 501 183 q 597 270 578 229 q 624 367 617 311 q 631 486 631 422 q 623 600 631 550 q 595 687 615 650 q 538 743 575 724 q 440 763 500 763 l 297 763 l 297 183 m 329 1042 l 167 1229 l 346 1229 l 411 1133 l 475 1229 l 654 1229 l 483 1042 l 329 1042 z "},"Đ":{"ha":908,"x_min":13,"x_max":860,"o":"m 13 401 l 13 551 l 450 551 l 450 401 l 13 401 m 85 0 l 85 944 l 454 944 q 645 914 567 944 q 771 825 724 883 q 839 681 818 767 q 860 486 860 596 q 840 287 860 376 q 775 133 821 197 q 652 34 729 68 q 461 0 575 0 l 85 0 m 304 183 l 447 183 q 547 206 508 183 q 604 270 585 229 q 631 367 624 311 q 638 486 638 422 q 630 600 638 550 q 602 687 622 650 q 544 743 582 724 q 447 763 507 763 l 304 763 l 304 183 z "},"E":{"ha":765,"x_min":78,"x_max":722,"o":"m 78 0 l 78 944 l 722 944 l 722 765 l 297 765 l 297 567 l 639 567 l 639 389 l 297 389 l 297 181 l 722 181 l 722 0 l 78 0 z "},"É":{"ha":765,"x_min":78,"x_max":722,"o":"m 78 0 l 78 944 l 722 944 l 722 765 l 297 765 l 297 567 l 639 567 l 639 389 l 297 389 l 297 181 l 722 181 l 722 0 l 78 0 m 363 1033 l 224 1071 l 401 1235 l 590 1188 l 363 1033 z "},"Ĕ":{"ha":765,"x_min":78,"x_max":722,"o":"m 78 0 l 78 944 l 722 944 l 722 765 l 297 765 l 297 567 l 639 567 l 639 389 l 297 389 l 297 181 l 722 181 l 722 0 l 78 0 m 399 1039 q 275 1066 324 1039 q 203 1138 226 1093 q 178 1235 179 1182 l 310 1242 q 336 1183 313 1206 q 399 1160 360 1160 q 464 1183 440 1160 q 489 1242 488 1206 l 621 1235 q 596 1138 619 1182 q 524 1066 572 1093 q 399 1039 476 1039 z "},"Ě":{"ha":765,"x_min":78,"x_max":722,"o":"m 78 0 l 78 944 l 722 944 l 722 765 l 297 765 l 297 567 l 639 567 l 639 389 l 297 389 l 297 181 l 722 181 l 722 0 l 78 0 m 308 1042 l 146 1229 l 325 1229 l 390 1133 l 454 1229 l 633 1229 l 463 1042 l 308 1042 z "},"Ê":{"ha":765,"x_min":78,"x_max":722,"o":"m 78 0 l 78 944 l 722 944 l 722 765 l 297 765 l 297 567 l 639 567 l 639 389 l 297 389 l 297 181 l 722 181 l 722 0 l 78 0 m 151 1042 l 314 1231 l 469 1231 l 639 1042 l 460 1042 l 396 1140 l 332 1042 l 151 1042 z "},"Ë":{"ha":765,"x_min":78,"x_max":722,"o":"m 78 0 l 78 944 l 722 944 l 722 765 l 297 765 l 297 567 l 639 567 l 639 389 l 297 389 l 297 181 l 722 181 l 722 0 l 78 0 m 460 1053 l 460 1218 l 625 1218 l 625 1053 l 460 1053 m 175 1053 l 175 1218 l 340 1218 l 340 1053 l 175 1053 z "},"Ė":{"ha":765,"x_min":78,"x_max":722,"o":"m 78 0 l 78 944 l 722 944 l 722 765 l 297 765 l 297 567 l 639 567 l 639 389 l 297 389 l 297 181 l 722 181 l 722 0 l 78 0 m 311 1049 l 311 1211 l 492 1211 l 492 1049 l 311 1049 z "},"È":{"ha":765,"x_min":78,"x_max":722,"o":"m 78 0 l 78 944 l 722 944 l 722 765 l 297 765 l 297 567 l 639 567 l 639 389 l 297 389 l 297 181 l 722 181 l 722 0 l 78 0 m 418 1033 l 194 1189 l 385 1235 l 556 1071 l 418 1033 z "},"Ē":{"ha":765,"x_min":78,"x_max":722,"o":"m 78 0 l 78 944 l 722 944 l 722 765 l 297 765 l 297 567 l 639 567 l 639 389 l 297 389 l 297 181 l 722 181 l 722 0 l 78 0 m 179 1056 l 179 1194 l 619 1194 l 619 1056 l 179 1056 z "},"Ę":{"ha":765,"x_min":78,"x_max":722,"o":"m 78 0 l 78 944 l 722 944 l 722 765 l 297 765 l 297 567 l 639 567 l 639 389 l 297 389 l 297 181 l 722 181 l 722 0 l 78 0 m 572 -297 q 481 -281 521 -297 q 419 -235 442 -265 q 397 -157 397 -204 q 420 -79 397 -115 q 476 -16 443 -43 q 540 28 508 11 l 699 11 q 649 -37 672 -11 q 612 -87 626 -62 q 597 -132 597 -112 q 608 -161 597 -150 q 642 -172 619 -172 q 675 -169 656 -172 q 707 -165 694 -167 l 722 -281 q 658 -291 699 -285 q 572 -297 617 -297 z "},"F":{"ha":726,"x_min":78,"x_max":703,"o":"m 78 0 l 78 944 l 703 944 l 703 763 l 297 763 l 297 506 l 625 506 l 625 322 l 297 322 l 297 0 l 78 0 z "},"G":{"ha":858,"x_min":50,"x_max":794,"o":"m 457 -12 q 255 17 333 -12 q 131 108 176 47 q 68 260 86 169 q 50 472 50 351 q 71 694 50 601 q 140 845 92 786 q 265 933 188 904 q 456 961 343 961 q 574 955 511 961 q 694 939 638 949 q 790 919 751 929 l 789 750 q 692 760 749 756 q 579 769 636 765 q 476 774 522 774 q 369 756 410 774 q 308 703 329 739 q 280 610 288 667 q 272 472 272 553 q 288 303 272 369 q 345 203 303 236 q 468 171 388 171 q 508 172 486 171 q 550 176 529 174 q 586 179 571 178 l 586 357 l 489 357 l 489 521 l 794 521 l 794 24 q 717 13 761 19 q 625 0 672 6 q 533 -9 578 -6 q 457 -12 489 -12 z "},"Ğ":{"ha":858,"x_min":50,"x_max":794,"o":"m 457 -12 q 255 17 333 -12 q 131 108 176 47 q 68 260 86 169 q 50 472 50 351 q 71 694 50 601 q 140 845 92 786 q 265 933 188 904 q 456 961 343 961 q 574 955 511 961 q 694 939 638 949 q 790 919 751 929 l 789 750 q 692 760 749 756 q 579 769 636 765 q 476 774 522 774 q 369 756 410 774 q 308 703 329 739 q 280 610 288 667 q 272 472 272 553 q 288 303 272 369 q 345 203 303 236 q 468 171 388 171 q 508 172 486 171 q 550 176 529 174 q 586 179 571 178 l 586 357 l 489 357 l 489 521 l 794 521 l 794 24 q 717 13 761 19 q 625 0 672 6 q 533 -9 578 -6 q 457 -12 489 -12 m 453 1039 q 329 1066 378 1039 q 257 1138 281 1093 q 232 1235 233 1182 l 364 1242 q 390 1183 367 1206 q 453 1160 414 1160 q 518 1183 494 1160 q 543 1242 542 1206 l 675 1235 q 650 1138 674 1182 q 578 1066 626 1093 q 453 1039 531 1039 z "},"Ĝ":{"ha":858,"x_min":50,"x_max":794,"o":"m 457 -12 q 255 17 333 -12 q 131 108 176 47 q 68 260 86 169 q 50 472 50 351 q 71 694 50 601 q 140 845 92 786 q 265 933 188 904 q 456 961 343 961 q 574 955 511 961 q 694 939 638 949 q 790 919 751 929 l 789 750 q 692 760 749 756 q 579 769 636 765 q 476 774 522 774 q 369 756 410 774 q 308 703 329 739 q 280 610 288 667 q 272 472 272 553 q 288 303 272 369 q 345 203 303 236 q 468 171 388 171 q 508 172 486 171 q 550 176 529 174 q 586 179 571 178 l 586 357 l 489 357 l 489 521 l 794 521 l 794 24 q 717 13 761 19 q 625 0 672 6 q 533 -9 578 -6 q 457 -12 489 -12 m 204 1040 l 367 1229 l 522 1229 l 692 1040 l 513 1040 l 449 1139 l 385 1040 l 204 1040 z "},"Ģ":{"ha":856,"x_min":50,"x_max":794,"o":"m 457 -12 q 255 17 333 -12 q 131 108 176 47 q 68 260 86 169 q 50 472 50 351 q 71 694 50 601 q 140 845 92 786 q 265 933 188 904 q 456 961 343 961 q 574 955 511 961 q 694 939 638 949 q 790 919 751 929 l 789 750 q 692 760 749 756 q 579 769 636 765 q 476 774 522 774 q 369 756 410 774 q 308 703 329 739 q 280 610 288 667 q 272 472 272 553 q 288 303 272 369 q 345 203 303 236 q 468 171 388 171 q 508 172 486 171 q 550 176 529 174 q 586 179 571 178 l 586 357 l 489 357 l 489 521 l 794 521 l 794 24 q 717 13 761 19 q 625 0 672 6 q 533 -9 578 -6 q 457 -12 489 -12 m 325 -469 l 369 -118 l 593 -118 l 503 -469 l 325 -469 z "},"Ġ":{"ha":858,"x_min":50,"x_max":794,"o":"m 336 1060 l 336 1228 l 522 1228 l 522 1060 l 336 1060 m 457 -12 q 255 17 333 -12 q 131 108 176 47 q 68 260 86 169 q 50 472 50 351 q 71 694 50 601 q 140 845 92 786 q 265 933 188 904 q 456 961 343 961 q 574 955 511 961 q 694 939 638 949 q 790 919 751 929 l 789 750 q 692 760 749 756 q 579 769 636 765 q 476 774 522 774 q 369 756 410 774 q 308 703 329 739 q 280 610 288 667 q 272 472 272 553 q 288 303 272 369 q 345 203 303 236 q 468 171 388 171 q 508 172 486 171 q 550 176 529 174 q 586 179 571 178 l 586 357 l 489 357 l 489 521 l 794 521 l 794 24 q 717 13 761 19 q 625 0 672 6 q 533 -9 578 -6 q 457 -12 489 -12 z "},"H":{"ha":924,"x_min":78,"x_max":844,"o":"m 78 0 l 78 944 l 297 944 l 297 561 l 625 561 l 625 944 l 844 944 l 844 0 l 625 0 l 625 378 l 297 378 l 297 0 l 78 0 z "},"Ħ":{"ha":933,"x_min":13,"x_max":924,"o":"m 13 679 l 13 819 l 924 819 l 924 679 l 13 679 m 82 0 l 82 944 l 301 944 l 301 561 l 629 561 l 629 944 l 849 944 l 849 0 l 629 0 l 629 378 l 301 378 l 301 0 l 82 0 z "},"Ĥ":{"ha":924,"x_min":78,"x_max":844,"o":"m 78 0 l 78 944 l 297 944 l 297 561 l 625 561 l 625 944 l 844 944 l 844 0 l 625 0 l 625 378 l 297 378 l 297 0 l 78 0 m 218 1042 l 381 1231 l 536 1231 l 706 1042 l 526 1042 l 463 1140 l 399 1042 l 218 1042 z "},"I":{"ha":376,"x_min":78,"x_max":297,"o":"m 78 0 l 78 944 l 297 944 l 297 0 l 78 0 z "},"Í":{"ha":376,"x_min":39,"x_max":404,"o":"m 78 0 l 78 944 l 297 944 l 297 0 l 78 0 m 178 1033 l 39 1071 l 217 1235 l 406 1188 l 178 1033 z "},"Ĭ":{"ha":376,"x_min":-28,"x_max":415,"o":"m 78 0 l 78 944 l 297 944 l 297 0 l 78 0 m 193 1039 q 69 1066 118 1039 q -3 1138 21 1093 q -28 1235 -26 1182 l 104 1242 q 131 1183 107 1206 q 193 1160 154 1160 q 258 1183 235 1160 q 283 1242 282 1206 l 415 1235 q 390 1138 414 1182 q 319 1066 367 1093 q 193 1039 271 1039 z "},"Î":{"ha":372,"x_min":-60,"x_max":428,"o":"m 78 0 l 78 944 l 297 944 l 297 0 l 78 0 m -61 1042 l 101 1231 l 257 1231 l 426 1042 l 247 1042 l 183 1140 l 119 1042 l -61 1042 z "},"Ï":{"ha":376,"x_min":-37,"x_max":413,"o":"m 78 0 l 78 944 l 297 944 l 297 0 l 78 0 m 247 1053 l 247 1218 l 413 1218 l 413 1053 l 247 1053 m -37 1053 l -37 1218 l 128 1218 l 128 1053 l -37 1053 z "},"İ":{"ha":376,"x_min":78,"x_max":297,"o":"m 96 1043 l 96 1213 l 281 1213 l 281 1043 l 96 1043 m 78 0 l 78 944 l 297 944 l 297 0 l 78 0 z "},"Ì":{"ha":372,"x_min":-35,"x_max":326,"o":"m 78 0 l 78 944 l 297 944 l 297 0 l 78 0 m 189 1033 l -35 1189 l 156 1235 l 326 1071 l 189 1033 z "},"Ī":{"ha":376,"x_min":-31,"x_max":410,"o":"m 78 0 l 78 944 l 297 944 l 297 0 l 78 0 m -29 1056 l -29 1194 l 411 1194 l 411 1056 l -29 1056 z "},"Į":{"ha":376,"x_min":-11,"x_max":314,"o":"m 164 -299 q 73 -283 113 -299 q 11 -236 33 -267 q -11 -158 -11 -206 q 12 -81 -11 -117 q 67 -17 35 -44 q 132 26 100 10 l 290 10 q 241 -38 264 -12 q 203 -89 218 -64 q 189 -133 189 -114 q 200 -162 189 -151 q 233 -174 211 -174 q 267 -171 247 -174 q 299 -167 286 -168 l 314 -282 q 249 -292 290 -286 q 164 -299 208 -299 m 78 0 l 78 944 l 297 944 l 297 0 l 78 0 z "},"Ĩ":{"ha":376,"x_min":-60,"x_max":431,"o":"m 78 0 l 78 944 l 297 944 l 297 0 l 78 0 m 294 1049 q 240 1058 271 1049 q 177 1079 208 1067 q 119 1101 146 1092 q 79 1110 93 1110 q 28 1092 60 1110 q -28 1060 -4 1075 l -61 1174 q -22 1210 -44 1192 q 26 1242 0 1229 q 76 1256 53 1256 q 136 1247 104 1256 q 197 1226 168 1238 q 251 1206 226 1215 q 292 1197 276 1197 q 341 1213 308 1197 q 397 1243 374 1229 l 429 1128 q 393 1093 415 1111 q 345 1062 371 1075 q 294 1049 319 1049 z "},"J":{"ha":424,"x_min":22,"x_max":351,"o":"m 22 -58 l 22 126 q 77 132 56 126 q 110 156 99 138 q 127 209 122 174 q 132 301 132 244 l 132 944 l 351 944 l 351 192 q 330 56 351 106 q 267 -19 308 6 q 164 -51 225 -43 q 22 -58 103 -58 z "},"Ĵ":{"ha":424,"x_min":1,"x_max":489,"o":"m 22 -58 l 22 126 q 77 132 56 126 q 110 156 99 138 q 127 209 122 174 q 132 301 132 244 l 132 944 l 351 944 l 351 192 q 330 56 351 106 q 267 -19 308 6 q 164 -51 225 -43 q 22 -58 103 -58 m 1 1040 l 164 1229 l 319 1229 l 489 1040 l 310 1040 l 246 1139 l 182 1040 l 1 1040 z "},"K":{"ha":819,"x_min":78,"x_max":814,"o":"m 78 0 l 78 944 l 297 944 l 297 560 l 403 563 l 574 944 l 800 944 l 592 479 l 814 0 l 585 0 l 404 364 l 297 361 l 297 0 l 78 0 z "},"Ķ":{"ha":819,"x_min":78,"x_max":814,"o":"m 274 -379 l 317 -85 l 514 -85 l 436 -379 l 274 -379 m 78 0 l 78 944 l 297 944 l 297 560 l 403 563 l 574 944 l 800 944 l 592 479 l 814 0 l 585 0 l 404 364 l 297 361 l 297 0 l 78 0 z "},"L":{"ha":672,"x_min":78,"x_max":657,"o":"m 78 0 l 78 944 l 297 944 l 297 183 l 657 183 l 657 0 l 78 0 z "},"Ĺ":{"ha":672,"x_min":78,"x_max":657,"o":"m 258 1033 l 119 1071 l 297 1235 l 486 1188 l 258 1033 m 78 0 l 78 944 l 297 944 l 297 183 l 657 183 l 657 0 l 78 0 z "},"Ľ":{"ha":700,"x_min":78,"x_max":683,"o":"m 474 658 l 488 972 l 683 972 l 640 658 l 474 658 m 78 0 l 78 944 l 297 944 l 297 183 l 657 183 l 657 0 l 78 0 z "},"Ļ":{"ha":672,"x_min":78,"x_max":657,"o":"m 231 -379 l 272 -85 l 469 -85 l 392 -379 l 231 -379 m 78 0 l 78 944 l 297 944 l 297 183 l 657 183 l 657 0 l 78 0 z "},"Ł":{"ha":678,"x_min":-1,"x_max":664,"o":"m 25 263 l -1 433 l 451 701 l 478 532 l 25 263 m 85 0 l 85 944 l 304 944 l 304 183 l 664 183 l 664 0 l 85 0 z "},"M":{"ha":1178,"x_min":78,"x_max":1100,"o":"m 78 0 l 78 944 l 422 944 l 589 369 l 749 944 l 1100 944 l 1100 0 l 881 0 l 881 656 l 863 656 l 688 22 l 489 22 l 315 656 l 297 656 l 297 0 l 78 0 z "},"N":{"ha":949,"x_min":78,"x_max":869,"o":"m 78 0 l 78 944 l 342 944 l 626 344 l 650 344 l 650 944 l 869 944 l 869 0 l 608 0 l 321 614 l 297 614 l 297 0 l 78 0 z "},"Ń":{"ha":949,"x_min":78,"x_max":869,"o":"m 78 0 l 78 944 l 342 944 l 626 344 l 650 344 l 650 944 l 869 944 l 869 0 l 608 0 l 321 614 l 297 614 l 297 0 l 78 0 m 439 1033 l 300 1071 l 478 1235 l 667 1188 l 439 1033 z "},"Ň":{"ha":949,"x_min":78,"x_max":869,"o":"m 78 0 l 78 944 l 342 944 l 626 344 l 650 344 l 650 944 l 869 944 l 869 0 l 608 0 l 321 614 l 297 614 l 297 0 l 78 0 m 401 1040 l 239 1228 l 418 1228 l 483 1132 l 547 1228 l 726 1228 l 556 1040 l 401 1040 z "},"Ņ":{"ha":949,"x_min":78,"x_max":869,"o":"m 363 -379 l 404 -85 l 601 -85 l 525 -379 l 363 -379 m 78 0 l 78 944 l 342 944 l 626 344 l 650 344 l 650 944 l 869 944 l 869 0 l 608 0 l 321 614 l 297 614 l 297 0 l 78 0 z "},"Ñ":{"ha":949,"x_min":78,"x_max":869,"o":"m 78 0 l 78 944 l 342 944 l 626 344 l 650 344 l 650 944 l 869 944 l 869 0 l 608 0 l 321 614 l 297 614 l 297 0 l 78 0 m 582 1049 q 527 1058 558 1049 q 465 1079 496 1067 q 407 1101 433 1092 q 367 1110 381 1110 q 315 1092 347 1110 q 260 1060 283 1075 l 226 1174 q 265 1210 243 1192 q 314 1242 288 1229 q 364 1256 340 1256 q 424 1247 392 1256 q 485 1226 456 1238 q 539 1206 514 1215 q 579 1197 564 1197 q 628 1213 596 1197 q 685 1243 661 1229 l 717 1128 q 681 1093 703 1111 q 633 1062 658 1075 q 582 1049 607 1049 z "},"Ŋ":{"ha":949,"x_min":78,"x_max":869,"o":"m 565 -329 l 514 -160 q 585 -141 558 -150 q 627 -117 613 -132 q 647 -76 642 -103 q 653 -4 653 -49 l 653 36 l 869 36 l 869 -7 q 855 -155 869 -99 q 806 -244 840 -211 q 712 -294 771 -276 q 565 -329 653 -312 m 78 0 l 78 944 l 342 944 l 626 344 l 650 344 l 650 944 l 869 944 l 869 0 l 608 0 l 321 614 l 297 614 l 297 0 l 78 0 z "},"O":{"ha":924,"x_min":49,"x_max":875,"o":"m 463 -17 q 220 36 311 -17 q 89 197 129 89 q 49 469 49 306 q 89 744 49 635 q 220 907 129 853 q 463 961 311 961 q 704 907 614 961 q 835 744 794 853 q 875 469 875 635 q 835 195 875 303 q 705 35 794 88 q 463 -17 615 -17 m 463 167 q 583 200 543 167 q 638 301 624 233 q 651 469 651 369 q 638 639 651 569 q 583 744 624 708 q 463 779 543 779 q 342 744 383 779 q 287 640 301 708 q 272 469 272 571 q 287 303 272 371 q 342 201 301 235 q 463 167 382 167 z "},"Ó":{"ha":924,"x_min":49,"x_max":875,"o":"m 463 -17 q 220 36 311 -17 q 89 197 129 89 q 49 469 49 306 q 89 744 49 635 q 220 907 129 853 q 463 961 311 961 q 704 907 614 961 q 835 744 794 853 q 875 469 875 635 q 835 195 875 303 q 705 35 794 88 q 463 -17 615 -17 m 463 167 q 583 200 543 167 q 638 301 624 233 q 651 469 651 369 q 638 639 651 569 q 583 744 624 708 q 463 779 543 779 q 342 744 383 779 q 287 640 301 708 q 272 469 272 571 q 287 303 272 371 q 342 201 301 235 q 463 167 382 167 m 418 1033 l 279 1071 l 457 1235 l 646 1188 l 418 1033 z "},"Ŏ":{"ha":924,"x_min":49,"x_max":875,"o":"m 463 -17 q 220 36 311 -17 q 89 197 129 89 q 49 469 49 306 q 89 744 49 635 q 220 907 129 853 q 463 961 311 961 q 704 907 614 961 q 835 744 794 853 q 875 469 875 635 q 835 195 875 303 q 705 35 794 88 q 463 -17 615 -17 m 463 167 q 583 200 543 167 q 638 301 624 233 q 651 469 651 369 q 638 639 651 569 q 583 744 624 708 q 463 779 543 779 q 342 744 383 779 q 287 640 301 708 q 272 469 272 571 q 287 303 272 371 q 342 201 301 235 q 463 167 382 167 m 463 1039 q 339 1066 388 1039 q 267 1138 290 1093 q 242 1235 243 1182 l 374 1242 q 400 1183 376 1206 q 463 1160 424 1160 q 528 1183 504 1160 q 553 1242 551 1206 l 685 1235 q 660 1138 683 1182 q 588 1066 636 1093 q 463 1039 540 1039 z "},"Ô":{"ha":924,"x_min":49,"x_max":875,"o":"m 463 -17 q 220 36 311 -17 q 89 197 129 89 q 49 469 49 306 q 89 744 49 635 q 220 907 129 853 q 463 961 311 961 q 704 907 614 961 q 835 744 794 853 q 875 469 875 635 q 835 195 875 303 q 705 35 794 88 q 463 -17 615 -17 m 463 167 q 583 200 543 167 q 638 301 624 233 q 651 469 651 369 q 638 639 651 569 q 583 744 624 708 q 463 779 543 779 q 342 744 383 779 q 287 640 301 708 q 272 469 272 571 q 287 303 272 371 q 342 201 301 235 q 463 167 382 167 m 218 1042 l 381 1231 l 536 1231 l 706 1042 l 526 1042 l 463 1140 l 399 1042 l 218 1042 z "},"Ö":{"ha":924,"x_min":49,"x_max":875,"o":"m 463 -17 q 220 36 311 -17 q 89 197 129 89 q 49 469 49 306 q 89 744 49 635 q 220 907 129 853 q 463 961 311 961 q 704 907 614 961 q 835 744 794 853 q 875 469 875 635 q 835 195 875 303 q 705 35 794 88 q 463 -17 615 -17 m 463 167 q 583 200 543 167 q 638 301 624 233 q 651 469 651 369 q 638 639 651 569 q 583 744 624 708 q 463 779 543 779 q 342 744 383 779 q 287 640 301 708 q 272 469 272 571 q 287 303 272 371 q 342 201 301 235 q 463 167 382 167 m 521 1053 l 521 1218 l 686 1218 l 686 1053 l 521 1053 m 236 1053 l 236 1218 l 401 1218 l 401 1053 l 236 1053 z "},"Ò":{"ha":924,"x_min":49,"x_max":875,"o":"m 463 -17 q 220 36 311 -17 q 89 197 129 89 q 49 469 49 306 q 89 744 49 635 q 220 907 129 853 q 463 961 311 961 q 704 907 614 961 q 835 744 794 853 q 875 469 875 635 q 835 195 875 303 q 705 35 794 88 q 463 -17 615 -17 m 463 167 q 583 200 543 167 q 638 301 624 233 q 651 469 651 369 q 638 639 651 569 q 583 744 624 708 q 463 779 543 779 q 342 744 383 779 q 287 640 301 708 q 272 469 272 571 q 287 303 272 371 q 342 201 301 235 q 463 167 382 167 m 471 1033 l 247 1189 l 438 1235 l 608 1071 l 471 1033 z "},"Ő":{"ha":924,"x_min":49,"x_max":875,"o":"m 463 -17 q 220 36 311 -17 q 89 197 129 89 q 49 469 49 306 q 89 744 49 635 q 220 907 129 853 q 463 961 311 961 q 704 907 614 961 q 835 744 794 853 q 875 469 875 635 q 835 195 875 303 q 705 35 794 88 q 463 -17 615 -17 m 463 167 q 583 200 543 167 q 638 301 624 233 q 651 469 651 369 q 638 639 651 569 q 583 744 624 708 q 463 779 543 779 q 342 744 383 779 q 287 640 301 708 q 272 469 272 571 q 287 303 272 371 q 342 201 301 235 q 463 167 382 167 m 625 1017 l 496 1039 l 613 1226 l 785 1203 l 625 1017 m 338 1017 l 208 1039 l 325 1228 l 499 1203 l 338 1017 z "},"Ō":{"ha":924,"x_min":49,"x_max":875,"o":"m 463 -17 q 220 36 311 -17 q 89 197 129 89 q 49 469 49 306 q 89 744 49 635 q 220 907 129 853 q 463 961 311 961 q 704 907 614 961 q 835 744 794 853 q 875 469 875 635 q 835 195 875 303 q 705 35 794 88 q 463 -17 615 -17 m 463 167 q 583 200 543 167 q 638 301 624 233 q 651 469 651 369 q 638 639 651 569 q 583 744 624 708 q 463 779 543 779 q 342 744 383 779 q 287 640 301 708 q 272 469 272 571 q 287 303 272 371 q 342 201 301 235 q 463 167 382 167 m 242 1056 l 242 1194 l 682 1194 l 682 1056 l 242 1056 z "},"Ø":{"ha":924,"x_min":49,"x_max":875,"o":"m 425 496 l 438 675 l 774 1026 l 772 911 l 425 496 m 317 -117 l 124 -68 l 292 308 l 501 289 l 317 -117 m 463 -17 q 220 36 311 -17 q 89 197 129 89 q 49 469 49 306 q 89 744 49 635 q 220 907 129 853 q 463 961 311 961 q 704 907 614 961 q 835 744 794 853 q 875 469 875 635 q 835 195 875 303 q 705 35 794 88 q 463 -17 615 -17 m 463 167 q 583 200 543 167 q 638 301 624 233 q 651 469 651 369 q 638 639 651 569 q 583 744 624 708 q 463 779 543 779 q 342 744 383 779 q 287 640 301 708 q 272 469 272 571 q 287 303 272 371 q 342 201 301 235 q 463 167 382 167 z "},"Ǿ":{"ha":925,"x_min":49,"x_max":875,"o":"m 425 496 l 438 675 l 774 1026 l 772 911 l 425 496 m 317 -117 l 124 -68 l 292 308 l 501 289 l 317 -117 m 467 1089 l 328 1126 l 506 1290 l 694 1243 l 467 1089 m 463 -17 q 220 36 311 -17 q 89 197 129 89 q 49 469 49 306 q 89 744 49 635 q 220 907 129 853 q 463 961 311 961 q 704 907 614 961 q 835 744 794 853 q 875 469 875 635 q 835 195 875 303 q 705 35 794 88 q 463 -17 615 -17 m 463 167 q 583 200 543 167 q 638 301 624 233 q 651 469 651 369 q 638 639 651 569 q 583 744 624 708 q 463 779 543 779 q 342 744 383 779 q 287 640 301 708 q 272 469 272 571 q 287 303 272 371 q 342 201 301 235 q 463 167 382 167 z "},"Õ":{"ha":924,"x_min":49,"x_max":875,"o":"m 463 -17 q 220 36 311 -17 q 89 197 129 89 q 49 469 49 306 q 89 744 49 635 q 220 907 129 853 q 463 961 311 961 q 704 907 614 961 q 835 744 794 853 q 875 469 875 635 q 835 195 875 303 q 705 35 794 88 q 463 -17 615 -17 m 463 167 q 583 200 543 167 q 638 301 624 233 q 651 469 651 369 q 638 639 651 569 q 583 744 624 708 q 463 779 543 779 q 342 744 383 779 q 287 640 301 708 q 272 469 272 571 q 287 303 272 371 q 342 201 301 235 q 463 167 382 167 m 571 1049 q 516 1058 547 1049 q 453 1079 485 1067 q 396 1101 422 1092 q 356 1110 369 1110 q 304 1092 336 1110 q 249 1060 272 1075 l 215 1174 q 254 1210 232 1192 q 303 1242 276 1229 q 353 1256 329 1256 q 413 1247 381 1256 q 474 1226 444 1238 q 528 1206 503 1215 q 568 1197 553 1197 q 617 1213 585 1197 q 674 1243 650 1229 l 706 1128 q 669 1093 692 1111 q 622 1062 647 1075 q 571 1049 596 1049 z "},"Œ":{"ha":1256,"x_min":49,"x_max":1213,"o":"m 422 -17 q 192 38 274 -17 q 80 201 111 92 q 49 478 49 311 q 67 697 49 606 q 128 847 85 789 q 244 933 171 906 q 429 961 318 961 q 494 959 454 961 q 578 953 535 957 q 657 944 622 949 l 1213 944 l 1213 764 l 814 764 l 814 567 l 1129 567 l 1129 390 l 814 390 l 814 181 l 1213 181 l 1213 0 l 660 0 q 586 -8 629 -4 q 499 -15 543 -12 q 422 -17 456 -17 m 476 167 q 501 167 486 167 q 533 167 517 167 q 566 169 550 168 q 594 172 582 171 l 594 772 q 568 774 585 772 q 533 776 551 775 q 499 777 514 776 q 475 778 483 778 q 344 749 389 778 q 283 654 299 721 q 267 476 267 588 q 281 299 267 368 q 339 199 294 231 q 476 167 383 167 z "},"P":{"ha":836,"x_min":78,"x_max":804,"o":"m 78 0 l 78 944 l 436 944 q 641 913 560 944 q 763 808 722 881 q 804 607 804 735 q 763 405 804 482 q 641 293 722 328 q 436 258 560 258 l 297 258 l 297 0 l 78 0 m 297 436 l 429 436 q 545 478 510 436 q 581 607 581 521 q 546 731 581 694 q 429 767 511 767 l 297 767 l 297 436 z "},"Þ":{"ha":840,"x_min":78,"x_max":800,"o":"m 78 0 l 78 949 l 293 949 l 293 822 l 435 822 q 638 790 557 822 q 760 685 719 758 q 800 486 800 613 q 760 282 800 360 q 638 168 719 204 q 435 132 557 132 l 293 132 l 293 0 l 78 0 m 293 315 l 428 315 q 546 358 510 315 q 582 485 582 401 q 546 606 582 571 q 428 640 510 640 l 293 640 l 293 315 z "},"Q":{"ha":922,"x_min":49,"x_max":872,"o":"m 665 -211 l 536 -10 q 500 -15 519 -12 q 460 -17 481 -17 q 217 35 307 -17 q 88 196 128 88 q 49 469 49 304 q 88 744 49 636 q 217 907 128 853 q 460 961 307 961 q 703 908 613 961 q 833 745 793 854 q 872 469 872 636 q 840 210 872 314 q 726 53 807 107 l 842 -125 l 665 -211 m 460 167 q 580 200 539 167 q 635 301 621 233 q 650 469 650 369 q 635 638 650 569 q 580 743 621 707 q 460 779 539 779 q 340 743 382 779 q 283 638 299 707 q 268 469 268 569 q 283 302 268 369 q 340 201 299 235 q 460 167 381 167 z "},"R":{"ha":857,"x_min":78,"x_max":810,"o":"m 78 0 l 78 944 l 453 944 q 651 915 572 944 q 770 817 731 886 q 810 626 810 749 q 775 456 810 525 q 671 351 740 386 l 807 0 l 579 0 l 469 301 l 297 301 l 297 0 l 78 0 m 297 479 l 458 479 q 533 498 504 479 q 574 550 561 517 q 586 626 586 583 q 554 732 586 697 q 453 767 522 767 l 297 767 l 297 479 z "},"Ŕ":{"ha":857,"x_min":78,"x_max":810,"o":"m 78 0 l 78 944 l 453 944 q 651 915 572 944 q 770 817 731 886 q 810 626 810 749 q 775 456 810 525 q 671 351 740 386 l 807 0 l 579 0 l 469 301 l 297 301 l 297 0 l 78 0 m 297 479 l 458 479 q 533 498 504 479 q 574 550 561 517 q 586 626 586 583 q 554 732 586 697 q 453 767 522 767 l 297 767 l 297 479 m 397 1033 l 258 1071 l 436 1235 l 625 1188 l 397 1033 z "},"Ř":{"ha":857,"x_min":78,"x_max":810,"o":"m 78 0 l 78 944 l 453 944 q 651 915 572 944 q 770 817 731 886 q 810 626 810 749 q 775 456 810 525 q 671 351 740 386 l 807 0 l 579 0 l 469 301 l 297 301 l 297 0 l 78 0 m 297 479 l 458 479 q 533 498 504 479 q 574 550 561 517 q 586 626 586 583 q 554 732 586 697 q 453 767 522 767 l 297 767 l 297 479 m 321 1042 l 158 1229 l 338 1229 l 403 1133 l 467 1229 l 646 1229 l 475 1042 l 321 1042 z "},"Ŗ":{"ha":856,"x_min":78,"x_max":810,"o":"m 78 0 l 78 944 l 453 944 q 651 915 572 944 q 770 817 731 886 q 810 626 810 749 q 775 456 810 525 q 671 351 740 386 l 807 0 l 579 0 l 469 301 l 297 301 l 297 0 l 78 0 m 297 479 l 458 479 q 533 498 504 479 q 574 550 561 517 q 586 626 586 583 q 554 732 586 697 q 453 767 522 767 l 297 767 l 297 479 m 306 -469 l 350 -118 l 574 -118 l 483 -469 l 306 -469 z "},"S":{"ha":778,"x_min":44,"x_max":739,"o":"m 400 -17 q 278 -10 343 -17 q 153 7 213 -3 q 51 25 93 17 l 64 196 q 165 184 107 190 q 282 173 224 178 q 383 168 340 168 q 460 180 431 168 q 504 215 490 192 q 518 276 518 239 q 505 325 518 307 q 458 355 492 343 q 360 378 424 367 q 213 414 274 393 q 115 467 153 435 q 61 549 78 500 q 44 668 44 599 q 85 846 44 782 q 203 936 126 910 q 383 963 279 963 q 493 957 432 963 q 613 944 554 951 q 714 929 671 938 l 704 756 q 607 766 663 761 q 497 774 551 771 q 401 778 442 778 q 325 769 356 778 q 280 740 294 760 q 265 690 265 721 q 280 637 265 656 q 330 606 294 618 q 429 579 365 593 q 574 539 515 560 q 670 488 633 518 q 723 411 707 458 q 739 292 739 364 q 699 113 739 181 q 584 14 660 44 q 400 -17 508 -17 z "},"Ś":{"ha":778,"x_min":44,"x_max":739,"o":"m 400 -17 q 278 -10 343 -17 q 153 7 213 -3 q 51 25 93 17 l 64 196 q 165 184 107 190 q 282 173 224 178 q 383 168 340 168 q 460 180 431 168 q 504 215 490 192 q 518 276 518 239 q 505 325 518 307 q 458 355 492 343 q 360 378 424 367 q 213 414 274 393 q 115 467 153 435 q 61 549 78 500 q 44 668 44 599 q 85 846 44 782 q 203 936 126 910 q 383 963 279 963 q 493 957 432 963 q 613 944 554 951 q 714 929 671 938 l 704 756 q 607 766 663 761 q 497 774 551 771 q 401 778 442 778 q 325 769 356 778 q 280 740 294 760 q 265 690 265 721 q 280 637 265 656 q 330 606 294 618 q 429 579 365 593 q 574 539 515 560 q 670 488 633 518 q 723 411 707 458 q 739 292 739 364 q 699 113 739 181 q 584 14 660 44 q 400 -17 508 -17 m 365 1033 l 226 1071 l 404 1235 l 593 1188 l 365 1033 z "},"Š":{"ha":778,"x_min":44,"x_max":739,"o":"m 400 -17 q 278 -10 343 -17 q 153 7 213 -3 q 51 25 93 17 l 64 196 q 165 184 107 190 q 282 173 224 178 q 383 168 340 168 q 460 180 431 168 q 504 215 490 192 q 518 276 518 239 q 505 325 518 307 q 458 355 492 343 q 360 378 424 367 q 213 414 274 393 q 115 467 153 435 q 61 549 78 500 q 44 668 44 599 q 85 846 44 782 q 203 936 126 910 q 383 963 279 963 q 493 957 432 963 q 613 944 554 951 q 714 929 671 938 l 704 756 q 607 766 663 761 q 497 774 551 771 q 401 778 442 778 q 325 769 356 778 q 280 740 294 760 q 265 690 265 721 q 280 637 265 656 q 330 606 294 618 q 429 579 365 593 q 574 539 515 560 q 670 488 633 518 q 723 411 707 458 q 739 292 739 364 q 699 113 739 181 q 584 14 660 44 q 400 -17 508 -17 m 319 1042 l 157 1229 l 336 1229 l 401 1133 l 465 1229 l 644 1229 l 474 1042 l 319 1042 z "},"Ş":{"ha":778,"x_min":44,"x_max":739,"o":"m 400 -17 q 278 -10 343 -17 q 153 7 213 -3 q 51 25 93 17 l 64 196 q 165 184 107 190 q 282 173 224 178 q 383 168 340 168 q 460 180 431 168 q 504 215 490 192 q 518 276 518 239 q 505 325 518 307 q 458 355 492 343 q 360 378 424 367 q 213 414 274 393 q 115 467 153 435 q 61 549 78 500 q 44 668 44 599 q 85 846 44 782 q 203 936 126 910 q 383 963 279 963 q 493 957 432 963 q 613 944 554 951 q 714 929 671 938 l 704 756 q 607 766 663 761 q 497 774 551 771 q 401 778 442 778 q 325 769 356 778 q 280 740 294 760 q 265 690 265 721 q 280 637 265 656 q 330 606 294 618 q 429 579 365 593 q 574 539 515 560 q 670 488 633 518 q 723 411 707 458 q 739 292 739 364 q 699 113 739 181 q 584 14 660 44 q 400 -17 508 -17 m 432 -312 q 349 -308 390 -312 q 283 -300 307 -304 l 288 -211 q 322 -212 296 -211 q 365 -212 349 -212 q 410 -203 397 -212 q 422 -172 422 -193 q 409 -143 422 -150 q 365 -136 396 -136 l 332 -136 l 332 8 l 413 8 l 413 -56 q 511 -65 472 -56 q 568 -100 550 -75 q 586 -174 586 -125 q 546 -280 586 -247 q 432 -312 506 -312 z "},"Ŝ":{"ha":778,"x_min":44,"x_max":739,"o":"m 400 -17 q 278 -10 343 -17 q 153 7 213 -3 q 51 25 93 17 l 64 196 q 165 184 107 190 q 282 173 224 178 q 383 168 340 168 q 460 180 431 168 q 504 215 490 192 q 518 276 518 239 q 505 325 518 307 q 458 355 492 343 q 360 378 424 367 q 213 414 274 393 q 115 467 153 435 q 61 549 78 500 q 44 668 44 599 q 85 846 44 782 q 203 936 126 910 q 383 963 279 963 q 493 957 432 963 q 613 944 554 951 q 714 929 671 938 l 704 756 q 607 766 663 761 q 497 774 551 771 q 401 778 442 778 q 325 769 356 778 q 280 740 294 760 q 265 690 265 721 q 280 637 265 656 q 330 606 294 618 q 429 579 365 593 q 574 539 515 560 q 670 488 633 518 q 723 411 707 458 q 739 292 739 364 q 699 113 739 181 q 584 14 660 44 q 400 -17 508 -17 m 151 1040 l 314 1229 l 469 1229 l 639 1040 l 460 1040 l 396 1139 l 332 1040 l 151 1040 z "},"Ș":{"ha":778,"x_min":44,"x_max":739,"o":"m 268 -379 l 310 -85 l 508 -85 l 429 -379 l 268 -379 m 400 -17 q 278 -10 343 -17 q 153 7 213 -3 q 51 25 93 17 l 64 196 q 165 184 107 190 q 282 173 224 178 q 383 168 340 168 q 460 180 431 168 q 504 215 490 192 q 518 276 518 239 q 505 325 518 307 q 458 355 492 343 q 360 378 424 367 q 213 414 274 393 q 115 467 153 435 q 61 549 78 500 q 44 668 44 599 q 85 846 44 782 q 203 936 126 910 q 383 963 279 963 q 493 957 432 963 q 613 944 554 951 q 714 929 671 938 l 704 756 q 607 766 663 761 q 497 774 551 771 q 401 778 442 778 q 325 769 356 778 q 280 740 294 760 q 265 690 265 721 q 280 637 265 656 q 330 606 294 618 q 429 579 365 593 q 574 539 515 560 q 670 488 633 518 q 723 411 707 458 q 739 292 739 364 q 699 113 739 181 q 584 14 660 44 q 400 -17 508 -17 z "},"T":{"ha":725,"x_min":15,"x_max":710,"o":"m 256 0 l 256 761 l 15 761 l 15 944 l 710 944 l 710 761 l 475 761 l 475 0 l 256 0 z "},"Ŧ":{"ha":728,"x_min":17,"x_max":711,"o":"m 115 338 l 115 481 l 619 481 l 619 338 l 115 338 m 257 0 l 257 761 l 17 761 l 17 944 l 711 944 l 711 761 l 476 761 l 476 0 l 257 0 z "},"Ť":{"ha":725,"x_min":15,"x_max":710,"o":"m 256 0 l 256 761 l 15 761 l 15 944 l 710 944 l 710 761 l 475 761 l 475 0 l 256 0 m 281 1042 l 118 1229 l 297 1229 l 363 1133 l 426 1229 l 606 1229 l 435 1042 l 281 1042 z "},"Ţ":{"ha":725,"x_min":15,"x_max":710,"o":"m 256 0 l 256 761 l 15 761 l 15 944 l 710 944 l 710 761 l 475 761 l 475 0 l 256 0 m 425 -312 q 342 -308 383 -312 q 276 -300 300 -304 l 281 -211 q 315 -212 289 -211 q 358 -212 342 -212 q 403 -203 390 -212 q 415 -172 415 -193 q 402 -143 415 -150 q 358 -136 389 -136 l 325 -136 l 325 8 l 406 8 l 406 -56 q 504 -65 465 -56 q 561 -100 543 -75 q 579 -174 579 -125 q 539 -280 579 -247 q 425 -312 499 -312 z "},"Ț":{"ha":725,"x_min":15,"x_max":710,"o":"m 239 -379 l 281 -85 l 478 -85 l 400 -379 l 239 -379 m 256 0 l 256 761 l 15 761 l 15 944 l 710 944 l 710 761 l 475 761 l 475 0 l 256 0 z "},"U":{"ha":893,"x_min":72,"x_max":821,"o":"m 446 -17 q 241 15 325 -17 q 115 118 157 46 q 72 314 72 190 l 72 944 l 292 944 l 292 306 q 331 200 292 232 q 446 168 369 168 q 563 200 524 168 q 601 306 601 232 l 601 944 l 821 944 l 821 317 q 778 121 821 194 q 652 15 736 47 q 446 -17 568 -17 z "},"Ú":{"ha":893,"x_min":72,"x_max":821,"o":"m 446 -17 q 241 15 325 -17 q 115 118 157 46 q 72 314 72 190 l 72 944 l 292 944 l 292 306 q 331 200 292 232 q 446 168 369 168 q 563 200 524 168 q 601 306 601 232 l 601 944 l 821 944 l 821 317 q 778 121 821 194 q 652 15 736 47 q 446 -17 568 -17 m 407 1033 l 268 1071 l 446 1235 l 635 1188 l 407 1033 z "},"Ŭ":{"ha":893,"x_min":72,"x_max":821,"o":"m 446 -17 q 241 15 325 -17 q 115 118 157 46 q 72 314 72 190 l 72 944 l 292 944 l 292 306 q 331 200 292 232 q 446 168 369 168 q 563 200 524 168 q 601 306 601 232 l 601 944 l 821 944 l 821 317 q 778 121 821 194 q 652 15 736 47 q 446 -17 568 -17 m 447 1039 q 324 1066 372 1039 q 251 1138 275 1093 q 226 1235 228 1182 l 358 1242 q 385 1183 361 1206 q 447 1160 408 1160 q 513 1183 489 1160 q 538 1242 536 1206 l 669 1235 q 644 1138 668 1182 q 573 1066 621 1093 q 447 1039 525 1039 z "},"Û":{"ha":888,"x_min":72,"x_max":821,"o":"m 446 -17 q 241 15 325 -17 q 115 118 157 46 q 72 314 72 190 l 72 944 l 292 944 l 292 306 q 331 200 292 232 q 446 168 369 168 q 563 200 524 168 q 601 306 601 232 l 601 944 l 821 944 l 821 317 q 778 121 821 194 q 652 15 736 47 q 446 -17 568 -17 m 200 1042 l 363 1231 l 518 1231 l 688 1042 l 508 1042 l 444 1140 l 381 1042 l 200 1042 z "},"Ü":{"ha":893,"x_min":72,"x_max":821,"o":"m 446 -17 q 241 15 325 -17 q 115 118 157 46 q 72 314 72 190 l 72 944 l 292 944 l 292 306 q 331 200 292 232 q 446 168 369 168 q 563 200 524 168 q 601 306 601 232 l 601 944 l 821 944 l 821 317 q 778 121 821 194 q 652 15 736 47 q 446 -17 568 -17 m 506 1053 l 506 1218 l 671 1218 l 671 1053 l 506 1053 m 221 1053 l 221 1218 l 386 1218 l 386 1053 l 221 1053 z "},"Ù":{"ha":888,"x_min":72,"x_max":821,"o":"m 446 -17 q 241 15 325 -17 q 115 118 157 46 q 72 314 72 190 l 72 944 l 292 944 l 292 306 q 331 200 292 232 q 446 168 369 168 q 563 200 524 168 q 601 306 601 232 l 601 944 l 821 944 l 821 317 q 778 121 821 194 q 652 15 736 47 q 446 -17 568 -17 m 476 1033 l 253 1189 l 443 1235 l 614 1071 l 476 1033 z "},"Ű":{"ha":893,"x_min":72,"x_max":821,"o":"m 446 -17 q 241 15 325 -17 q 115 118 157 46 q 72 314 72 190 l 72 944 l 292 944 l 292 306 q 331 200 292 232 q 446 168 369 168 q 563 200 524 168 q 601 306 601 232 l 601 944 l 821 944 l 821 317 q 778 121 821 194 q 652 15 736 47 q 446 -17 568 -17 m 601 1017 l 472 1039 l 589 1226 l 761 1203 l 601 1017 m 314 1017 l 185 1039 l 301 1228 l 475 1203 l 314 1017 z "},"Ū":{"ha":893,"x_min":72,"x_max":821,"o":"m 446 -17 q 241 15 325 -17 q 115 118 157 46 q 72 314 72 190 l 72 944 l 292 944 l 292 306 q 331 200 292 232 q 446 168 369 168 q 563 200 524 168 q 601 306 601 232 l 601 944 l 821 944 l 821 317 q 778 121 821 194 q 652 15 736 47 q 446 -17 568 -17 m 228 1056 l 228 1194 l 668 1194 l 668 1056 l 228 1056 z "},"Ų":{"ha":893,"x_min":72,"x_max":821,"o":"m 446 -17 q 241 15 325 -17 q 115 118 157 46 q 72 314 72 190 l 72 944 l 292 944 l 292 306 q 331 200 292 232 q 446 168 369 168 q 563 200 524 168 q 601 306 601 232 l 601 944 l 821 944 l 821 317 q 778 121 821 194 q 652 15 736 47 q 446 -17 568 -17 m 464 -297 q 373 -281 413 -297 q 311 -235 333 -265 q 289 -157 289 -204 q 312 -79 289 -115 q 367 -16 335 -43 q 432 28 400 11 l 590 11 q 541 -37 564 -11 q 503 -87 518 -62 q 489 -132 489 -112 q 500 -161 489 -150 q 533 -172 511 -172 q 567 -169 547 -172 q 599 -165 586 -167 l 614 -281 q 549 -291 590 -285 q 464 -297 508 -297 z "},"Ů":{"ha":893,"x_min":72,"x_max":821,"o":"m 446 -17 q 241 15 325 -17 q 115 118 157 46 q 72 314 72 190 l 72 944 l 292 944 l 292 306 q 331 200 292 232 q 446 168 369 168 q 563 200 524 168 q 601 306 601 232 l 601 944 l 821 944 l 821 317 q 778 121 821 194 q 652 15 736 47 q 446 -17 568 -17 m 447 1000 q 319 1035 369 1000 q 269 1140 269 1069 q 292 1220 269 1189 q 356 1267 315 1251 q 447 1282 397 1282 q 575 1247 524 1282 q 626 1140 626 1213 q 576 1036 626 1072 q 447 1000 525 1000 m 449 1089 q 481 1095 467 1089 q 503 1113 496 1101 q 511 1140 511 1125 q 494 1179 511 1167 q 449 1192 476 1192 q 415 1185 429 1192 q 393 1168 401 1179 q 385 1140 385 1157 q 403 1102 385 1115 q 449 1089 421 1089 z "},"Ũ":{"ha":893,"x_min":72,"x_max":821,"o":"m 446 -17 q 241 15 325 -17 q 115 118 157 46 q 72 314 72 190 l 72 944 l 292 944 l 292 306 q 331 200 292 232 q 446 168 369 168 q 563 200 524 168 q 601 306 601 232 l 601 944 l 821 944 l 821 317 q 778 121 821 194 q 652 15 736 47 q 446 -17 568 -17 m 556 1049 q 501 1058 532 1049 q 438 1079 469 1067 q 381 1101 407 1092 q 340 1110 354 1110 q 289 1092 321 1110 q 233 1060 257 1075 l 200 1174 q 239 1210 217 1192 q 288 1242 261 1229 q 338 1256 314 1256 q 397 1247 365 1256 q 458 1226 429 1238 q 513 1206 488 1215 q 553 1197 538 1197 q 602 1213 569 1197 q 658 1243 635 1229 l 690 1128 q 654 1093 676 1111 q 606 1062 632 1075 q 556 1049 581 1049 z "},"V":{"ha":821,"x_min":11,"x_max":807,"o":"m 231 0 l 11 944 l 243 944 l 386 215 l 436 215 l 575 944 l 807 944 l 593 0 l 231 0 z "},"W":{"ha":1253,"x_min":25,"x_max":1226,"o":"m 175 0 l 25 944 l 246 944 l 347 214 l 378 214 l 506 935 l 749 935 l 879 214 l 911 214 l 1004 944 l 1226 944 l 1079 0 l 739 0 l 624 715 l 625 715 l 508 0 l 175 0 z "},"Ẃ":{"ha":1253,"x_min":25,"x_max":1226,"o":"m 175 0 l 25 944 l 246 944 l 347 214 l 378 214 l 506 935 l 749 935 l 879 214 l 911 214 l 1004 944 l 1226 944 l 1079 0 l 739 0 l 624 715 l 625 715 l 508 0 l 175 0 m 603 1033 l 464 1071 l 642 1235 l 831 1188 l 603 1033 z "},"Ŵ":{"ha":1253,"x_min":25,"x_max":1226,"o":"m 175 0 l 25 944 l 246 944 l 347 214 l 378 214 l 506 935 l 749 935 l 879 214 l 911 214 l 1004 944 l 1226 944 l 1079 0 l 739 0 l 624 715 l 625 715 l 508 0 l 175 0 m 382 1040 l 544 1229 l 700 1229 l 869 1040 l 690 1040 l 626 1139 l 563 1040 l 382 1040 z "},"Ẅ":{"ha":1253,"x_min":25,"x_max":1226,"o":"m 175 0 l 25 944 l 246 944 l 347 214 l 378 214 l 506 935 l 749 935 l 879 214 l 911 214 l 1004 944 l 1226 944 l 1079 0 l 739 0 l 624 715 l 625 715 l 508 0 l 175 0 m 685 1053 l 685 1218 l 850 1218 l 850 1053 l 685 1053 m 400 1053 l 400 1218 l 565 1218 l 565 1053 l 400 1053 z "},"Ẁ":{"ha":1253,"x_min":25,"x_max":1226,"o":"m 175 0 l 25 944 l 246 944 l 347 214 l 378 214 l 506 935 l 749 935 l 879 214 l 911 214 l 1004 944 l 1226 944 l 1079 0 l 739 0 l 624 715 l 625 715 l 508 0 l 175 0 m 653 1033 l 429 1189 l 619 1235 l 790 1071 l 653 1033 z "},"X":{"ha":793,"x_min":7,"x_max":790,"o":"m 7 0 l 253 457 l 7 944 l 236 944 l 396 615 l 569 944 l 790 944 l 543 481 l 783 0 l 553 0 l 394 319 l 233 0 l 7 0 z "},"Y":{"ha":785,"x_min":-3,"x_max":790,"o":"m 282 0 l 282 346 l -3 944 l 233 944 l 393 588 l 554 944 l 790 944 l 501 346 l 501 0 l 282 0 z "},"Ý":{"ha":785,"x_min":-3,"x_max":790,"o":"m 282 0 l 282 346 l -3 944 l 233 944 l 393 588 l 554 944 l 790 944 l 501 346 l 501 0 l 282 0 m 390 1033 l 251 1071 l 429 1235 l 618 1188 l 390 1033 z "},"Ŷ":{"ha":785,"x_min":-3,"x_max":790,"o":"m 282 0 l 282 346 l -3 944 l 233 944 l 393 588 l 554 944 l 790 944 l 501 346 l 501 0 l 282 0 m 150 1042 l 313 1231 l 468 1231 l 638 1042 l 458 1042 l 394 1140 l 331 1042 l 150 1042 z "},"Ÿ":{"ha":785,"x_min":-3,"x_max":790,"o":"m 282 0 l 282 346 l -3 944 l 233 944 l 393 588 l 554 944 l 790 944 l 501 346 l 501 0 l 282 0 m 453 1053 l 453 1218 l 618 1218 l 618 1053 l 453 1053 m 168 1053 l 168 1218 l 333 1218 l 333 1053 l 168 1053 z "},"Ỳ":{"ha":785,"x_min":-3,"x_max":790,"o":"m 282 0 l 282 346 l -3 944 l 233 944 l 393 588 l 554 944 l 790 944 l 501 346 l 501 0 l 282 0 m 410 1033 l 186 1189 l 376 1235 l 547 1071 l 410 1033 z "},"Z":{"ha":768,"x_min":43,"x_max":725,"o":"m 43 0 l 43 189 l 442 736 l 442 763 l 43 763 l 43 944 l 725 944 l 725 749 l 328 208 l 328 183 l 725 183 l 725 0 l 43 0 z "},"Ź":{"ha":768,"x_min":43,"x_max":725,"o":"m 43 0 l 43 189 l 442 736 l 442 763 l 43 763 l 43 944 l 725 944 l 725 749 l 328 208 l 328 183 l 725 183 l 725 0 l 43 0 m 351 1033 l 213 1071 l 390 1235 l 579 1188 l 351 1033 z "},"Ž":{"ha":768,"x_min":43,"x_max":725,"o":"m 43 0 l 43 189 l 442 736 l 442 763 l 43 763 l 43 944 l 725 944 l 725 749 l 328 208 l 328 183 l 725 183 l 725 0 l 43 0 m 322 1042 l 160 1229 l 339 1229 l 404 1133 l 468 1229 l 647 1229 l 476 1042 l 322 1042 z "},"Ż":{"ha":768,"x_min":43,"x_max":725,"o":"m 43 0 l 43 189 l 442 736 l 442 763 l 43 763 l 43 944 l 725 944 l 725 749 l 328 208 l 328 183 l 725 183 l 725 0 l 43 0 m 293 1049 l 293 1211 l 474 1211 l 474 1049 l 293 1049 z "},"Ằ":{"ha":857,"x_min":13,"x_max":847,"o":"m 428 1015 q 304 1042 353 1015 q 232 1114 256 1069 q 207 1211 208 1158 l 339 1218 q 365 1159 342 1182 q 428 1136 389 1136 q 493 1159 469 1136 q 518 1218 517 1182 l 650 1211 q 625 1114 649 1158 q 553 1042 601 1069 q 428 1015 506 1015 m 515 1267 l 225 1363 l 353 1519 l 614 1382 l 515 1267 m 13 0 l 246 944 l 613 944 l 847 0 l 626 0 l 579 174 l 274 174 l 229 0 l 13 0 m 306 347 l 551 347 l 456 769 l 403 769 l 306 347 z "},"Ỹ":{"ha":779,"x_min":-4,"x_max":788,"o":"m 489 1053 q 439 1063 467 1053 q 383 1085 411 1072 q 330 1106 354 1097 q 289 1115 306 1115 q 238 1097 269 1115 q 183 1061 206 1078 l 150 1176 q 188 1213 165 1194 q 238 1244 211 1232 q 288 1257 264 1257 q 342 1248 314 1257 q 398 1227 371 1239 q 448 1206 425 1215 q 486 1196 471 1196 q 536 1214 504 1196 q 592 1250 568 1232 l 625 1132 q 587 1097 610 1115 q 539 1065 564 1078 q 489 1053 514 1053 m 281 0 l 281 346 l -4 944 l 232 944 l 392 588 l 553 944 l 789 944 l 500 346 l 500 0 l 281 0 z "},"a":{"ha":736,"x_min":35,"x_max":713,"o":"m 261 -17 q 91 39 147 -17 q 35 208 35 94 q 65 333 35 289 q 151 396 94 376 q 289 419 208 415 l 444 432 l 444 468 q 422 527 444 510 q 354 544 399 544 q 263 542 314 544 q 161 535 211 539 q 75 526 111 531 l 68 674 q 158 692 106 683 q 267 708 210 701 q 374 714 324 714 q 527 692 464 714 q 624 620 590 671 q 657 479 657 569 l 657 174 q 677 148 661 157 q 713 135 693 139 l 708 -7 q 664 -10 688 -8 q 619 -12 640 -12 q 585 -10 599 -11 q 523 8 549 -6 q 485 35 497 21 q 426 13 463 25 q 348 -8 390 0 q 261 -17 306 -17 m 314 138 q 362 143 338 138 q 408 156 386 149 q 444 168 431 163 l 444 306 l 322 294 q 265 270 283 290 q 247 214 247 250 q 264 158 247 179 q 314 138 281 138 z "},"á":{"ha":736,"x_min":35,"x_max":713,"o":"m 261 -17 q 91 39 147 -17 q 35 208 35 94 q 65 333 35 289 q 151 396 94 376 q 289 419 208 415 l 444 432 l 444 468 q 422 527 444 510 q 354 544 399 544 q 263 542 314 544 q 161 535 211 539 q 75 526 111 531 l 68 674 q 158 692 106 683 q 267 708 210 701 q 374 714 324 714 q 527 692 464 714 q 624 620 590 671 q 657 479 657 569 l 657 174 q 677 148 661 157 q 713 135 693 139 l 708 -7 q 664 -10 688 -8 q 619 -12 640 -12 q 585 -10 599 -11 q 523 8 549 -6 q 485 35 497 21 q 426 13 463 25 q 348 -8 390 0 q 261 -17 306 -17 m 314 138 q 362 143 338 138 q 408 156 386 149 q 444 168 431 163 l 444 306 l 322 294 q 265 270 283 290 q 247 214 247 250 q 264 158 247 179 q 314 138 281 138 m 258 796 l 161 911 l 422 1049 l 550 892 l 258 796 z "},"ă":{"ha":736,"x_min":35,"x_max":713,"o":"m 261 -17 q 91 39 147 -17 q 35 208 35 94 q 65 333 35 289 q 151 396 94 376 q 289 419 208 415 l 444 432 l 444 468 q 422 527 444 510 q 354 544 399 544 q 263 542 314 544 q 161 535 211 539 q 75 526 111 531 l 68 674 q 158 692 106 683 q 267 708 210 701 q 374 714 324 714 q 527 692 464 714 q 624 620 590 671 q 657 479 657 569 l 657 174 q 677 148 661 157 q 713 135 693 139 l 708 -7 q 664 -10 688 -8 q 619 -12 640 -12 q 585 -10 599 -11 q 523 8 549 -6 q 485 35 497 21 q 426 13 463 25 q 348 -8 390 0 q 261 -17 306 -17 m 314 138 q 362 143 338 138 q 408 156 386 149 q 444 168 431 163 l 444 306 l 322 294 q 265 270 283 290 q 247 214 247 250 q 264 158 247 179 q 314 138 281 138 m 364 789 q 240 819 288 789 q 172 897 193 849 q 149 999 150 944 l 275 1006 q 300 942 278 967 q 364 917 322 917 q 429 942 407 917 q 453 1006 451 968 l 579 999 q 565 919 578 957 q 528 853 553 882 q 463 806 503 824 q 364 789 422 789 z "},"â":{"ha":736,"x_min":35,"x_max":713,"o":"m 261 -17 q 91 39 147 -17 q 35 208 35 94 q 65 333 35 289 q 151 396 94 376 q 289 419 208 415 l 444 432 l 444 468 q 422 527 444 510 q 354 544 399 544 q 263 542 314 544 q 161 535 211 539 q 75 526 111 531 l 68 674 q 158 692 106 683 q 267 708 210 701 q 374 714 324 714 q 527 692 464 714 q 624 620 590 671 q 657 479 657 569 l 657 174 q 677 148 661 157 q 713 135 693 139 l 708 -7 q 664 -10 688 -8 q 619 -12 640 -12 q 585 -10 599 -11 q 523 8 549 -6 q 485 35 497 21 q 426 13 463 25 q 348 -8 390 0 q 261 -17 306 -17 m 314 138 q 362 143 338 138 q 408 156 386 149 q 444 168 431 163 l 444 306 l 322 294 q 265 270 283 290 q 247 214 247 250 q 264 158 247 179 q 314 138 281 138 m 135 797 l 283 1010 l 431 1010 l 589 797 l 421 797 l 361 906 l 304 797 l 135 797 z "},"ä":{"ha":736,"x_min":35,"x_max":713,"o":"m 261 -17 q 91 39 147 -17 q 35 208 35 94 q 65 333 35 289 q 151 396 94 376 q 289 419 208 415 l 444 432 l 444 468 q 422 527 444 510 q 354 544 399 544 q 263 542 314 544 q 161 535 211 539 q 75 526 111 531 l 68 674 q 158 692 106 683 q 267 708 210 701 q 374 714 324 714 q 527 692 464 714 q 624 620 590 671 q 657 479 657 569 l 657 174 q 677 148 661 157 q 713 135 693 139 l 708 -7 q 664 -10 688 -8 q 619 -12 640 -12 q 585 -10 599 -11 q 523 8 549 -6 q 485 35 497 21 q 426 13 463 25 q 348 -8 390 0 q 261 -17 306 -17 m 314 138 q 362 143 338 138 q 408 156 386 149 q 444 168 431 163 l 444 306 l 322 294 q 265 270 283 290 q 247 214 247 250 q 264 158 247 179 q 314 138 281 138 m 435 818 l 435 990 l 601 990 l 601 818 l 435 818 m 149 818 l 149 990 l 317 990 l 317 818 l 149 818 z "},"à":{"ha":736,"x_min":35,"x_max":713,"o":"m 261 -17 q 91 39 147 -17 q 35 208 35 94 q 65 333 35 289 q 151 396 94 376 q 289 419 208 415 l 444 432 l 444 468 q 422 527 444 510 q 354 544 399 544 q 263 542 314 544 q 161 535 211 539 q 75 526 111 531 l 68 674 q 158 692 106 683 q 267 708 210 701 q 374 714 324 714 q 527 692 464 714 q 624 620 590 671 q 657 479 657 569 l 657 174 q 677 148 661 157 q 713 135 693 139 l 708 -7 q 664 -10 688 -8 q 619 -12 640 -12 q 585 -10 599 -11 q 523 8 549 -6 q 485 35 497 21 q 426 13 463 25 q 348 -8 390 0 q 261 -17 306 -17 m 314 138 q 362 143 338 138 q 408 156 386 149 q 444 168 431 163 l 444 306 l 322 294 q 265 270 283 290 q 247 214 247 250 q 264 158 247 179 q 314 138 281 138 m 438 796 l 147 892 l 275 1049 l 536 911 l 438 796 z "},"ā":{"ha":736,"x_min":35,"x_max":713,"o":"m 261 -17 q 91 39 147 -17 q 35 208 35 94 q 65 333 35 289 q 151 396 94 376 q 289 419 208 415 l 444 432 l 444 468 q 422 527 444 510 q 354 544 399 544 q 263 542 314 544 q 161 535 211 539 q 75 526 111 531 l 68 674 q 158 692 106 683 q 267 708 210 701 q 374 714 324 714 q 527 692 464 714 q 624 620 590 671 q 657 479 657 569 l 657 174 q 677 148 661 157 q 713 135 693 139 l 708 -7 q 664 -10 688 -8 q 619 -12 640 -12 q 585 -10 599 -11 q 523 8 549 -6 q 485 35 497 21 q 426 13 463 25 q 348 -8 390 0 q 261 -17 306 -17 m 314 138 q 362 143 338 138 q 408 156 386 149 q 444 168 431 163 l 444 306 l 322 294 q 265 270 283 290 q 247 214 247 250 q 264 158 247 179 q 314 138 281 138 m 156 822 l 156 967 l 575 967 l 575 822 l 156 822 z "},"ą":{"ha":736,"x_min":35,"x_max":713,"o":"m 261 -17 q 91 39 147 -17 q 35 208 35 94 q 65 333 35 289 q 151 396 94 376 q 289 419 208 415 l 444 432 l 444 468 q 422 527 444 510 q 354 544 399 544 q 263 542 314 544 q 161 535 211 539 q 75 526 111 531 l 68 674 q 158 692 106 683 q 267 708 210 701 q 374 714 324 714 q 527 692 464 714 q 624 620 590 671 q 657 479 657 569 l 657 174 q 677 148 661 157 q 713 135 693 139 l 708 -7 q 664 -10 688 -8 q 619 -12 640 -12 q 585 -10 599 -11 q 523 8 549 -6 q 485 35 497 21 q 426 13 463 25 q 348 -8 390 0 q 261 -17 306 -17 m 314 138 q 362 143 338 138 q 408 156 386 149 q 444 168 431 163 l 444 306 l 322 294 q 265 270 283 290 q 247 214 247 250 q 264 158 247 179 q 314 138 281 138 m 563 -297 q 472 -281 511 -297 q 410 -235 432 -265 q 388 -157 388 -204 q 410 -79 388 -115 q 466 -16 433 -43 q 531 28 499 11 l 689 11 q 640 -37 663 -11 q 602 -87 617 -62 q 588 -132 588 -112 q 599 -161 588 -150 q 632 -172 610 -172 q 665 -169 646 -172 q 697 -165 685 -167 l 713 -281 q 648 -291 689 -285 q 563 -297 607 -297 z "},"å":{"ha":736,"x_min":35,"x_max":713,"o":"m 261 -17 q 91 39 147 -17 q 35 208 35 94 q 65 333 35 289 q 151 396 94 376 q 289 419 208 415 l 444 432 l 444 468 q 422 527 444 510 q 354 544 399 544 q 263 542 314 544 q 161 535 211 539 q 75 526 111 531 l 68 674 q 158 692 106 683 q 267 708 210 701 q 374 714 324 714 q 527 692 464 714 q 624 620 590 671 q 657 479 657 569 l 657 174 q 677 148 661 157 q 713 135 693 139 l 708 -7 q 664 -10 688 -8 q 619 -12 640 -12 q 585 -10 599 -11 q 523 8 549 -6 q 485 35 497 21 q 426 13 463 25 q 348 -8 390 0 q 261 -17 306 -17 m 314 138 q 362 143 338 138 q 408 156 386 149 q 444 168 431 163 l 444 306 l 322 294 q 265 270 283 290 q 247 214 247 250 q 264 158 247 179 q 314 138 281 138 m 369 753 q 251 790 297 753 q 204 893 204 826 q 226 969 204 939 q 285 1017 247 1000 q 369 1035 322 1035 q 489 998 442 1035 q 536 893 536 961 q 490 791 536 829 q 369 753 444 753 m 371 840 q 401 847 388 840 q 422 866 414 854 q 429 893 429 878 q 412 931 429 917 q 371 946 394 946 q 342 939 356 946 q 319 920 328 932 q 311 893 311 908 q 329 855 311 869 q 371 840 347 840 z "},"ǻ":{"ha":736,"x_min":35,"x_max":713,"o":"m 261 -17 q 91 39 147 -17 q 35 208 35 94 q 65 333 35 289 q 151 396 94 376 q 289 419 208 415 l 444 432 l 444 468 q 422 527 444 510 q 354 544 399 544 q 263 542 314 544 q 161 535 211 539 q 75 526 111 531 l 68 674 q 158 692 106 683 q 267 708 210 701 q 374 714 324 714 q 527 692 464 714 q 624 620 590 671 q 657 479 657 569 l 657 174 q 677 148 661 157 q 713 135 693 139 l 708 -7 q 664 -10 688 -8 q 619 -12 640 -12 q 585 -10 599 -11 q 523 8 549 -6 q 485 35 497 21 q 426 13 463 25 q 348 -8 390 0 q 261 -17 306 -17 m 314 138 q 362 143 338 138 q 408 156 386 149 q 444 168 431 163 l 444 306 l 322 294 q 265 270 283 290 q 247 214 247 250 q 264 158 247 179 q 314 138 281 138 m 360 749 q 241 785 288 749 q 194 889 194 822 q 216 965 194 935 q 275 1013 238 996 q 360 1031 313 1031 q 479 994 432 1031 q 526 889 526 957 q 481 787 526 825 q 360 749 435 749 m 361 836 q 391 843 378 836 q 412 862 404 850 q 419 889 419 874 q 402 927 419 913 q 361 942 385 942 q 332 935 346 942 q 310 916 318 928 q 301 889 301 904 q 319 851 301 865 q 361 836 338 836 m 272 1061 l 175 1176 l 436 1314 l 564 1157 l 272 1061 z "},"ã":{"ha":736,"x_min":35,"x_max":713,"o":"m 261 -17 q 91 39 147 -17 q 35 208 35 94 q 65 333 35 289 q 151 396 94 376 q 289 419 208 415 l 444 432 l 444 468 q 422 527 444 510 q 354 544 399 544 q 263 542 314 544 q 161 535 211 539 q 75 526 111 531 l 68 674 q 158 692 106 683 q 267 708 210 701 q 374 714 324 714 q 527 692 464 714 q 624 620 590 671 q 657 479 657 569 l 657 174 q 677 148 661 157 q 713 135 693 139 l 708 -7 q 664 -10 688 -8 q 619 -12 640 -12 q 585 -10 599 -11 q 523 8 549 -6 q 485 35 497 21 q 426 13 463 25 q 348 -8 390 0 q 261 -17 306 -17 m 314 138 q 362 143 338 138 q 408 156 386 149 q 444 168 431 163 l 444 306 l 322 294 q 265 270 283 290 q 247 214 247 250 q 264 158 247 179 q 314 138 281 138 m 457 803 q 407 813 435 803 q 351 835 379 822 q 298 856 322 847 q 257 865 274 865 q 206 847 238 865 q 151 811 174 828 l 118 926 q 156 963 133 944 q 206 994 179 982 q 256 1007 232 1007 q 310 998 282 1007 q 366 977 339 989 q 416 956 393 965 q 454 946 439 946 q 504 964 472 946 q 560 1000 536 982 l 593 882 q 555 847 578 865 q 507 815 532 828 q 457 803 482 803 z "},"æ":{"ha":1118,"x_min":35,"x_max":1078,"o":"m 254 -17 q 92 40 150 -17 q 35 208 35 96 q 65 338 35 294 q 155 399 94 381 q 306 422 215 417 l 440 432 l 440 467 q 417 522 440 506 q 353 539 394 539 q 260 537 311 539 q 160 531 208 535 q 76 524 111 528 l 69 679 q 159 694 107 686 q 267 708 211 703 q 371 714 324 714 q 488 698 440 714 q 563 647 536 682 q 646 698 597 682 q 756 714 694 714 q 997 636 917 714 q 1078 390 1078 558 l 1068 281 l 640 281 q 668 182 640 214 q 763 150 696 150 q 859 152 806 150 q 965 157 913 154 q 1054 163 1017 160 l 1060 17 q 969 2 1024 10 q 856 -11 915 -6 q 744 -17 797 -17 q 624 -1 674 -17 q 543 44 575 15 q 453 14 501 28 q 356 -8 406 0 q 254 -17 306 -17 m 306 140 q 349 144 326 140 q 392 154 371 149 q 428 165 413 160 q 451 174 444 171 q 442 234 444 199 q 439 301 439 269 l 318 292 q 262 270 281 289 q 243 214 243 251 q 259 159 243 178 q 306 140 275 140 m 639 410 l 868 410 q 841 523 868 490 q 756 556 814 556 q 669 522 697 556 q 639 410 640 488 z "},"ǽ":{"ha":1118,"x_min":35,"x_max":1078,"o":"m 254 -17 q 92 40 150 -17 q 35 208 35 96 q 65 338 35 294 q 155 399 94 381 q 306 422 215 417 l 440 432 l 440 467 q 417 522 440 506 q 353 539 394 539 q 260 537 311 539 q 160 531 208 535 q 76 524 111 528 l 69 679 q 159 694 107 686 q 267 708 211 703 q 371 714 324 714 q 488 698 440 714 q 563 647 536 682 q 646 698 597 682 q 756 714 694 714 q 997 636 917 714 q 1078 390 1078 558 l 1068 281 l 640 281 q 668 182 640 214 q 763 150 696 150 q 859 152 806 150 q 965 157 913 154 q 1054 163 1017 160 l 1060 17 q 969 2 1024 10 q 856 -11 915 -6 q 744 -17 797 -17 q 624 -1 674 -17 q 543 44 575 15 q 453 14 501 28 q 356 -8 406 0 q 254 -17 306 -17 m 306 140 q 349 144 326 140 q 392 154 371 149 q 428 165 413 160 q 451 174 444 171 q 442 234 444 199 q 439 301 439 269 l 318 292 q 262 270 281 289 q 243 214 243 251 q 259 159 243 178 q 306 140 275 140 m 639 410 l 868 410 q 841 523 868 490 q 756 556 814 556 q 669 522 697 556 q 639 410 640 488 m 486 796 l 389 911 l 650 1049 l 778 892 l 486 796 z "},"b":{"ha":763,"x_min":67,"x_max":717,"o":"m 361 -17 q 272 -12 325 -17 q 165 -3 219 -8 q 67 8 110 3 l 67 976 l 279 976 l 279 679 q 330 695 300 688 q 392 708 360 703 q 451 714 424 714 q 608 673 550 714 q 692 553 667 632 q 717 361 717 475 q 685 138 717 221 q 575 19 653 56 q 361 -17 497 -17 m 364 160 q 451 183 422 160 q 491 250 481 206 q 501 357 501 294 q 492 463 501 424 q 458 520 482 503 q 394 538 435 538 q 354 534 376 538 q 313 525 332 531 q 279 514 293 519 l 279 165 q 322 162 297 164 q 364 160 347 160 z "},"c":{"ha":626,"x_min":46,"x_max":588,"o":"m 364 -17 q 171 20 240 -17 q 74 139 101 57 q 46 354 46 221 q 78 567 46 489 q 180 680 110 646 q 364 714 250 714 q 436 710 396 714 q 517 699 476 706 q 586 685 557 692 l 579 515 q 517 521 551 518 q 450 526 482 524 q 399 528 418 528 q 315 511 346 528 q 272 456 285 494 q 260 354 260 418 q 272 247 260 288 q 313 188 283 206 q 399 171 343 171 q 451 173 418 171 q 519 178 483 175 q 582 182 554 181 l 588 14 q 520 1 560 7 q 439 -11 481 -6 q 364 -17 397 -17 z "},"ć":{"ha":626,"x_min":46,"x_max":588,"o":"m 364 -17 q 171 20 240 -17 q 74 139 101 57 q 46 354 46 221 q 78 567 46 489 q 180 680 110 646 q 364 714 250 714 q 436 710 396 714 q 517 699 476 706 q 586 685 557 692 l 579 515 q 517 521 551 518 q 450 526 482 524 q 399 528 418 528 q 315 511 346 528 q 272 456 285 494 q 260 354 260 418 q 272 247 260 288 q 313 188 283 206 q 399 171 343 171 q 451 173 418 171 q 519 178 483 175 q 582 182 554 181 l 588 14 q 520 1 560 7 q 439 -11 481 -6 q 364 -17 397 -17 m 254 796 l 157 911 l 418 1049 l 546 892 l 254 796 z "},"č":{"ha":626,"x_min":46,"x_max":588,"o":"m 364 -17 q 171 20 240 -17 q 74 139 101 57 q 46 354 46 221 q 78 567 46 489 q 180 680 110 646 q 364 714 250 714 q 436 710 396 714 q 517 699 476 706 q 586 685 557 692 l 579 515 q 517 521 551 518 q 450 526 482 524 q 399 528 418 528 q 315 511 346 528 q 272 456 285 494 q 260 354 260 418 q 272 247 260 288 q 313 188 283 206 q 399 171 343 171 q 451 173 418 171 q 519 178 483 175 q 582 182 554 181 l 588 14 q 520 1 560 7 q 439 -11 481 -6 q 364 -17 397 -17 m 250 797 l 101 1010 l 269 1010 l 329 901 l 388 1010 l 554 1010 l 397 797 l 250 797 z "},"ç":{"ha":626,"x_min":46,"x_max":588,"o":"m 364 -17 q 171 20 240 -17 q 74 139 101 57 q 46 354 46 221 q 78 567 46 489 q 180 680 110 646 q 364 714 250 714 q 436 710 396 714 q 517 699 476 706 q 586 685 557 692 l 579 515 q 517 521 551 518 q 450 526 482 524 q 399 528 418 528 q 315 511 346 528 q 272 456 285 494 q 260 354 260 418 q 272 247 260 288 q 313 188 283 206 q 399 171 343 171 q 451 173 418 171 q 519 178 483 175 q 582 182 554 181 l 588 14 q 520 1 560 7 q 439 -11 481 -6 q 364 -17 397 -17 m 389 -312 q 306 -308 347 -312 q 240 -300 264 -304 l 244 -211 q 279 -212 253 -211 q 322 -212 306 -212 q 367 -203 354 -212 q 379 -172 379 -193 q 366 -143 379 -150 q 322 -136 353 -136 l 289 -136 l 289 8 l 369 8 l 369 -56 q 468 -65 429 -56 q 525 -100 507 -75 q 543 -174 543 -125 q 503 -280 543 -247 q 389 -312 463 -312 z "},"ĉ":{"ha":626,"x_min":46,"x_max":588,"o":"m 364 -17 q 171 20 240 -17 q 74 139 101 57 q 46 354 46 221 q 78 567 46 489 q 180 680 110 646 q 364 714 250 714 q 436 710 396 714 q 517 699 476 706 q 586 685 557 692 l 579 515 q 517 521 551 518 q 450 526 482 524 q 399 528 418 528 q 315 511 346 528 q 272 456 285 494 q 260 354 260 418 q 272 247 260 288 q 313 188 283 206 q 399 171 343 171 q 451 173 418 171 q 519 178 483 175 q 582 182 554 181 l 588 14 q 520 1 560 7 q 439 -11 481 -6 q 364 -17 397 -17 m 96 797 l 244 1010 l 392 1010 l 550 797 l 382 797 l 322 906 l 265 797 l 96 797 z "},"ċ":{"ha":626,"x_min":46,"x_max":588,"o":"m 364 -17 q 171 20 240 -17 q 74 139 101 57 q 46 354 46 221 q 78 567 46 489 q 180 680 110 646 q 364 714 250 714 q 436 710 396 714 q 517 699 476 706 q 586 685 557 692 l 579 515 q 517 521 551 518 q 450 526 482 524 q 399 528 418 528 q 315 511 346 528 q 272 456 285 494 q 260 354 260 418 q 272 247 260 288 q 313 188 283 206 q 399 171 343 171 q 451 173 418 171 q 519 178 483 175 q 582 182 554 181 l 588 14 q 520 1 560 7 q 439 -11 481 -6 q 364 -17 397 -17 m 250 811 l 250 981 l 435 981 l 435 811 l 250 811 z "},"d":{"ha":765,"x_min":44,"x_max":696,"o":"m 308 -17 q 213 -3 256 -17 q 138 37 169 10 q 86 106 107 64 q 55 208 65 149 q 44 346 44 268 q 74 546 44 464 q 170 671 104 628 q 344 714 236 714 q 390 712 364 714 q 441 707 415 710 q 483 701 467 704 l 483 976 l 696 976 l 696 0 l 486 0 l 485 38 q 435 14 465 26 q 373 -8 406 1 q 308 -17 340 -17 m 367 160 q 410 165 388 160 q 451 176 432 169 q 483 186 471 182 l 483 529 q 454 534 472 532 q 417 538 436 536 q 382 539 397 539 q 307 515 333 539 q 270 449 281 492 q 260 346 260 407 q 267 258 260 293 q 288 201 274 222 q 322 169 301 179 q 367 160 342 160 z "},"ð":{"ha":749,"x_min":33,"x_max":701,"o":"m 356 -12 q 117 65 200 -12 q 33 300 33 142 q 65 460 33 392 q 165 567 97 529 q 333 606 232 606 q 399 601 363 606 q 470 589 436 597 q 526 568 504 581 q 499 669 521 624 q 429 753 476 715 q 301 822 382 790 q 97 876 221 853 l 121 994 q 438 919 308 975 q 634 758 567 863 q 701 483 701 653 q 666 204 701 314 q 554 41 631 94 q 356 -12 478 -12 m 356 136 q 449 164 411 136 q 506 255 486 192 q 525 424 525 318 q 468 442 497 435 q 408 454 439 450 q 343 458 378 458 q 267 435 297 458 q 224 377 238 413 q 210 300 210 342 q 244 181 210 225 q 356 136 278 136 m 208 667 l 140 763 l 535 1025 l 603 929 l 208 667 z "},"ď":{"ha":925,"x_min":44,"x_max":1004,"o":"m 765 644 l 807 939 l 1004 939 l 926 644 l 765 644 m 308 -17 q 213 -3 256 -17 q 138 37 169 10 q 86 106 107 64 q 55 208 65 149 q 44 346 44 268 q 74 546 44 464 q 170 671 104 628 q 344 714 236 714 q 390 712 364 714 q 441 707 415 710 q 483 701 467 704 l 483 976 l 696 976 l 696 0 l 486 0 l 485 38 q 435 14 465 26 q 373 -8 406 1 q 308 -17 340 -17 m 367 160 q 410 165 388 160 q 451 176 432 169 q 483 186 471 182 l 483 529 q 454 534 472 532 q 417 538 436 536 q 382 539 397 539 q 307 515 333 539 q 270 449 281 492 q 260 346 260 407 q 267 258 260 293 q 288 201 274 222 q 322 169 301 179 q 367 160 342 160 z "},"đ":{"ha":765,"x_min":44,"x_max":738,"o":"m 308 808 l 308 931 l 738 931 l 738 808 l 308 808 m 308 -17 q 213 -3 256 -17 q 138 37 169 10 q 86 106 107 64 q 55 208 65 149 q 44 346 44 268 q 74 546 44 464 q 170 671 104 628 q 344 714 236 714 q 390 712 364 714 q 441 707 415 710 q 483 701 467 704 l 483 976 l 696 976 l 696 0 l 486 0 l 485 38 q 435 14 465 26 q 373 -8 406 1 q 308 -17 340 -17 m 367 160 q 410 165 388 160 q 451 176 432 169 q 483 186 471 182 l 483 529 q 454 534 472 532 q 417 538 436 536 q 382 539 397 539 q 307 515 333 539 q 270 449 281 492 q 260 346 260 407 q 267 258 260 293 q 288 201 274 222 q 322 169 301 179 q 367 160 342 160 z "},"e":{"ha":735,"x_min":44,"x_max":696,"o":"m 363 -17 q 174 22 244 -17 q 74 140 104 61 q 44 340 44 219 q 81 549 44 467 q 190 673 118 632 q 372 714 263 714 q 615 636 533 714 q 696 390 696 558 l 685 281 l 257 281 q 285 181 258 214 q 379 149 313 149 q 476 151 422 149 q 582 156 529 153 q 672 161 635 158 l 676 17 q 586 2 640 10 q 474 -11 532 -6 q 363 -17 415 -17 m 256 410 l 483 410 q 457 526 483 493 q 372 558 431 558 q 308 544 333 558 q 269 497 282 529 q 256 410 257 464 z "},"é":{"ha":735,"x_min":44,"x_max":696,"o":"m 363 -17 q 174 22 244 -17 q 74 140 104 61 q 44 340 44 219 q 81 549 44 467 q 190 673 118 632 q 372 714 263 714 q 615 636 533 714 q 696 390 696 558 l 685 281 l 257 281 q 285 181 258 214 q 379 149 313 149 q 476 151 422 149 q 582 156 529 153 q 672 161 635 158 l 676 17 q 586 2 640 10 q 474 -11 532 -6 q 363 -17 415 -17 m 256 410 l 483 410 q 457 526 483 493 q 372 558 431 558 q 308 544 333 558 q 269 497 282 529 q 256 410 257 464 m 307 796 l 210 911 l 471 1049 l 599 892 l 307 796 z "},"ĕ":{"ha":735,"x_min":44,"x_max":696,"o":"m 363 -17 q 174 22 244 -17 q 74 140 104 61 q 44 340 44 219 q 81 549 44 467 q 190 673 118 632 q 372 714 263 714 q 615 636 533 714 q 696 390 696 558 l 685 281 l 257 281 q 285 181 258 214 q 379 149 313 149 q 476 151 422 149 q 582 156 529 153 q 672 161 635 158 l 676 17 q 586 2 640 10 q 474 -11 532 -6 q 363 -17 415 -17 m 256 410 l 483 410 q 457 526 483 493 q 372 558 431 558 q 308 544 333 558 q 269 497 282 529 q 256 410 257 464 m 371 786 q 247 816 294 786 q 178 894 200 846 q 156 996 157 942 l 282 1003 q 307 939 285 964 q 371 914 329 914 q 436 940 414 914 q 460 1003 458 965 l 586 996 q 572 917 585 954 q 535 850 560 879 q 469 803 510 821 q 371 786 429 786 z "},"ě":{"ha":735,"x_min":44,"x_max":696,"o":"m 363 -17 q 174 22 244 -17 q 74 140 104 61 q 44 340 44 219 q 81 549 44 467 q 190 673 118 632 q 372 714 263 714 q 615 636 533 714 q 696 390 696 558 l 685 281 l 257 281 q 285 181 258 214 q 379 149 313 149 q 476 151 422 149 q 582 156 529 153 q 672 161 635 158 l 676 17 q 586 2 640 10 q 474 -11 532 -6 q 363 -17 415 -17 m 256 410 l 483 410 q 457 526 483 493 q 372 558 431 558 q 308 544 333 558 q 269 497 282 529 q 256 410 257 464 m 290 797 l 142 1010 l 310 1010 l 369 901 l 428 1010 l 594 1010 l 438 797 l 290 797 z "},"ê":{"ha":735,"x_min":44,"x_max":696,"o":"m 363 -17 q 174 22 244 -17 q 74 140 104 61 q 44 340 44 219 q 81 549 44 467 q 190 673 118 632 q 372 714 263 714 q 615 636 533 714 q 696 390 696 558 l 685 281 l 257 281 q 285 181 258 214 q 379 149 313 149 q 476 151 422 149 q 582 156 529 153 q 672 161 635 158 l 676 17 q 586 2 640 10 q 474 -11 532 -6 q 363 -17 415 -17 m 256 410 l 483 410 q 457 526 483 493 q 372 558 431 558 q 308 544 333 558 q 269 497 282 529 q 256 410 257 464 m 146 797 l 294 1010 l 442 1010 l 600 797 l 432 797 l 372 906 l 315 797 l 146 797 z "},"ë":{"ha":735,"x_min":44,"x_max":696,"o":"m 363 -17 q 174 22 244 -17 q 74 140 104 61 q 44 340 44 219 q 81 549 44 467 q 190 673 118 632 q 372 714 263 714 q 615 636 533 714 q 696 390 696 558 l 685 281 l 257 281 q 285 181 258 214 q 379 149 313 149 q 476 151 422 149 q 582 156 529 153 q 672 161 635 158 l 676 17 q 586 2 640 10 q 474 -11 532 -6 q 363 -17 415 -17 m 256 410 l 483 410 q 457 526 483 493 q 372 558 431 558 q 308 544 333 558 q 269 497 282 529 q 256 410 257 464 m 444 818 l 444 990 l 611 990 l 611 818 l 444 818 m 158 818 l 158 990 l 326 990 l 326 818 l 158 818 z "},"ė":{"ha":735,"x_min":44,"x_max":696,"o":"m 363 -17 q 174 22 244 -17 q 74 140 104 61 q 44 340 44 219 q 81 549 44 467 q 190 673 118 632 q 372 714 263 714 q 615 636 533 714 q 696 390 696 558 l 685 281 l 257 281 q 285 181 258 214 q 379 149 313 149 q 476 151 422 149 q 582 156 529 153 q 672 161 635 158 l 676 17 q 586 2 640 10 q 474 -11 532 -6 q 363 -17 415 -17 m 256 410 l 483 410 q 457 526 483 493 q 372 558 431 558 q 308 544 333 558 q 269 497 282 529 q 256 410 257 464 m 279 811 l 279 981 l 464 981 l 464 811 l 279 811 z "},"è":{"ha":735,"x_min":44,"x_max":696,"o":"m 363 -17 q 174 22 244 -17 q 74 140 104 61 q 44 340 44 219 q 81 549 44 467 q 190 673 118 632 q 372 714 263 714 q 615 636 533 714 q 696 390 696 558 l 685 281 l 257 281 q 285 181 258 214 q 379 149 313 149 q 476 151 422 149 q 582 156 529 153 q 672 161 635 158 l 676 17 q 586 2 640 10 q 474 -11 532 -6 q 363 -17 415 -17 m 256 410 l 483 410 q 457 526 483 493 q 372 558 431 558 q 308 544 333 558 q 269 497 282 529 q 256 410 257 464 m 424 796 l 133 892 l 261 1049 l 522 911 l 424 796 z "},"ē":{"ha":735,"x_min":44,"x_max":696,"o":"m 363 -17 q 174 22 244 -17 q 74 140 104 61 q 44 340 44 219 q 81 549 44 467 q 190 673 118 632 q 372 714 263 714 q 615 636 533 714 q 696 390 696 558 l 685 281 l 257 281 q 285 181 258 214 q 379 149 313 149 q 476 151 422 149 q 582 156 529 153 q 672 161 635 158 l 676 17 q 586 2 640 10 q 474 -11 532 -6 q 363 -17 415 -17 m 256 410 l 483 410 q 457 526 483 493 q 372 558 431 558 q 308 544 333 558 q 269 497 282 529 q 256 410 257 464 m 163 822 l 163 967 l 582 967 l 582 822 l 163 822 z "},"ę":{"ha":735,"x_min":44,"x_max":696,"o":"m 363 -17 q 174 22 244 -17 q 74 140 104 61 q 44 340 44 219 q 81 549 44 467 q 190 673 118 632 q 372 714 263 714 q 615 636 533 714 q 696 390 696 558 l 685 281 l 257 281 q 285 181 258 214 q 379 149 313 149 q 476 151 422 149 q 582 156 529 153 q 672 161 635 158 l 676 17 q 586 2 640 10 q 474 -11 532 -6 q 363 -17 415 -17 m 256 410 l 483 410 q 457 526 483 493 q 372 558 431 558 q 308 544 333 558 q 269 497 282 529 q 256 410 257 464 m 529 -296 q 438 -280 478 -296 q 376 -233 399 -264 q 354 -156 354 -203 q 377 -78 354 -114 q 433 -15 400 -42 q 497 29 465 13 l 656 13 q 606 -35 629 -10 q 569 -86 583 -61 q 554 -131 554 -111 q 565 -160 554 -149 q 599 -171 576 -171 q 632 -168 613 -171 q 664 -164 651 -165 l 679 -279 q 615 -290 656 -283 q 529 -296 574 -296 z "},"f":{"ha":479,"x_min":33,"x_max":474,"o":"m 94 0 l 94 524 l 33 524 l 33 699 l 94 699 l 94 731 q 114 887 94 829 q 181 969 133 944 q 308 993 228 993 q 367 991 335 993 q 428 985 399 989 q 474 979 457 982 l 472 819 q 426 820 451 819 q 385 821 401 821 q 338 813 356 821 q 314 786 321 804 q 307 735 307 768 l 307 699 l 461 699 l 461 524 l 307 524 l 307 0 l 94 0 z "},"g":{"ha":749,"x_min":42,"x_max":729,"o":"m 388 -315 q 199 -299 276 -315 q 81 -240 121 -283 q 42 -115 42 -197 q 51 -51 42 -79 q 83 2 61 -24 q 140 54 106 28 q 108 97 121 69 q 96 156 96 124 q 106 185 96 167 q 132 224 117 204 q 161 260 147 244 q 108 298 133 274 q 67 364 83 322 q 50 469 50 406 q 84 613 50 560 q 185 690 118 667 q 353 714 253 714 q 430 709 388 714 q 497 697 472 704 l 729 703 l 729 564 l 632 565 q 653 526 644 550 q 661 469 661 503 q 628 319 661 372 q 528 247 594 267 q 357 226 461 226 q 328 228 346 226 q 297 232 310 231 q 288 206 293 221 q 282 185 282 192 q 289 165 282 172 q 314 154 296 158 q 366 149 332 150 q 457 147 400 147 q 614 128 556 147 q 697 63 672 110 q 722 -67 722 17 q 633 -253 722 -192 q 388 -315 544 -315 m 375 -161 q 490 -144 456 -161 q 525 -89 525 -128 q 513 -45 525 -60 q 472 -26 500 -31 q 394 -22 443 -22 q 361 -22 381 -22 q 324 -20 342 -21 q 290 -19 306 -19 q 268 -17 275 -18 q 242 -39 251 -28 q 228 -62 232 -50 q 224 -90 224 -74 q 238 -132 224 -117 q 286 -154 253 -147 q 375 -161 319 -161 m 354 372 q 434 395 410 372 q 458 471 458 418 q 434 547 458 524 q 354 569 410 569 q 276 547 300 569 q 253 471 253 524 q 276 395 253 418 q 354 372 300 372 z "},"ğ":{"ha":749,"x_min":42,"x_max":729,"o":"m 388 -315 q 199 -299 276 -315 q 81 -240 121 -283 q 42 -115 42 -197 q 51 -51 42 -79 q 83 2 61 -24 q 140 54 106 28 q 108 97 121 69 q 96 156 96 124 q 106 185 96 167 q 132 224 117 204 q 161 260 147 244 q 108 298 133 274 q 67 364 83 322 q 50 469 50 406 q 84 613 50 560 q 185 690 118 667 q 353 714 253 714 q 430 709 388 714 q 497 697 472 704 l 729 703 l 729 564 l 632 565 q 653 526 644 550 q 661 469 661 503 q 628 319 661 372 q 528 247 594 267 q 357 226 461 226 q 328 228 346 226 q 297 232 310 231 q 288 206 293 221 q 282 185 282 192 q 289 165 282 172 q 314 154 296 158 q 366 149 332 150 q 457 147 400 147 q 614 128 556 147 q 697 63 672 110 q 722 -67 722 17 q 633 -253 722 -192 q 388 -315 544 -315 m 375 -161 q 490 -144 456 -161 q 525 -89 525 -128 q 513 -45 525 -60 q 472 -26 500 -31 q 394 -22 443 -22 q 361 -22 381 -22 q 324 -20 342 -21 q 290 -19 306 -19 q 268 -17 275 -18 q 242 -39 251 -28 q 228 -62 232 -50 q 224 -90 224 -74 q 238 -132 224 -117 q 286 -154 253 -147 q 375 -161 319 -161 m 354 372 q 434 395 410 372 q 458 471 458 418 q 434 547 458 524 q 354 569 410 569 q 276 547 300 569 q 253 471 253 524 q 276 395 253 418 q 354 372 300 372 m 379 786 q 256 816 303 786 q 187 894 208 846 q 164 996 165 942 l 290 1003 q 315 939 293 964 q 379 914 338 914 q 444 940 422 914 q 468 1003 467 965 l 594 996 q 581 917 593 954 q 543 850 568 879 q 478 803 518 821 q 379 786 438 786 z "},"ĝ":{"ha":749,"x_min":42,"x_max":729,"o":"m 388 -315 q 199 -299 276 -315 q 81 -240 121 -283 q 42 -115 42 -197 q 51 -51 42 -79 q 83 2 61 -24 q 140 54 106 28 q 108 97 121 69 q 96 156 96 124 q 106 185 96 167 q 132 224 117 204 q 161 260 147 244 q 108 298 133 274 q 67 364 83 322 q 50 469 50 406 q 84 613 50 560 q 185 690 118 667 q 353 714 253 714 q 430 709 388 714 q 497 697 472 704 l 729 703 l 729 564 l 632 565 q 653 526 644 550 q 661 469 661 503 q 628 319 661 372 q 528 247 594 267 q 357 226 461 226 q 328 228 346 226 q 297 232 310 231 q 288 206 293 221 q 282 185 282 192 q 289 165 282 172 q 314 154 296 158 q 366 149 332 150 q 457 147 400 147 q 614 128 556 147 q 697 63 672 110 q 722 -67 722 17 q 633 -253 722 -192 q 388 -315 544 -315 m 375 -161 q 490 -144 456 -161 q 525 -89 525 -128 q 513 -45 525 -60 q 472 -26 500 -31 q 394 -22 443 -22 q 361 -22 381 -22 q 324 -20 342 -21 q 290 -19 306 -19 q 268 -17 275 -18 q 242 -39 251 -28 q 228 -62 232 -50 q 224 -90 224 -74 q 238 -132 224 -117 q 286 -154 253 -147 q 375 -161 319 -161 m 354 372 q 434 395 410 372 q 458 471 458 418 q 434 547 458 524 q 354 569 410 569 q 276 547 300 569 q 253 471 253 524 q 276 395 253 418 q 354 372 300 372 m 153 797 l 301 1010 l 449 1010 l 607 797 l 439 797 l 379 906 l 322 797 l 153 797 z "},"ģ":{"ha":749,"x_min":42,"x_max":729,"o":"m 247 800 l 325 1093 l 488 1093 l 444 800 l 247 800 m 388 -315 q 199 -299 276 -315 q 81 -240 121 -283 q 42 -115 42 -197 q 51 -51 42 -79 q 83 2 61 -24 q 140 54 106 28 q 108 97 121 69 q 96 156 96 124 q 106 185 96 167 q 132 224 117 204 q 161 260 147 244 q 108 298 133 274 q 67 364 83 322 q 50 469 50 406 q 84 613 50 560 q 185 690 118 667 q 353 714 253 714 q 430 709 388 714 q 497 697 472 704 l 729 703 l 729 564 l 632 565 q 653 526 644 550 q 661 469 661 503 q 628 319 661 372 q 528 247 594 267 q 357 226 461 226 q 328 228 346 226 q 297 232 310 231 q 288 206 293 221 q 282 185 282 192 q 289 165 282 172 q 314 154 296 158 q 366 149 332 150 q 457 147 400 147 q 614 128 556 147 q 697 63 672 110 q 722 -67 722 17 q 633 -253 722 -192 q 388 -315 544 -315 m 375 -161 q 490 -144 456 -161 q 525 -89 525 -128 q 513 -45 525 -60 q 472 -26 500 -31 q 394 -22 443 -22 q 361 -22 381 -22 q 324 -20 342 -21 q 290 -19 306 -19 q 268 -17 275 -18 q 242 -39 251 -28 q 228 -62 232 -50 q 224 -90 224 -74 q 238 -132 224 -117 q 286 -154 253 -147 q 375 -161 319 -161 m 354 372 q 434 395 410 372 q 458 471 458 418 q 434 547 458 524 q 354 569 410 569 q 276 547 300 569 q 253 471 253 524 q 276 395 253 418 q 354 372 300 372 z "},"ġ":{"ha":749,"x_min":42,"x_max":729,"o":"m 388 -315 q 199 -299 276 -315 q 81 -240 121 -283 q 42 -115 42 -197 q 51 -51 42 -79 q 83 2 61 -24 q 140 54 106 28 q 108 97 121 69 q 96 156 96 124 q 106 185 96 167 q 132 224 117 204 q 161 260 147 244 q 108 298 133 274 q 67 364 83 322 q 50 469 50 406 q 84 613 50 560 q 185 690 118 667 q 353 714 253 714 q 430 709 388 714 q 497 697 472 704 l 729 703 l 729 564 l 632 565 q 653 526 644 550 q 661 469 661 503 q 628 319 661 372 q 528 247 594 267 q 357 226 461 226 q 328 228 346 226 q 297 232 310 231 q 288 206 293 221 q 282 185 282 192 q 289 165 282 172 q 314 154 296 158 q 366 149 332 150 q 457 147 400 147 q 614 128 556 147 q 697 63 672 110 q 722 -67 722 17 q 633 -253 722 -192 q 388 -315 544 -315 m 375 -161 q 490 -144 456 -161 q 525 -89 525 -128 q 513 -45 525 -60 q 472 -26 500 -31 q 394 -22 443 -22 q 361 -22 381 -22 q 324 -20 342 -21 q 290 -19 306 -19 q 268 -17 275 -18 q 242 -39 251 -28 q 228 -62 232 -50 q 224 -90 224 -74 q 238 -132 224 -117 q 286 -154 253 -147 q 375 -161 319 -161 m 354 372 q 434 395 410 372 q 458 471 458 418 q 434 547 458 524 q 354 569 410 569 q 276 547 300 569 q 253 471 253 524 q 276 395 253 418 q 354 372 300 372 m 285 811 l 285 981 l 469 981 l 469 811 l 285 811 z "},"h":{"ha":776,"x_min":68,"x_max":714,"o":"m 68 0 l 68 976 l 281 976 l 281 676 q 335 693 303 685 q 400 708 367 701 q 460 714 433 714 q 583 695 533 714 q 661 635 632 676 q 702 528 690 594 q 714 365 714 461 l 714 0 l 501 0 l 501 347 q 494 453 501 413 q 465 511 486 493 q 404 529 444 529 q 359 526 382 529 q 315 517 336 522 q 281 506 294 511 l 281 0 l 68 0 z "},"ħ":{"ha":776,"x_min":-1,"x_max":714,"o":"m -1 779 l -1 901 l 428 901 l 428 779 l -1 779 m 68 0 l 68 976 l 281 976 l 281 676 q 335 693 303 685 q 400 708 367 701 q 460 714 433 714 q 583 695 533 714 q 661 635 632 676 q 702 528 690 594 q 714 365 714 461 l 714 0 l 501 0 l 501 347 q 494 453 501 413 q 465 511 486 493 q 404 529 444 529 q 359 526 382 529 q 315 517 336 522 q 281 506 294 511 l 281 0 l 68 0 z "},"ĥ":{"ha":776,"x_min":68,"x_max":714,"o":"m 68 0 l 68 976 l 281 976 l 281 676 q 335 693 303 685 q 400 708 367 701 q 460 714 433 714 q 583 695 533 714 q 661 635 632 676 q 702 528 690 594 q 714 365 714 461 l 714 0 l 501 0 l 501 347 q 494 453 501 413 q 465 511 486 493 q 404 529 444 529 q 359 526 382 529 q 315 517 336 522 q 281 506 294 511 l 281 0 l 68 0 m 161 1051 l 310 1264 l 457 1264 l 615 1051 l 447 1051 l 388 1160 l 331 1051 l 161 1051 z "},"i":{"ha":349,"x_min":68,"x_max":281,"o":"m 68 0 l 68 699 l 281 699 l 281 0 l 68 0 m 68 796 l 68 965 l 281 965 l 281 796 l 68 796 z "},"ı":{"ha":422,"x_min":106,"x_max":317,"o":"m 106 0 l 106 699 l 317 699 l 317 0 l 106 0 z "},"í":{"ha":422,"x_min":28,"x_max":415,"o":"m 106 0 l 106 699 l 317 699 l 317 0 l 106 0 m 125 796 l 28 911 l 289 1049 l 417 892 l 125 796 z "},"ĭ":{"ha":349,"x_min":-42,"x_max":388,"o":"m 106 0 l 106 699 l 317 699 l 317 0 l 106 0 m 172 786 q 49 816 96 786 q -20 894 1 846 q -43 996 -42 942 l 83 1003 q 108 939 86 964 q 172 914 131 914 q 238 940 215 914 q 261 1003 260 965 l 388 996 q 374 917 386 954 q 336 850 361 879 q 271 803 311 821 q 172 786 231 786 z "},"î":{"ha":349,"x_min":-53,"x_max":400,"o":"m 106 0 l 106 699 l 317 699 l 317 0 l 106 0 m -54 797 l 94 1010 l 242 1010 l 400 797 l 232 797 l 172 906 l 115 797 l -54 797 z "},"ï":{"ha":349,"x_min":-40,"x_max":413,"o":"m 106 0 l 106 699 l 317 699 l 317 0 l 106 0 m 246 818 l 246 990 l 413 990 l 413 818 l 246 818 m -40 818 l -40 990 l 128 990 l 128 818 l -40 818 z "},"ì":{"ha":349,"x_min":-35,"x_max":354,"o":"m 106 0 l 106 699 l 317 699 l 317 0 l 106 0 m 256 796 l -35 892 l 93 1049 l 354 911 l 256 796 z "},"ī":{"ha":349,"x_min":-37,"x_max":382,"o":"m 106 0 l 106 699 l 317 699 l 317 0 l 106 0 m -37 822 l -37 967 l 382 967 l 382 822 l -37 822 z "},"į":{"ha":349,"x_min":-19,"x_max":304,"o":"m 154 -299 q 63 -283 103 -299 q 1 -236 24 -267 q -21 -158 -21 -206 q 2 -81 -21 -117 q 58 -17 25 -44 q 122 26 90 10 l 281 10 q 231 -38 254 -12 q 194 -89 208 -64 q 179 -133 179 -114 q 190 -162 179 -151 q 224 -174 201 -174 q 257 -171 238 -174 q 289 -167 276 -168 l 304 -282 q 240 -292 281 -286 q 154 -299 199 -299 m 68 0 l 68 699 l 281 699 l 281 0 l 68 0 m 68 796 l 68 965 l 281 965 l 281 796 l 68 796 z "},"ĩ":{"ha":349,"x_min":-61,"x_max":414,"o":"m 106 0 l 106 699 l 317 699 l 317 0 l 106 0 m 278 803 q 228 813 256 803 q 172 835 200 822 q 119 856 143 847 q 78 865 94 865 q 26 847 58 865 q -28 811 -6 828 l -61 926 q -23 963 -46 944 q 26 994 0 982 q 76 1007 53 1007 q 131 998 103 1007 q 187 977 160 989 q 237 956 214 965 q 275 946 260 946 q 325 964 293 946 q 381 1000 357 982 l 414 882 q 376 847 399 865 q 328 815 353 828 q 278 803 303 803 z "},"j":{"ha":349,"x_min":-76,"x_max":282,"o":"m -4 -307 l -76 -146 q 0 -102 -29 -121 q 44 -63 29 -83 q 63 -15 58 -43 q 68 57 68 13 l 68 699 l 281 699 l 281 61 q 269 -80 281 -24 q 226 -175 257 -136 q 139 -244 194 -214 q -4 -307 83 -274 m 68 796 l 68 965 l 282 965 l 282 796 l 68 796 z "},"ȷ":{"ha":349,"x_min":-76,"x_max":281,"o":"m -4 -307 l -76 -146 q 18 -88 -12 -112 q 58 -32 49 -64 q 68 57 68 0 l 68 699 l 281 699 l 281 61 q 269 -80 281 -24 q 226 -175 257 -136 q 139 -244 194 -214 q -4 -307 83 -274 z "},"ĵ":{"ha":349,"x_min":-76,"x_max":400,"o":"m -4 -307 l -76 -146 q 18 -88 -12 -112 q 58 -32 49 -64 q 68 57 68 0 l 68 699 l 281 699 l 281 61 q 269 -80 281 -24 q 226 -175 257 -136 q 139 -244 194 -214 q -4 -307 83 -274 m -53 797 l 96 1010 l 243 1010 l 401 797 l 233 797 l 174 906 l 117 797 l -53 797 z "},"k":{"ha":719,"x_min":68,"x_max":707,"o":"m 68 0 l 68 976 l 281 976 l 281 444 l 353 446 l 479 699 l 697 699 l 538 368 l 707 0 l 488 0 l 356 261 l 281 258 l 281 0 l 68 0 z "},"ķ":{"ha":719,"x_min":68,"x_max":707,"o":"m 190 -379 l 232 -85 l 431 -85 l 351 -379 l 190 -379 m 68 0 l 68 976 l 281 976 l 281 444 l 353 446 l 479 699 l 697 699 l 538 368 l 707 0 l 488 0 l 356 261 l 281 258 l 281 0 l 68 0 z "},"l":{"ha":357,"x_min":72,"x_max":285,"o":"m 72 0 l 72 976 l 285 976 l 285 0 l 72 0 z "},"ĺ":{"ha":357,"x_min":-53,"x_max":336,"o":"m 72 0 l 72 976 l 285 976 l 285 0 l 72 0 m 44 1065 l -53 1181 l 208 1318 l 336 1161 l 44 1065 z "},"ľ":{"ha":514,"x_min":72,"x_max":594,"o":"m 354 644 l 397 939 l 594 939 l 517 644 l 354 644 m 72 0 l 72 976 l 285 976 l 285 0 l 72 0 z "},"ļ":{"ha":324,"x_min":13,"x_max":285,"o":"m 72 0 l 72 976 l 285 976 l 285 0 l 72 0 m 13 -469 l 57 -118 l 281 -118 l 190 -469 l 13 -469 z "},"ł":{"ha":432,"x_min":8,"x_max":422,"o":"m 35 249 l 8 418 l 396 647 l 422 476 l 35 249 m 107 0 l 107 976 l 318 976 l 318 0 l 107 0 z "},"m":{"ha":1179,"x_min":68,"x_max":1117,"o":"m 68 0 l 68 699 l 279 699 l 279 656 q 331 683 300 669 q 398 705 363 696 q 465 714 433 714 q 567 697 528 714 q 632 647 607 679 q 694 678 657 663 q 774 703 731 693 q 858 714 817 714 q 987 694 936 714 q 1066 630 1038 674 q 1106 519 1094 586 q 1117 361 1117 453 l 1117 0 l 906 0 l 906 340 q 899 447 906 406 q 871 509 892 489 q 811 529 850 529 q 765 525 789 529 q 722 514 742 521 q 688 500 701 507 q 699 431 696 475 q 701 342 701 388 l 701 0 l 489 0 l 489 338 q 482 447 489 406 q 455 509 475 489 q 396 529 435 529 q 351 525 374 529 q 311 514 329 521 q 281 501 293 507 l 281 0 l 68 0 z "},"n":{"ha":776,"x_min":68,"x_max":715,"o":"m 68 0 l 68 699 l 279 699 l 279 656 q 332 683 301 669 q 397 705 363 696 q 461 714 431 714 q 583 695 535 714 q 661 635 632 676 q 703 525 690 593 q 715 360 715 457 l 715 0 l 503 0 l 503 347 q 494 453 503 413 q 465 511 486 493 q 406 529 444 529 q 360 525 383 529 q 315 514 336 521 q 281 500 294 507 l 281 0 l 68 0 z "},"ń":{"ha":776,"x_min":68,"x_max":715,"o":"m 68 0 l 68 699 l 279 699 l 279 656 q 332 683 301 669 q 397 705 363 696 q 461 714 431 714 q 583 695 535 714 q 661 635 632 676 q 703 525 690 593 q 715 360 715 457 l 715 0 l 503 0 l 503 347 q 494 453 503 413 q 465 511 486 493 q 406 529 444 529 q 360 525 383 529 q 315 514 336 521 q 281 500 294 507 l 281 0 l 68 0 m 279 796 l 182 911 l 443 1049 l 571 892 l 279 796 z "},"ň":{"ha":776,"x_min":68,"x_max":715,"o":"m 68 0 l 68 699 l 279 699 l 279 656 q 332 683 301 669 q 397 705 363 696 q 461 714 431 714 q 583 695 535 714 q 661 635 632 676 q 703 525 690 593 q 715 360 715 457 l 715 0 l 503 0 l 503 347 q 494 453 503 413 q 465 511 486 493 q 406 529 444 529 q 360 525 383 529 q 315 514 336 521 q 281 500 294 507 l 281 0 l 68 0 m 304 797 l 156 1010 l 324 1010 l 383 901 l 442 1010 l 608 1010 l 451 797 l 304 797 z "},"ņ":{"ha":776,"x_min":68,"x_max":715,"o":"m 208 -379 l 251 -85 l 449 -85 l 371 -379 l 208 -379 m 68 0 l 68 699 l 279 699 l 279 656 q 332 683 301 669 q 397 705 363 696 q 461 714 431 714 q 583 695 535 714 q 661 635 632 676 q 703 525 690 593 q 715 360 715 457 l 715 0 l 503 0 l 503 347 q 494 453 503 413 q 465 511 486 493 q 406 529 444 529 q 360 525 383 529 q 315 514 336 521 q 281 500 294 507 l 281 0 l 68 0 z "},"ñ":{"ha":776,"x_min":68,"x_max":715,"o":"m 68 0 l 68 699 l 279 699 l 279 656 q 332 683 301 669 q 397 705 363 696 q 461 714 431 714 q 583 695 535 714 q 661 635 632 676 q 703 525 690 593 q 715 360 715 457 l 715 0 l 503 0 l 503 347 q 494 453 503 413 q 465 511 486 493 q 406 529 444 529 q 360 525 383 529 q 315 514 336 521 q 281 500 294 507 l 281 0 l 68 0 m 501 803 q 451 813 479 803 q 395 835 424 822 q 342 856 367 847 q 301 865 318 865 q 250 847 282 865 q 196 811 218 828 l 163 926 q 201 963 178 944 q 250 994 224 982 q 300 1007 276 1007 q 355 998 326 1007 q 410 977 383 989 q 460 956 438 965 q 499 946 483 946 q 549 964 517 946 q 604 1000 581 982 l 638 882 q 599 847 622 865 q 551 815 576 828 q 501 803 526 803 z "},"ŋ":{"ha":776,"x_min":68,"x_max":715,"o":"m 435 -318 l 360 -151 q 452 -96 422 -119 q 492 -41 482 -72 q 503 44 503 -10 l 503 344 q 494 448 503 407 q 466 508 486 489 q 408 528 446 528 q 363 524 388 528 q 317 513 339 519 q 281 499 296 506 l 281 0 l 68 0 l 68 699 l 279 699 l 279 657 q 334 683 303 671 q 400 705 365 696 q 464 714 435 714 q 615 678 560 714 q 692 563 669 642 q 715 356 715 485 l 715 50 q 703 -90 715 -35 q 661 -184 692 -146 q 576 -253 631 -222 q 435 -318 521 -283 z "},"o":{"ha":760,"x_min":44,"x_max":715,"o":"m 379 -17 q 187 22 261 -17 q 78 142 113 60 q 44 353 44 224 q 80 560 44 481 q 190 676 115 639 q 379 714 265 714 q 570 676 496 714 q 680 560 644 639 q 715 353 715 481 q 681 142 715 224 q 573 22 647 60 q 379 -17 499 -17 m 379 158 q 456 178 431 158 q 491 240 482 197 q 500 353 500 283 q 489 464 500 424 q 452 522 478 504 q 379 540 426 540 q 307 522 333 540 q 269 463 281 504 q 258 353 258 422 q 268 240 258 283 q 303 178 278 197 q 379 158 329 158 z "},"ó":{"ha":760,"x_min":44,"x_max":715,"o":"m 379 -17 q 187 22 261 -17 q 78 142 113 60 q 44 353 44 224 q 80 560 44 481 q 190 676 115 639 q 379 714 265 714 q 570 676 496 714 q 680 560 644 639 q 715 353 715 481 q 681 142 715 224 q 573 22 647 60 q 379 -17 499 -17 m 379 158 q 456 178 431 158 q 491 240 482 197 q 500 353 500 283 q 489 464 500 424 q 452 522 478 504 q 379 540 426 540 q 307 522 333 540 q 269 463 281 504 q 258 353 258 422 q 268 240 258 283 q 303 178 278 197 q 379 158 329 158 m 299 796 l 201 911 l 463 1049 l 590 892 l 299 796 z "},"ŏ":{"ha":760,"x_min":44,"x_max":715,"o":"m 379 -17 q 187 22 261 -17 q 78 142 113 60 q 44 353 44 224 q 80 560 44 481 q 190 676 115 639 q 379 714 265 714 q 570 676 496 714 q 680 560 644 639 q 715 353 715 481 q 681 142 715 224 q 573 22 647 60 q 379 -17 499 -17 m 379 158 q 456 178 431 158 q 491 240 482 197 q 500 353 500 283 q 489 464 500 424 q 452 522 478 504 q 379 540 426 540 q 307 522 333 540 q 269 463 281 504 q 258 353 258 422 q 268 240 258 283 q 303 178 278 197 q 379 158 329 158 m 383 786 q 260 816 307 786 q 191 894 213 846 q 168 996 169 942 l 294 1003 q 319 939 297 964 q 383 914 342 914 q 449 940 426 914 q 472 1003 471 965 l 599 996 q 585 917 597 954 q 547 850 572 879 q 482 803 522 821 q 383 786 442 786 z "},"ô":{"ha":760,"x_min":44,"x_max":715,"o":"m 379 -17 q 187 22 261 -17 q 78 142 113 60 q 44 353 44 224 q 80 560 44 481 q 190 676 115 639 q 379 714 265 714 q 570 676 496 714 q 680 560 644 639 q 715 353 715 481 q 681 142 715 224 q 573 22 647 60 q 379 -17 499 -17 m 379 158 q 456 178 431 158 q 491 240 482 197 q 500 353 500 283 q 489 464 500 424 q 452 522 478 504 q 379 540 426 540 q 307 522 333 540 q 269 463 281 504 q 258 353 258 422 q 268 240 258 283 q 303 178 278 197 q 379 158 329 158 m 151 797 l 300 1010 l 447 1010 l 606 797 l 438 797 l 378 906 l 321 797 l 151 797 z "},"ö":{"ha":760,"x_min":44,"x_max":715,"o":"m 379 -17 q 187 22 261 -17 q 78 142 113 60 q 44 353 44 224 q 80 560 44 481 q 190 676 115 639 q 379 714 265 714 q 570 676 496 714 q 680 560 644 639 q 715 353 715 481 q 681 142 715 224 q 573 22 647 60 q 379 -17 499 -17 m 379 158 q 456 178 431 158 q 491 240 482 197 q 500 353 500 283 q 489 464 500 424 q 452 522 478 504 q 379 540 426 540 q 307 522 333 540 q 269 463 281 504 q 258 353 258 422 q 268 240 258 283 q 303 178 278 197 q 379 158 329 158 m 453 818 l 453 990 l 619 990 l 619 818 l 453 818 m 167 818 l 167 990 l 335 990 l 335 818 l 167 818 z "},"ò":{"ha":760,"x_min":44,"x_max":715,"o":"m 379 -17 q 187 22 261 -17 q 78 142 113 60 q 44 353 44 224 q 80 560 44 481 q 190 676 115 639 q 379 714 265 714 q 570 676 496 714 q 680 560 644 639 q 715 353 715 481 q 681 142 715 224 q 573 22 647 60 q 379 -17 499 -17 m 379 158 q 456 178 431 158 q 491 240 482 197 q 500 353 500 283 q 489 464 500 424 q 452 522 478 504 q 379 540 426 540 q 307 522 333 540 q 269 463 281 504 q 258 353 258 422 q 268 240 258 283 q 303 178 278 197 q 379 158 329 158 m 485 796 l 194 892 l 322 1049 l 583 911 l 485 796 z "},"ő":{"ha":760,"x_min":44,"x_max":735,"o":"m 379 -17 q 187 22 261 -17 q 78 142 113 60 q 44 353 44 224 q 80 560 44 481 q 190 676 115 639 q 379 714 265 714 q 570 676 496 714 q 680 560 644 639 q 715 353 715 481 q 681 142 715 224 q 573 22 647 60 q 379 -17 499 -17 m 379 158 q 456 178 431 158 q 491 240 482 197 q 500 353 500 283 q 489 464 500 424 q 452 522 478 504 q 379 540 426 540 q 307 522 333 540 q 269 463 281 504 q 258 353 258 422 q 268 240 258 283 q 303 178 278 197 q 379 158 329 158 m 572 790 l 439 821 l 560 1035 l 735 1004 l 572 790 m 285 790 l 151 821 l 274 1033 l 447 1004 l 285 790 z "},"ō":{"ha":760,"x_min":44,"x_max":715,"o":"m 379 -17 q 187 22 261 -17 q 78 142 113 60 q 44 353 44 224 q 80 560 44 481 q 190 676 115 639 q 379 714 265 714 q 570 676 496 714 q 680 560 644 639 q 715 353 715 481 q 681 142 715 224 q 573 22 647 60 q 379 -17 499 -17 m 379 158 q 456 178 431 158 q 491 240 482 197 q 500 353 500 283 q 489 464 500 424 q 452 522 478 504 q 379 540 426 540 q 307 522 333 540 q 269 463 281 504 q 258 353 258 422 q 268 240 258 283 q 303 178 278 197 q 379 158 329 158 m 171 829 l 171 974 l 590 974 l 590 829 l 171 829 z "},"ø":{"ha":760,"x_min":44,"x_max":715,"o":"m 442 232 l 261 244 l 476 817 l 668 774 l 442 232 m 296 -131 l 108 -87 l 342 467 l 526 446 l 296 -131 m 379 -17 q 187 22 261 -17 q 78 142 113 60 q 44 353 44 224 q 80 560 44 481 q 190 676 115 639 q 379 714 265 714 q 570 676 496 714 q 680 560 644 639 q 715 353 715 481 q 681 142 715 224 q 573 22 647 60 q 379 -17 499 -17 m 379 158 q 456 178 431 158 q 491 240 482 197 q 500 353 500 283 q 489 464 500 424 q 452 522 478 504 q 379 540 426 540 q 307 522 333 540 q 269 463 281 504 q 258 353 258 422 q 268 240 258 283 q 303 178 278 197 q 379 158 329 158 z "},"ǿ":{"ha":760,"x_min":44,"x_max":715,"o":"m 442 232 l 261 244 l 476 817 l 668 774 l 442 232 m 296 -131 l 108 -87 l 342 467 l 526 446 l 296 -131 m 313 853 l 214 968 l 475 1106 l 603 949 l 313 853 m 379 -17 q 187 22 261 -17 q 78 142 113 60 q 44 353 44 224 q 80 560 44 481 q 190 676 115 639 q 379 714 265 714 q 570 676 496 714 q 680 560 644 639 q 715 353 715 481 q 681 142 715 224 q 573 22 647 60 q 379 -17 499 -17 m 379 158 q 456 178 431 158 q 491 240 482 197 q 500 353 500 283 q 489 464 500 424 q 452 522 478 504 q 379 540 426 540 q 307 522 333 540 q 269 463 281 504 q 258 353 258 422 q 268 240 258 283 q 303 178 278 197 q 379 158 329 158 z "},"õ":{"ha":760,"x_min":44,"x_max":715,"o":"m 379 -17 q 187 22 261 -17 q 78 142 113 60 q 44 353 44 224 q 80 560 44 481 q 190 676 115 639 q 379 714 265 714 q 570 676 496 714 q 680 560 644 639 q 715 353 715 481 q 681 142 715 224 q 573 22 647 60 q 379 -17 499 -17 m 379 158 q 456 178 431 158 q 491 240 482 197 q 500 353 500 283 q 489 464 500 424 q 452 522 478 504 q 379 540 426 540 q 307 522 333 540 q 269 463 281 504 q 258 353 258 422 q 268 240 258 283 q 303 178 278 197 q 379 158 329 158 m 481 803 q 431 813 458 803 q 374 835 403 822 q 322 856 346 847 q 281 865 297 865 q 229 847 261 865 q 175 811 197 828 l 142 926 q 180 963 157 944 q 229 994 203 982 q 279 1007 256 1007 q 334 998 306 1007 q 390 977 363 989 q 440 956 417 965 q 478 946 463 946 q 528 964 496 946 q 583 1000 560 982 l 617 882 q 578 847 601 865 q 531 815 556 828 q 481 803 506 803 z "},"œ":{"ha":1192,"x_min":44,"x_max":1151,"o":"m 381 -17 q 188 22 263 -17 q 78 142 113 60 q 44 353 44 224 q 80 560 44 481 q 190 676 115 639 q 381 714 265 714 q 524 690 467 714 q 613 610 581 665 q 699 690 644 665 q 829 714 754 714 q 1071 636 990 714 q 1151 390 1151 558 l 1142 281 l 714 281 q 742 182 714 214 q 836 150 769 150 q 933 152 879 150 q 1038 157 986 154 q 1128 163 1090 160 l 1133 17 q 1043 2 1097 10 q 930 -11 989 -6 q 818 -17 871 -17 q 685 6 738 -17 q 604 76 633 29 q 519 6 572 28 q 381 -17 465 -17 m 381 160 q 456 180 431 160 q 491 243 482 200 q 500 353 500 286 q 472 496 500 454 q 381 538 444 538 q 308 520 335 538 q 270 463 282 503 q 258 353 258 422 q 268 242 258 285 q 304 179 278 199 q 381 160 331 160 m 713 410 l 942 410 q 915 523 942 490 q 829 556 888 556 q 742 522 771 556 q 713 410 713 488 z "},"p":{"ha":764,"x_min":68,"x_max":718,"o":"m 68 -289 l 68 699 l 278 699 l 279 656 q 327 682 299 668 q 389 705 356 696 q 454 714 422 714 q 607 673 549 714 q 692 551 665 632 q 718 350 718 471 q 688 141 718 222 q 592 22 658 60 q 414 -17 525 -17 q 342 -10 381 -17 q 281 0 304 -4 l 281 -289 l 68 -289 m 375 158 q 453 181 425 158 q 492 248 481 204 q 504 356 504 292 q 476 499 504 460 q 394 538 449 538 q 355 533 376 538 q 314 521 333 528 q 281 507 294 514 l 281 168 q 322 162 294 165 q 375 158 349 158 z "},"þ":{"ha":763,"x_min":68,"x_max":717,"o":"m 68 -289 l 68 986 l 279 986 l 279 679 q 331 695 301 688 q 393 708 361 703 q 451 714 425 714 q 608 674 550 714 q 692 554 667 635 q 717 351 717 474 q 688 142 717 222 q 591 22 658 61 q 407 -17 524 -17 q 342 -11 379 -17 q 279 -1 306 -6 l 279 -289 l 68 -289 m 368 158 q 453 182 425 158 q 492 250 482 206 q 503 356 503 294 q 492 463 503 424 q 458 520 482 503 q 394 538 435 538 q 355 534 376 538 q 313 525 333 531 q 279 514 293 519 l 279 165 q 323 160 297 163 q 368 158 349 158 z "},"q":{"ha":763,"x_min":44,"x_max":694,"o":"m 482 -287 l 482 18 q 403 -4 451 8 q 314 -17 354 -17 q 156 25 215 -17 q 71 146 97 67 q 44 339 44 225 q 81 560 44 478 q 195 679 117 643 q 400 715 274 715 q 487 712 435 715 q 594 704 539 708 q 694 696 650 700 l 694 -287 l 482 -287 m 371 161 q 431 169 400 161 q 482 185 463 176 l 482 535 q 441 538 465 536 q 397 540 417 540 q 312 517 342 540 q 271 449 282 493 q 260 342 260 406 q 285 203 260 244 q 371 161 311 161 z "},"r":{"ha":497,"x_min":68,"x_max":479,"o":"m 68 0 l 68 699 l 281 699 l 281 619 q 336 658 303 638 q 407 694 369 678 q 479 715 444 711 l 479 513 q 408 497 446 508 q 338 470 371 485 q 281 443 304 456 l 281 0 l 68 0 z "},"ŕ":{"ha":497,"x_min":58,"x_max":479,"o":"m 68 0 l 68 699 l 281 699 l 281 619 q 336 658 303 638 q 407 694 369 678 q 479 715 444 711 l 479 513 q 408 497 446 508 q 338 470 371 485 q 281 443 304 456 l 281 0 l 68 0 m 156 796 l 58 911 l 319 1049 l 447 892 l 156 796 z "},"ř":{"ha":497,"x_min":21,"x_max":479,"o":"m 68 0 l 68 699 l 281 699 l 281 619 q 336 658 303 638 q 407 694 369 678 q 479 715 444 711 l 479 513 q 408 497 446 508 q 338 470 371 485 q 281 443 304 456 l 281 0 l 68 0 m 168 797 l 19 1010 l 188 1010 l 247 901 l 306 1010 l 472 1010 l 315 797 l 168 797 z "},"ŗ":{"ha":497,"x_min":40,"x_max":479,"o":"m 40 -379 l 83 -85 l 281 -85 l 203 -379 l 40 -379 m 68 0 l 68 699 l 281 699 l 281 619 q 336 658 303 638 q 407 694 369 678 q 479 715 444 711 l 479 513 q 408 497 446 508 q 338 470 371 485 q 281 443 304 456 l 281 0 l 68 0 z "},"s":{"ha":664,"x_min":44,"x_max":622,"o":"m 332 -17 q 226 -11 281 -17 q 126 2 172 -6 q 50 17 81 10 l 57 169 q 139 160 93 165 q 229 150 185 154 q 301 146 274 146 q 363 151 339 146 q 398 171 386 157 q 410 210 410 185 q 398 239 410 228 q 356 258 386 250 q 268 274 326 265 q 140 306 190 285 q 67 370 90 328 q 44 483 44 413 q 83 624 44 574 q 185 694 121 674 q 325 714 249 714 q 431 709 378 714 q 531 697 485 704 q 607 683 576 690 l 600 525 q 519 535 565 531 q 427 543 472 540 q 351 546 382 546 q 301 541 322 546 q 268 524 279 536 q 257 490 257 513 q 267 463 257 474 q 306 445 276 453 q 390 431 335 438 q 526 396 475 419 q 600 330 578 372 q 622 215 622 288 q 589 80 622 131 q 490 6 556 29 q 332 -17 425 -17 z "},"ś":{"ha":664,"x_min":44,"x_max":622,"o":"m 332 -17 q 226 -11 281 -17 q 126 2 172 -6 q 50 17 81 10 l 57 169 q 139 160 93 165 q 229 150 185 154 q 301 146 274 146 q 363 151 339 146 q 398 171 386 157 q 410 210 410 185 q 398 239 410 228 q 356 258 386 250 q 268 274 326 265 q 140 306 190 285 q 67 370 90 328 q 44 483 44 413 q 83 624 44 574 q 185 694 121 674 q 325 714 249 714 q 431 709 378 714 q 531 697 485 704 q 607 683 576 690 l 600 525 q 519 535 565 531 q 427 543 472 540 q 351 546 382 546 q 301 541 322 546 q 268 524 279 536 q 257 490 257 513 q 267 463 257 474 q 306 445 276 453 q 390 431 335 438 q 526 396 475 419 q 600 330 578 372 q 622 215 622 288 q 589 80 622 131 q 490 6 556 29 q 332 -17 425 -17 m 253 796 l 156 911 l 417 1049 l 544 892 l 253 796 z "},"š":{"ha":664,"x_min":44,"x_max":622,"o":"m 332 -17 q 226 -11 281 -17 q 126 2 172 -6 q 50 17 81 10 l 57 169 q 139 160 93 165 q 229 150 185 154 q 301 146 274 146 q 363 151 339 146 q 398 171 386 157 q 410 210 410 185 q 398 239 410 228 q 356 258 386 250 q 268 274 326 265 q 140 306 190 285 q 67 370 90 328 q 44 483 44 413 q 83 624 44 574 q 185 694 121 674 q 325 714 249 714 q 431 709 378 714 q 531 697 485 704 q 607 683 576 690 l 600 525 q 519 535 565 531 q 427 543 472 540 q 351 546 382 546 q 301 541 322 546 q 268 524 279 536 q 257 490 257 513 q 267 463 257 474 q 306 445 276 453 q 390 431 335 438 q 526 396 475 419 q 600 330 578 372 q 622 215 622 288 q 589 80 622 131 q 490 6 556 29 q 332 -17 425 -17 m 261 797 l 113 1010 l 281 1010 l 340 901 l 399 1010 l 565 1010 l 408 797 l 261 797 z "},"ş":{"ha":664,"x_min":44,"x_max":622,"o":"m 332 -17 q 226 -11 281 -17 q 126 2 172 -6 q 50 17 81 10 l 57 169 q 139 160 93 165 q 229 150 185 154 q 301 146 274 146 q 363 151 339 146 q 398 171 386 157 q 410 210 410 185 q 398 239 410 228 q 356 258 386 250 q 268 274 326 265 q 140 306 190 285 q 67 370 90 328 q 44 483 44 413 q 83 624 44 574 q 185 694 121 674 q 325 714 249 714 q 431 709 378 714 q 531 697 485 704 q 607 683 576 690 l 600 525 q 519 535 565 531 q 427 543 472 540 q 351 546 382 546 q 301 541 322 546 q 268 524 279 536 q 257 490 257 513 q 267 463 257 474 q 306 445 276 453 q 390 431 335 438 q 526 396 475 419 q 600 330 578 372 q 622 215 622 288 q 589 80 622 131 q 490 6 556 29 q 332 -17 425 -17 m 367 -312 q 283 -308 325 -312 q 218 -300 242 -304 l 222 -211 q 257 -212 231 -211 q 300 -212 283 -212 q 344 -203 332 -212 q 357 -172 357 -193 q 344 -143 357 -150 q 300 -136 331 -136 l 267 -136 l 267 8 l 347 8 l 347 -56 q 446 -65 407 -56 q 503 -100 485 -75 q 521 -174 521 -125 q 481 -280 521 -247 q 367 -312 440 -312 z "},"ŝ":{"ha":664,"x_min":44,"x_max":622,"o":"m 332 -17 q 226 -11 281 -17 q 126 2 172 -6 q 50 17 81 10 l 57 169 q 139 160 93 165 q 229 150 185 154 q 301 146 274 146 q 363 151 339 146 q 398 171 386 157 q 410 210 410 185 q 398 239 410 228 q 356 258 386 250 q 268 274 326 265 q 140 306 190 285 q 67 370 90 328 q 44 483 44 413 q 83 624 44 574 q 185 694 121 674 q 325 714 249 714 q 431 709 378 714 q 531 697 485 704 q 607 683 576 690 l 600 525 q 519 535 565 531 q 427 543 472 540 q 351 546 382 546 q 301 541 322 546 q 268 524 279 536 q 257 490 257 513 q 267 463 257 474 q 306 445 276 453 q 390 431 335 438 q 526 396 475 419 q 600 330 578 372 q 622 215 622 288 q 589 80 622 131 q 490 6 556 29 q 332 -17 425 -17 m 106 797 l 254 1010 l 401 1010 l 560 797 l 392 797 l 332 906 l 275 797 l 106 797 z "},"ș":{"ha":664,"x_min":44,"x_max":622,"o":"m 165 -379 l 207 -85 l 404 -85 l 326 -379 l 165 -379 m 332 -17 q 226 -11 281 -17 q 126 2 172 -6 q 50 17 81 10 l 57 169 q 139 160 93 165 q 229 150 185 154 q 301 146 274 146 q 363 151 339 146 q 398 171 386 157 q 410 210 410 185 q 398 239 410 228 q 356 258 386 250 q 268 274 326 265 q 140 306 190 285 q 67 370 90 328 q 44 483 44 413 q 83 624 44 574 q 185 694 121 674 q 325 714 249 714 q 431 709 378 714 q 531 697 485 704 q 607 683 576 690 l 600 525 q 519 535 565 531 q 427 543 472 540 q 351 546 382 546 q 301 541 322 546 q 268 524 279 536 q 257 490 257 513 q 267 463 257 474 q 306 445 276 453 q 390 431 335 438 q 526 396 475 419 q 600 330 578 372 q 622 215 622 288 q 589 80 622 131 q 490 6 556 29 q 332 -17 425 -17 z "},"ß":{"ha":886,"x_min":68,"x_max":858,"o":"m 588 -17 q 499 -12 544 -17 q 414 -1 453 -7 q 350 11 375 6 l 357 160 q 414 153 381 157 q 481 148 447 150 q 538 146 514 146 q 625 167 600 146 q 650 231 650 189 q 640 268 650 253 q 599 301 629 283 q 508 343 568 318 q 424 389 454 367 q 382 438 394 411 q 369 501 369 465 q 379 560 369 536 q 410 603 389 585 q 463 642 431 622 q 510 676 494 661 q 532 704 526 690 q 538 736 538 718 q 513 793 538 775 q 424 811 489 811 q 343 801 375 811 q 296 764 311 790 q 281 690 281 738 l 281 0 l 68 0 l 68 690 q 88 835 68 778 q 150 928 108 893 q 260 978 192 963 q 424 993 328 993 q 615 970 543 993 q 720 899 688 947 q 753 776 753 851 q 744 700 753 729 q 713 651 735 671 q 653 613 692 632 q 601 585 619 596 q 577 566 583 575 q 571 546 571 557 q 580 521 571 532 q 614 497 589 510 q 688 464 639 485 q 790 409 753 436 q 843 344 828 382 q 858 244 858 306 q 833 94 858 151 q 748 10 807 36 q 588 -17 689 -17 z "},"t":{"ha":501,"x_min":25,"x_max":481,"o":"m 318 -17 q 192 5 240 -17 q 122 81 143 26 q 100 236 100 136 l 100 524 l 25 524 l 25 699 l 100 699 l 100 872 l 313 872 l 313 699 l 476 699 l 476 524 l 313 524 l 313 289 q 317 215 313 242 q 338 178 322 189 q 383 167 353 167 q 410 168 392 167 q 447 170 428 169 q 475 172 465 171 l 481 4 q 428 -5 458 0 q 369 -13 399 -10 q 318 -17 339 -17 z "},"ŧ":{"ha":504,"x_min":25,"x_max":481,"o":"m 40 317 l 40 432 l 449 432 l 449 317 l 40 317 m 318 -17 q 192 5 240 -17 q 122 81 143 26 q 100 236 100 136 l 100 524 l 25 524 l 25 699 l 100 699 l 100 872 l 313 872 l 313 699 l 476 699 l 476 524 l 313 524 l 313 289 q 317 215 313 242 q 337 178 322 189 q 383 167 351 167 q 410 168 392 167 q 447 170 428 169 q 475 172 465 171 l 481 4 q 428 -5 458 0 q 368 -13 397 -10 q 318 -17 339 -17 z "},"ť":{"ha":665,"x_min":25,"x_max":675,"o":"m 472 696 l 485 1001 l 675 1001 l 633 696 l 472 696 m 318 -17 q 192 5 240 -17 q 122 81 143 26 q 100 236 100 136 l 100 524 l 25 524 l 25 699 l 100 699 l 100 872 l 313 872 l 313 699 l 476 699 l 476 524 l 313 524 l 313 289 q 317 215 313 242 q 338 178 322 189 q 383 167 353 167 q 410 168 392 167 q 447 170 428 169 q 475 172 465 171 l 481 4 q 428 -5 458 0 q 369 -13 399 -10 q 318 -17 339 -17 z "},"ţ":{"ha":501,"x_min":25,"x_max":481,"o":"m 318 -17 q 192 5 240 -17 q 122 81 143 26 q 100 236 100 136 l 100 524 l 25 524 l 25 699 l 100 699 l 100 872 l 313 872 l 313 699 l 476 699 l 476 524 l 313 524 l 313 289 q 317 215 313 242 q 338 178 322 189 q 383 167 353 167 q 410 168 392 167 q 447 170 428 169 q 475 172 465 171 l 481 4 q 428 -5 458 0 q 369 -13 399 -10 q 318 -17 339 -17 m 322 -312 q 239 -308 281 -312 q 174 -300 197 -304 l 178 -211 q 213 -212 186 -211 q 256 -212 239 -212 q 300 -203 288 -212 q 313 -172 313 -193 q 299 -143 313 -150 q 256 -136 286 -136 l 222 -136 l 222 8 l 303 8 l 303 -56 q 401 -65 363 -56 q 458 -100 440 -75 q 476 -174 476 -125 q 436 -280 476 -247 q 322 -312 396 -312 z "},"ț":{"ha":501,"x_min":25,"x_max":481,"o":"m 115 -379 l 157 -85 l 354 -85 l 276 -379 l 115 -379 m 318 -17 q 192 5 240 -17 q 122 81 143 26 q 100 236 100 136 l 100 524 l 25 524 l 25 699 l 100 699 l 100 872 l 313 872 l 313 699 l 476 699 l 476 524 l 313 524 l 313 289 q 317 215 313 242 q 338 178 322 189 q 383 167 353 167 q 410 168 392 167 q 447 170 428 169 q 475 172 465 171 l 481 4 q 428 -5 458 0 q 369 -13 399 -10 q 318 -17 339 -17 z "},"u":{"ha":771,"x_min":61,"x_max":703,"o":"m 294 -17 q 153 23 204 -17 q 82 140 103 63 q 61 336 61 218 l 61 699 l 274 699 l 274 346 q 281 240 274 279 q 308 185 288 201 q 368 169 329 169 q 438 178 404 169 q 490 197 471 188 l 490 699 l 703 699 l 703 0 l 492 0 l 492 40 q 399 -1 444 15 q 294 -17 354 -17 z "},"ú":{"ha":771,"x_min":61,"x_max":703,"o":"m 294 -17 q 153 23 204 -17 q 82 140 103 63 q 61 336 61 218 l 61 699 l 274 699 l 274 346 q 281 240 274 279 q 308 185 288 201 q 368 169 329 169 q 438 178 404 169 q 490 197 471 188 l 490 699 l 703 699 l 703 0 l 492 0 l 492 40 q 399 -1 444 15 q 294 -17 354 -17 m 315 796 l 218 911 l 479 1049 l 607 892 l 315 796 z "},"ŭ":{"ha":771,"x_min":61,"x_max":703,"o":"m 294 -17 q 153 23 204 -17 q 82 140 103 63 q 61 336 61 218 l 61 699 l 274 699 l 274 346 q 281 240 274 279 q 308 185 288 201 q 368 169 329 169 q 438 178 404 169 q 490 197 471 188 l 490 699 l 703 699 l 703 0 l 492 0 l 492 40 q 399 -1 444 15 q 294 -17 354 -17 m 381 786 q 257 816 304 786 q 188 894 210 846 q 165 996 167 942 l 292 1003 q 317 939 294 964 q 381 914 339 914 q 446 940 424 914 q 469 1003 468 965 l 596 996 q 582 917 594 954 q 544 850 569 879 q 479 803 519 821 q 381 786 439 786 z "},"û":{"ha":771,"x_min":61,"x_max":703,"o":"m 294 -17 q 153 23 204 -17 q 82 140 103 63 q 61 336 61 218 l 61 699 l 274 699 l 274 346 q 281 240 274 279 q 308 185 288 201 q 368 169 329 169 q 438 178 404 169 q 490 197 471 188 l 490 699 l 703 699 l 703 0 l 492 0 l 492 40 q 399 -1 444 15 q 294 -17 354 -17 m 153 797 l 301 1010 l 449 1010 l 607 797 l 439 797 l 379 906 l 322 797 l 153 797 z "},"ü":{"ha":771,"x_min":61,"x_max":703,"o":"m 294 -17 q 153 23 204 -17 q 82 140 103 63 q 61 336 61 218 l 61 699 l 274 699 l 274 346 q 281 240 274 279 q 308 185 288 201 q 368 169 329 169 q 438 178 404 169 q 490 197 471 188 l 490 699 l 703 699 l 703 0 l 492 0 l 492 40 q 399 -1 444 15 q 294 -17 354 -17 m 464 818 l 464 990 l 631 990 l 631 818 l 464 818 m 178 818 l 178 990 l 346 990 l 346 818 l 178 818 z "},"ù":{"ha":771,"x_min":61,"x_max":703,"o":"m 294 -17 q 153 23 204 -17 q 82 140 103 63 q 61 336 61 218 l 61 699 l 274 699 l 274 346 q 281 240 274 279 q 308 185 288 201 q 368 169 329 169 q 438 178 404 169 q 490 197 471 188 l 490 699 l 703 699 l 703 0 l 492 0 l 492 40 q 399 -1 444 15 q 294 -17 354 -17 m 428 796 l 138 892 l 265 1049 l 526 911 l 428 796 z "},"ű":{"ha":771,"x_min":61,"x_max":744,"o":"m 294 -17 q 153 23 204 -17 q 82 140 103 63 q 61 336 61 218 l 61 699 l 274 699 l 274 346 q 281 240 274 279 q 308 185 288 201 q 368 169 329 169 q 438 178 404 169 q 490 197 471 188 l 490 699 l 703 699 l 703 0 l 492 0 l 492 40 q 399 -1 444 15 q 294 -17 354 -17 m 581 790 l 447 821 l 568 1035 l 743 1004 l 581 790 m 293 790 l 160 821 l 282 1033 l 456 1004 l 293 790 z "},"ū":{"ha":771,"x_min":61,"x_max":703,"o":"m 294 -17 q 153 23 204 -17 q 82 140 103 63 q 61 336 61 218 l 61 699 l 274 699 l 274 346 q 281 240 274 279 q 308 185 288 201 q 368 169 329 169 q 438 178 404 169 q 490 197 471 188 l 490 699 l 703 699 l 703 0 l 492 0 l 492 40 q 399 -1 444 15 q 294 -17 354 -17 m 176 822 l 176 967 l 596 967 l 596 822 l 176 822 z "},"ẫ":{"ha":736,"x_min":35,"x_max":713,"o":"m 261 -17 q 91 39 147 -17 q 35 208 35 94 q 65 333 35 289 q 151 396 94 376 q 289 419 208 415 l 444 432 l 444 468 q 422 527 444 510 q 354 544 399 544 q 263 542 314 544 q 161 535 211 539 q 75 526 111 531 l 68 674 q 158 692 106 683 q 267 708 210 701 q 374 714 324 714 q 527 692 464 714 q 624 620 590 671 q 657 479 657 569 l 657 174 q 677 148 661 157 q 713 135 693 139 l 708 -7 q 664 -10 688 -8 q 619 -12 640 -12 q 585 -10 599 -11 q 523 8 549 -6 q 485 35 497 21 q 426 13 463 25 q 348 -8 390 0 q 261 -17 306 -17 m 314 138 q 362 143 338 138 q 408 156 386 149 q 444 168 431 163 l 444 306 l 322 294 q 265 270 283 290 q 247 214 247 250 q 264 158 247 179 q 314 138 281 138 m 129 776 l 278 989 l 425 989 l 583 776 l 415 776 l 356 885 l 299 776 l 129 776 m 454 1031 q 404 1040 432 1031 q 348 1063 376 1050 q 295 1084 319 1075 q 254 1093 271 1093 q 203 1074 235 1093 q 149 1039 171 1056 l 115 1154 q 153 1191 131 1172 q 203 1222 176 1210 q 253 1235 229 1235 q 308 1226 279 1235 q 363 1205 336 1217 q 413 1183 390 1193 q 451 1174 436 1174 q 501 1192 469 1174 q 557 1228 533 1210 l 590 1110 q 552 1074 575 1093 q 504 1043 529 1056 q 454 1031 479 1031 z "},"ễ":{"ha":736,"x_min":44,"x_max":696,"o":"m 144 776 l 293 989 l 440 989 l 599 776 l 431 776 l 371 885 l 314 776 l 144 776 m 468 1031 q 418 1040 446 1031 q 362 1063 390 1050 q 309 1084 333 1075 q 268 1093 285 1093 q 217 1074 249 1093 q 163 1039 185 1056 l 129 1154 q 167 1191 144 1172 q 217 1222 190 1210 q 267 1235 243 1235 q 322 1226 293 1235 q 377 1205 350 1217 q 427 1183 404 1193 q 465 1174 450 1174 q 515 1192 483 1174 q 571 1228 547 1210 l 604 1110 q 566 1074 589 1093 q 518 1043 543 1056 q 468 1031 493 1031 m 363 -17 q 174 22 244 -17 q 74 140 104 61 q 44 340 44 219 q 81 549 44 467 q 190 673 118 632 q 372 714 263 714 q 615 636 533 714 q 696 390 696 558 l 685 281 l 257 281 q 285 181 258 214 q 379 149 313 149 q 476 151 422 149 q 582 156 529 153 q 672 161 635 158 l 676 17 q 586 2 640 10 q 474 -11 532 -6 q 363 -17 415 -17 m 256 410 l 483 410 q 457 526 483 493 q 372 558 431 558 q 308 544 333 558 q 269 497 282 529 q 256 410 257 464 z "},"ỗ":{"ha":760,"x_min":44,"x_max":715,"o":"m 379 -17 q 187 22 261 -17 q 78 142 113 60 q 44 353 44 224 q 80 560 44 481 q 190 676 115 639 q 379 714 265 714 q 570 676 496 714 q 680 560 644 639 q 715 353 715 481 q 681 142 715 224 q 573 22 647 60 q 379 -17 499 -17 m 379 158 q 456 178 431 158 q 491 240 482 197 q 500 353 500 283 q 489 464 500 424 q 452 522 478 504 q 379 540 426 540 q 307 522 333 540 q 269 463 281 504 q 258 353 258 422 q 268 240 258 283 q 303 178 278 197 q 379 158 329 158 m 150 776 l 299 989 l 446 989 l 604 776 l 436 776 l 376 885 l 319 776 l 150 776 m 469 1031 q 419 1040 447 1031 q 363 1063 392 1050 q 310 1084 335 1075 q 269 1093 286 1093 q 218 1074 250 1093 q 164 1039 186 1056 l 131 1154 q 169 1191 146 1172 q 218 1222 192 1210 q 268 1235 244 1235 q 323 1226 294 1235 q 378 1205 351 1217 q 428 1183 406 1193 q 467 1174 451 1174 q 517 1192 485 1174 q 572 1228 549 1210 l 606 1110 q 567 1074 590 1093 q 519 1043 544 1056 q 469 1031 494 1031 z "},"ỹ":{"ha":717,"x_min":18,"x_max":700,"o":"m 457 803 q 407 813 435 803 q 351 835 379 822 q 298 856 322 847 q 257 865 274 865 q 206 847 238 865 q 151 811 174 828 l 118 926 q 156 963 133 944 q 206 994 179 982 q 256 1007 232 1007 q 310 998 282 1007 q 366 977 339 989 q 416 956 393 965 q 454 946 439 946 q 504 964 472 946 q 560 1000 536 982 l 593 882 q 555 847 578 865 q 507 815 532 828 q 457 803 482 803 m 249 -289 l 338 0 l 174 0 l 18 699 l 240 699 l 349 179 l 381 179 l 488 699 l 700 699 l 476 -289 l 249 -289 z "},"ų":{"ha":771,"x_min":61,"x_max":721,"o":"m 571 -307 q 480 -291 519 -307 q 418 -244 440 -275 q 396 -167 396 -214 q 419 -89 396 -125 q 474 -26 442 -53 q 539 18 507 1 l 697 1 q 648 -47 671 -21 q 610 -97 625 -72 q 596 -142 596 -122 q 607 -171 596 -160 q 640 -182 618 -182 q 674 -179 654 -182 q 706 -175 693 -176 l 721 -290 q 656 -301 697 -294 q 571 -307 615 -307 m 294 -17 q 153 23 204 -17 q 82 140 103 63 q 61 336 61 218 l 61 699 l 274 699 l 274 346 q 281 240 274 279 q 308 185 288 201 q 368 169 329 169 q 438 178 404 169 q 490 197 471 188 l 490 699 l 703 699 l 703 0 l 492 0 l 492 40 q 399 -1 444 15 q 294 -17 354 -17 z "},"ů":{"ha":771,"x_min":61,"x_max":703,"o":"m 294 -17 q 153 23 204 -17 q 82 140 103 63 q 61 336 61 218 l 61 699 l 274 699 l 274 346 q 281 240 274 279 q 308 185 288 201 q 368 169 329 169 q 438 178 404 169 q 490 197 471 188 l 490 699 l 703 699 l 703 0 l 492 0 l 492 40 q 399 -1 444 15 q 294 -17 354 -17 m 386 753 q 267 790 314 753 q 221 893 221 826 q 242 969 221 939 q 301 1017 264 1000 q 386 1035 339 1035 q 506 998 458 1035 q 553 893 553 961 q 507 791 553 829 q 386 753 461 753 m 388 840 q 417 847 404 840 q 438 866 431 854 q 446 893 446 878 q 428 931 446 917 q 388 946 411 946 q 358 939 372 946 q 336 920 344 932 q 328 893 328 908 q 346 855 328 869 q 388 840 364 840 z "},"ũ":{"ha":771,"x_min":61,"x_max":703,"o":"m 294 -17 q 153 23 204 -17 q 82 140 103 63 q 61 336 61 218 l 61 699 l 274 699 l 274 346 q 281 240 274 279 q 308 185 288 201 q 368 169 329 169 q 438 178 404 169 q 490 197 471 188 l 490 699 l 703 699 l 703 0 l 492 0 l 492 40 q 399 -1 444 15 q 294 -17 354 -17 m 489 803 q 439 813 467 803 q 383 835 411 822 q 330 856 354 847 q 289 865 306 865 q 238 847 269 865 q 183 811 206 828 l 150 926 q 188 963 165 944 q 238 994 211 982 q 288 1007 264 1007 q 342 998 314 1007 q 398 977 371 989 q 448 956 425 965 q 486 946 471 946 q 536 964 504 946 q 592 1000 568 982 l 625 882 q 587 847 610 865 q 539 815 564 828 q 489 803 514 803 z "},"v":{"ha":715,"x_min":17,"x_max":699,"o":"m 172 0 l 17 699 l 243 699 l 346 179 l 381 179 l 485 699 l 699 699 l 543 0 l 172 0 z "},"w":{"ha":1081,"x_min":28,"x_max":1051,"o":"m 150 0 l 28 699 l 257 699 l 331 179 l 350 179 l 446 682 l 646 682 l 747 179 l 767 179 l 842 699 l 1051 699 l 936 0 l 621 0 l 539 417 l 456 0 l 150 0 z "},"ẃ":{"ha":1081,"x_min":28,"x_max":1051,"o":"m 150 0 l 28 699 l 257 699 l 331 179 l 350 179 l 446 682 l 646 682 l 747 179 l 767 179 l 842 699 l 1051 699 l 936 0 l 621 0 l 539 417 l 456 0 l 150 0 m 471 796 l 374 911 l 635 1049 l 763 892 l 471 796 z "},"ŵ":{"ha":1081,"x_min":28,"x_max":1051,"o":"m 150 0 l 28 699 l 257 699 l 331 179 l 350 179 l 446 682 l 646 682 l 747 179 l 767 179 l 842 699 l 1051 699 l 936 0 l 621 0 l 539 417 l 456 0 l 150 0 m 314 797 l 463 1010 l 610 1010 l 768 797 l 600 797 l 540 906 l 483 797 l 314 797 z "},"ẅ":{"ha":1081,"x_min":28,"x_max":1051,"o":"m 150 0 l 28 699 l 257 699 l 331 179 l 350 179 l 446 682 l 646 682 l 747 179 l 767 179 l 842 699 l 1051 699 l 936 0 l 621 0 l 539 417 l 456 0 l 150 0 m 615 818 l 615 990 l 782 990 l 782 818 l 615 818 m 329 818 l 329 990 l 497 990 l 497 818 l 329 818 z "},"ẁ":{"ha":1081,"x_min":28,"x_max":1051,"o":"m 150 0 l 28 699 l 257 699 l 331 179 l 350 179 l 446 682 l 646 682 l 747 179 l 767 179 l 842 699 l 1051 699 l 936 0 l 621 0 l 539 417 l 456 0 l 150 0 m 633 796 l 343 892 l 471 1049 l 732 911 l 633 796 z "},"x":{"ha":690,"x_min":14,"x_max":675,"o":"m 14 0 l 189 347 l 14 699 l 243 699 l 351 465 l 461 699 l 675 699 l 506 351 l 674 0 l 443 0 l 333 221 l 231 0 l 14 0 z "},"y":{"ha":717,"x_min":18,"x_max":700,"o":"m 249 -289 l 338 0 l 174 0 l 18 699 l 240 699 l 349 179 l 381 179 l 488 699 l 700 699 l 476 -289 l 249 -289 z "},"ý":{"ha":717,"x_min":18,"x_max":700,"o":"m 249 -289 l 338 0 l 174 0 l 18 699 l 240 699 l 349 179 l 381 179 l 488 699 l 700 699 l 476 -289 l 249 -289 m 293 796 l 196 911 l 457 1049 l 585 892 l 293 796 z "},"ŷ":{"ha":717,"x_min":18,"x_max":700,"o":"m 249 -289 l 338 0 l 174 0 l 18 699 l 240 699 l 349 179 l 381 179 l 488 699 l 700 699 l 476 -289 l 249 -289 m 139 797 l 288 1010 l 435 1010 l 593 797 l 425 797 l 365 906 l 308 797 l 139 797 z "},"ÿ":{"ha":717,"x_min":18,"x_max":700,"o":"m 249 -289 l 338 0 l 174 0 l 18 699 l 240 699 l 349 179 l 381 179 l 488 699 l 700 699 l 476 -289 l 249 -289 m 432 818 l 432 990 l 599 990 l 599 818 l 432 818 m 146 818 l 146 990 l 314 990 l 314 818 l 146 818 z "},"ỳ":{"ha":717,"x_min":18,"x_max":700,"o":"m 249 -289 l 338 0 l 174 0 l 18 699 l 240 699 l 349 179 l 381 179 l 488 699 l 700 699 l 476 -289 l 249 -289 m 463 796 l 172 892 l 300 1049 l 561 911 l 463 796 z "},"z":{"ha":664,"x_min":46,"x_max":619,"o":"m 46 0 l 46 178 l 338 511 l 46 511 l 46 699 l 618 699 l 618 528 l 322 186 l 619 186 l 619 0 l 46 0 z "},"ź":{"ha":664,"x_min":46,"x_max":619,"o":"m 46 0 l 46 178 l 338 511 l 46 511 l 46 699 l 618 699 l 618 528 l 322 186 l 619 186 l 619 0 l 46 0 m 258 796 l 161 911 l 422 1049 l 550 892 l 258 796 z "},"ž":{"ha":664,"x_min":46,"x_max":619,"o":"m 46 0 l 46 178 l 338 511 l 46 511 l 46 699 l 618 699 l 618 528 l 322 186 l 619 186 l 619 0 l 46 0 m 257 797 l 108 1010 l 276 1010 l 336 901 l 394 1010 l 561 1010 l 404 797 l 257 797 z "},"ż":{"ha":664,"x_min":46,"x_max":619,"o":"m 46 0 l 46 178 l 338 511 l 46 511 l 46 699 l 618 699 l 618 528 l 322 186 l 619 186 l 619 0 l 46 0 m 240 811 l 240 981 l 425 981 l 425 811 l 240 811 z "},"ª":{"ha":513,"x_min":47,"x_max":465,"o":"m 461 513 q 378 520 415 514 q 319 542 342 526 q 294 586 297 557 l 294 776 q 279 807 294 799 q 231 814 264 815 q 158 810 204 814 q 72 804 113 807 l 65 890 q 158 913 110 906 q 254 921 207 921 q 388 888 343 921 q 433 771 433 856 l 433 624 q 448 613 439 617 q 465 607 457 608 l 461 513 m 167 510 q 79 545 111 510 q 47 638 47 581 q 83 724 47 694 q 189 757 118 753 l 326 764 l 326 685 l 226 679 q 196 669 206 678 q 186 642 186 660 q 195 615 186 624 q 222 606 204 606 q 275 613 246 606 q 326 631 304 621 l 321 567 q 249 525 290 540 q 167 510 208 510 z "},"º":{"ha":510,"x_min":46,"x_max":464,"o":"m 256 510 q 97 558 149 510 q 46 717 46 607 q 97 873 46 825 q 256 921 149 921 q 414 873 364 921 q 464 717 464 825 q 414 558 464 607 q 256 510 364 510 m 256 624 q 307 645 293 624 q 321 717 321 667 q 307 787 321 767 q 256 807 293 807 q 203 786 219 807 q 188 717 188 765 q 203 645 188 667 q 256 624 219 624 z "},"π":{"ha":771,"x_min":28,"x_max":735,"o":"m 718 -3 q 549 15 611 -3 q 461 80 488 33 q 433 214 435 126 l 433 644 l 596 644 l 596 292 q 601 219 596 246 q 619 180 606 193 q 656 163 632 167 q 718 160 679 160 l 718 -3 m 110 0 l 153 642 l 328 642 l 288 0 l 110 0 m 28 485 l 28 675 q 86 685 51 681 q 159 692 121 689 q 232 694 197 694 l 544 694 q 613 697 578 694 q 681 704 649 700 q 735 715 714 708 l 735 525 q 660 510 714 517 q 528 506 607 503 l 499 503 l 257 503 l 222 499 q 107 499 160 504 q 28 485 54 493 z "},"ء":{"ha":819,"x_min":53,"x_max":776,"o":"m 238 36 q 149 164 178 101 q 121 299 121 226 q 151 439 121 375 q 232 550 181 503 q 351 624 283 597 q 496 650 419 650 q 611 635 554 650 q 710 592 668 619 l 619 439 q 563 460 592 453 q 504 468 535 468 q 415 447 453 468 q 355 389 376 426 q 333 301 333 351 q 349 228 333 263 q 396 156 364 193 l 238 36 m 53 0 l 53 182 l 776 182 l 776 0 l 53 0 z "},"ا":{"ha":456,"x_min":122,"x_max":333,"o":"m 122 0 l 122 976 l 333 976 l 333 0 l 122 0 z "},"ﺎ":{"ha":488,"x_min":122,"x_max":515,"o":"m 333 0 l 333 182 l 488 182 l 488 0 l 333 0 m 122 0 l 122 976 l 333 976 l 333 0 l 122 0 m 488 0 l 488 182 q 501 176 496 182 q 509 158 506 169 q 514 129 513 146 q 515 92 515 113 q 514 53 515 71 q 509 24 513 36 q 501 6 506 13 q 488 0 496 0 z "},"أ":{"ha":456,"x_min":49,"x_max":407,"o":"m 122 0 l 122 976 l 333 976 l 333 0 l 122 0 m 138 1096 q 95 1160 110 1129 q 81 1224 81 1190 q 107 1315 81 1275 q 176 1377 133 1354 q 271 1400 219 1400 q 329 1392 300 1400 q 378 1371 358 1385 l 328 1278 q 302 1288 315 1285 q 276 1290 289 1290 q 225 1272 243 1290 q 207 1226 207 1254 q 214 1194 207 1210 q 235 1164 221 1179 l 138 1096 m 49 1082 l 49 1190 l 407 1190 l 407 1082 l 49 1082 z "},"ﺄ":{"ha":488,"x_min":49,"x_max":515,"o":"m 333 0 l 333 182 l 488 182 l 488 0 l 333 0 m 122 0 l 122 976 l 333 976 l 333 0 l 122 0 m 488 0 l 488 182 q 501 176 496 182 q 509 158 506 169 q 514 129 513 146 q 515 92 515 113 q 514 53 515 71 q 509 24 513 36 q 501 6 506 13 q 488 0 496 0 m 138 1096 q 95 1160 110 1129 q 81 1224 81 1190 q 107 1315 81 1275 q 176 1377 133 1354 q 271 1400 219 1400 q 329 1392 300 1400 q 378 1371 358 1385 l 328 1278 q 302 1288 315 1285 q 276 1290 289 1290 q 225 1272 243 1290 q 207 1226 207 1254 q 214 1194 207 1210 q 235 1164 221 1179 l 138 1096 m 49 1082 l 49 1190 l 407 1190 l 407 1082 l 49 1082 z "},"إ":{"ha":456,"x_min":49,"x_max":407,"o":"m 122 0 l 122 976 l 333 976 l 333 0 l 122 0 m 138 -429 q 95 -365 110 -396 q 81 -301 81 -335 q 107 -210 81 -250 q 176 -148 133 -171 q 271 -125 219 -125 q 329 -133 300 -125 q 378 -154 358 -140 l 328 -247 q 302 -237 315 -240 q 276 -235 289 -235 q 225 -253 243 -235 q 207 -299 207 -271 q 214 -331 207 -315 q 235 -361 221 -346 l 138 -429 m 49 -443 l 49 -335 l 407 -335 l 407 -443 l 49 -443 z "},"ﺈ":{"ha":488,"x_min":49,"x_max":515,"o":"m 333 0 l 333 182 l 488 182 l 488 0 l 333 0 m 122 0 l 122 976 l 333 976 l 333 0 l 122 0 m 488 0 l 488 182 q 501 176 496 182 q 509 158 506 169 q 514 129 513 146 q 515 92 515 113 q 514 53 515 71 q 509 24 513 36 q 501 6 506 13 q 488 0 496 0 m 138 -429 q 95 -365 110 -396 q 81 -301 81 -335 q 107 -210 81 -250 q 176 -148 133 -171 q 271 -125 219 -125 q 329 -133 300 -125 q 378 -154 358 -140 l 328 -247 q 302 -237 315 -240 q 276 -235 289 -235 q 225 -253 243 -235 q 207 -299 207 -271 q 214 -331 207 -315 q 235 -361 221 -346 l 138 -429 m 49 -443 l 49 -335 l 407 -335 l 407 -443 l 49 -443 z "},"آ":{"ha":456,"x_min":-10,"x_max":461,"o":"m 122 0 l 122 976 l 333 976 l 333 0 l 122 0 m 74 1081 l -11 1143 l 65 1264 l 186 1264 q 235 1240 207 1249 q 290 1232 263 1232 q 349 1240 321 1232 q 394 1264 376 1249 l 460 1218 q 414 1163 442 1190 q 348 1120 386 1136 q 258 1104 310 1104 q 194 1113 225 1104 q 136 1139 163 1121 l 74 1081 z "},"ﺂ":{"ha":488,"x_min":-10,"x_max":515,"o":"m 333 0 l 333 182 l 488 182 l 488 0 l 333 0 m 122 0 l 122 976 l 333 976 l 333 0 l 122 0 m 488 0 l 488 182 q 501 176 496 182 q 509 158 506 169 q 514 129 513 146 q 515 92 515 113 q 514 53 515 71 q 509 24 513 36 q 501 6 506 13 q 488 0 496 0 m 74 1081 l -11 1143 l 65 1264 l 186 1264 q 235 1240 207 1249 q 290 1232 263 1232 q 349 1240 321 1232 q 394 1264 376 1249 l 460 1218 q 414 1163 442 1190 q 348 1120 386 1136 q 258 1104 310 1104 q 194 1113 225 1104 q 136 1139 163 1121 l 74 1081 z "},"ٱ":{"ha":456,"x_min":35,"x_max":421,"o":"m 122 0 l 122 976 l 333 976 l 333 0 l 122 0 m 76 1168 q 99 1252 76 1215 q 162 1310 122 1289 q 249 1331 201 1331 q 335 1310 296 1331 q 398 1252 375 1289 q 421 1168 421 1215 l 326 1168 q 304 1222 326 1200 q 249 1243 282 1243 q 193 1222 215 1243 q 171 1168 171 1200 l 76 1168 m 35 1082 l 35 1168 l 421 1168 l 421 1082 l 35 1082 z "},"ﭑ":{"ha":488,"x_min":35,"x_max":515,"o":"m 333 0 l 333 182 l 488 182 l 488 0 l 333 0 m 122 0 l 122 976 l 333 976 l 333 0 l 122 0 m 488 0 l 488 182 q 501 176 496 182 q 509 158 506 169 q 514 129 513 146 q 515 92 515 113 q 514 53 515 71 q 509 24 513 36 q 501 6 506 13 q 488 0 496 0 m 76 1168 q 99 1252 76 1215 q 162 1310 122 1289 q 249 1331 201 1331 q 335 1310 296 1331 q 398 1252 375 1289 q 421 1168 421 1215 l 326 1168 q 304 1222 326 1200 q 249 1243 282 1243 q 193 1222 215 1243 q 171 1168 171 1200 l 76 1168 m 35 1082 l 35 1168 l 421 1168 l 421 1082 l 35 1082 z "},"ٮ":{"ha":1188,"x_min":56,"x_max":1111,"o":"m 528 0 q 269 41 375 0 q 110 163 164 82 q 56 361 56 243 q 60 431 56 394 q 69 500 64 467 q 81 559 75 533 q 89 599 86 585 l 296 558 q 285 504 292 538 q 273 434 278 471 q 268 364 268 397 q 286 274 268 310 q 339 218 304 239 q 424 190 374 197 q 540 182 475 182 l 899 182 l 899 699 l 1111 699 l 1111 0 l 528 0 z "},"ب":{"ha":1188,"x_min":56,"x_max":1111,"o":"m 528 0 q 269 41 375 0 q 110 163 164 82 q 56 361 56 243 q 60 431 56 394 q 69 500 64 467 q 81 559 75 533 q 89 599 86 585 l 296 558 q 285 504 292 538 q 273 434 278 471 q 268 364 268 397 q 286 274 268 310 q 339 218 304 239 q 424 190 374 197 q 540 182 475 182 l 899 182 l 899 699 l 1111 699 l 1111 0 l 528 0 m 492 -311 l 492 -142 l 706 -142 l 706 -311 l 492 -311 z "},"ﺐ":{"ha":1257,"x_min":56,"x_max":1285,"o":"m 1111 0 l 1111 182 l 1257 182 l 1257 0 l 1111 0 m 528 0 q 269 41 375 0 q 110 163 164 82 q 56 361 56 243 q 60 431 56 394 q 69 500 64 467 q 81 559 75 533 q 89 599 86 585 l 296 558 q 285 504 292 538 q 273 434 278 471 q 268 364 268 397 q 286 274 268 310 q 339 218 304 239 q 424 190 374 197 q 540 182 475 182 l 899 182 l 899 699 l 1111 699 l 1111 0 l 528 0 m 1257 0 l 1257 182 q 1269 176 1264 182 q 1278 158 1275 169 q 1283 129 1281 146 q 1285 92 1285 113 q 1283 53 1285 71 q 1278 24 1281 36 q 1269 6 1275 13 q 1257 0 1264 0 m 492 -311 l 492 -142 l 706 -142 l 706 -311 l 492 -311 z "},"ﺒ":{"ha":503,"x_min":-28,"x_max":531,"o":"m 357 0 l 357 182 l 503 182 l 503 0 l 357 0 m 0 0 q -13 6 -8 0 q -21 24 -18 13 q -26 53 -24 36 q -28 92 -28 71 q -25 140 -28 119 q -16 171 -22 160 q 0 182 -10 182 l 0 0 m 0 0 l 0 182 l 274 182 l 144 75 l 144 699 l 357 699 l 357 0 l 0 0 m 503 0 l 503 182 q 515 176 510 182 q 524 158 521 169 q 528 129 526 146 q 531 92 531 113 q 528 53 531 71 q 524 24 526 36 q 515 6 521 13 q 503 0 510 0 m 144 -311 l 144 -142 l 358 -142 l 358 -311 l 144 -311 z "},"ﺑ":{"ha":456,"x_min":-28,"x_max":358,"o":"m 0 0 l 0 182 l 274 182 l 144 75 l 144 699 l 357 699 l 357 0 l 0 0 m 0 0 q -12 6 -7 0 q -21 24 -18 13 q -26 53 -24 36 q -28 92 -28 71 q -25 140 -28 119 q -16 171 -22 160 q 0 182 -10 182 l 0 0 m 144 -311 l 144 -142 l 358 -142 l 358 -311 l 144 -311 z "},"پ":{"ha":1188,"x_min":56,"x_max":1111,"o":"m 528 0 q 269 41 375 0 q 110 163 164 82 q 56 361 56 243 q 60 431 56 394 q 69 500 64 467 q 81 559 75 533 q 89 599 86 585 l 296 558 q 285 504 292 538 q 273 434 278 471 q 268 364 268 397 q 286 274 268 310 q 339 218 304 239 q 424 190 374 197 q 540 182 475 182 l 899 182 l 899 699 l 1111 699 l 1111 0 l 528 0 m 508 -362 l 690 -362 l 690 -510 l 508 -510 l 508 -362 m 361 -140 l 564 -140 l 564 -311 l 361 -311 l 361 -140 m 635 -140 l 838 -140 l 838 -311 l 635 -311 l 635 -140 z "},"ﭗ":{"ha":1257,"x_min":56,"x_max":1285,"o":"m 1111 0 l 1111 182 l 1257 182 l 1257 0 l 1111 0 m 528 0 q 269 41 375 0 q 110 163 164 82 q 56 361 56 243 q 60 431 56 394 q 69 500 64 467 q 81 559 75 533 q 89 599 86 585 l 296 558 q 285 504 292 538 q 273 434 278 471 q 268 364 268 397 q 286 274 268 310 q 339 218 304 239 q 424 190 374 197 q 540 182 475 182 l 899 182 l 899 699 l 1111 699 l 1111 0 l 528 0 m 1257 0 l 1257 182 q 1269 176 1264 182 q 1278 158 1275 169 q 1283 129 1281 146 q 1285 92 1285 113 q 1283 53 1285 71 q 1278 24 1281 36 q 1269 6 1275 13 q 1257 0 1264 0 m 508 -362 l 690 -362 l 690 -510 l 508 -510 l 508 -362 m 361 -140 l 564 -140 l 564 -311 l 361 -311 l 361 -140 m 635 -140 l 838 -140 l 838 -311 l 635 -311 l 635 -140 z "},"ﭙ":{"ha":574,"x_min":-28,"x_max":665,"o":"m 457 0 l 457 182 l 638 182 l 638 0 l 457 0 m 638 0 l 638 182 q 651 176 646 182 q 659 158 656 169 q 664 129 663 146 q 665 92 665 113 q 664 53 665 71 q 659 24 663 36 q 651 6 656 13 q 638 0 646 0 m 0 0 q -13 6 -8 0 q -21 24 -18 13 q -26 53 -24 36 q -28 92 -28 71 q -25 140 -28 119 q -16 171 -22 160 q 0 182 -10 182 l 0 0 m 0 0 l 0 182 l 374 182 l 244 75 l 244 699 l 457 699 l 457 0 l 0 0 m 196 -342 l 378 -342 l 378 -489 l 196 -489 l 196 -342 m 49 -121 l 251 -121 l 251 -290 l 49 -290 l 49 -121 m 322 -121 l 525 -121 l 525 -290 l 322 -290 l 322 -121 z "},"ﭘ":{"ha":554,"x_min":-28,"x_max":525,"o":"m 0 0 l 0 182 l 374 182 l 244 75 l 244 699 l 457 699 l 457 0 l 0 0 m 0 0 q -13 6 -8 0 q -21 24 -18 13 q -26 53 -24 36 q -28 92 -28 71 q -25 140 -28 119 q -16 171 -22 160 q 0 182 -10 182 l 0 0 m 194 -362 l 376 -362 l 376 -510 l 194 -510 l 194 -362 m 47 -140 l 251 -140 l 251 -311 l 47 -311 l 47 -140 m 321 -140 l 525 -140 l 525 -311 l 321 -311 l 321 -140 z "},"ﯩ":{"ha":503,"x_min":-28,"x_max":531,"o":"m 357 0 l 357 182 l 503 182 l 503 0 l 357 0 m 0 0 q -13 6 -8 0 q -21 24 -18 13 q -26 53 -24 36 q -28 92 -28 71 q -25 140 -28 119 q -16 171 -22 160 q 0 182 -10 182 l 0 0 m 0 0 l 0 182 l 274 182 l 144 75 l 144 699 l 357 699 l 357 0 l 0 0 m 503 0 l 503 182 q 515 176 510 182 q 524 158 521 169 q 528 129 526 146 q 531 92 531 113 q 528 53 531 71 q 524 24 526 36 q 515 6 521 13 q 503 0 510 0 z "},"ﯨ":{"ha":456,"x_min":-28,"x_max":357,"o":"m 0 0 l 0 182 l 274 182 l 144 75 l 144 699 l 357 699 l 357 0 l 0 0 m 0 0 q -12 6 -7 0 q -21 24 -18 13 q -26 53 -24 36 q -28 92 -28 71 q -25 140 -28 119 q -16 171 -22 160 q 0 182 -10 182 l 0 0 z "},"ت":{"ha":1097,"x_min":56,"x_max":1111,"o":"m 528 0 q 269 41 375 0 q 110 163 164 82 q 56 361 56 243 q 60 431 56 394 q 69 500 64 467 q 81 559 75 533 q 89 599 86 585 l 296 558 q 285 504 292 538 q 273 434 278 471 q 268 364 268 397 q 286 274 268 310 q 339 218 304 239 q 424 190 374 197 q 540 182 475 182 l 899 182 l 899 699 l 1111 699 l 1111 0 l 528 0 m 372 633 l 372 803 l 586 803 l 586 633 l 372 633 m 563 633 l 563 803 l 776 803 l 776 633 l 563 633 z "},"ﺖ":{"ha":1135,"x_min":56,"x_max":1285,"o":"m 1111 0 l 1111 182 l 1257 182 l 1257 0 l 1111 0 m 528 0 q 269 41 375 0 q 110 163 164 82 q 56 361 56 243 q 60 431 56 394 q 69 500 64 467 q 81 559 75 533 q 89 599 86 585 l 296 558 q 285 504 292 538 q 273 434 278 471 q 268 364 268 397 q 286 274 268 310 q 339 218 304 239 q 424 190 374 197 q 540 182 475 182 l 899 182 l 899 699 l 1111 699 l 1111 0 l 528 0 m 1257 0 l 1257 182 q 1269 176 1264 182 q 1278 158 1275 169 q 1283 129 1281 146 q 1285 92 1285 113 q 1283 53 1285 71 q 1278 24 1281 36 q 1269 6 1275 13 q 1257 0 1264 0 m 372 633 l 372 803 l 586 803 l 586 633 l 372 633 m 563 633 l 563 803 l 776 803 l 776 633 l 563 633 z "},"ﺘ":{"ha":408,"x_min":-28,"x_max":665,"o":"m 457 0 l 457 182 l 638 182 l 638 0 l 457 0 m 638 0 l 638 182 q 651 176 646 182 q 659 158 656 169 q 664 129 663 146 q 665 92 665 113 q 664 53 665 71 q 659 24 663 36 q 651 6 656 13 q 638 0 646 0 m 0 0 q -13 6 -8 0 q -21 24 -18 13 q -26 53 -24 36 q -28 92 -28 71 q -25 140 -28 119 q -16 171 -22 160 q 0 182 -10 182 l 0 0 m 0 0 l 0 182 l 374 182 l 244 75 l 244 699 l 457 699 l 457 0 l 0 0 m 56 768 l 56 938 l 269 938 l 269 768 l 56 768 m 246 768 l 246 938 l 460 938 l 460 768 l 246 768 z "},"ﺗ":{"ha":371,"x_min":-28,"x_max":460,"o":"m 0 0 l 0 182 l 374 182 l 244 75 l 244 699 l 457 699 l 457 0 l 0 0 m 0 0 q -12 6 -7 0 q -21 24 -18 13 q -26 53 -24 36 q -28 92 -28 71 q -25 140 -28 119 q -16 171 -22 160 q 0 182 -10 182 l 0 0 m 56 768 l 56 938 l 269 938 l 269 768 l 56 768 m 246 768 l 246 938 l 460 938 l 460 768 l 246 768 z "},"ث":{"ha":1188,"x_min":56,"x_max":1111,"o":"m 528 0 q 269 41 375 0 q 110 163 164 82 q 56 361 56 243 q 60 431 56 394 q 69 500 64 467 q 81 559 75 533 q 89 599 86 585 l 296 558 q 285 504 292 538 q 273 434 278 471 q 268 364 268 397 q 286 274 268 310 q 339 218 304 239 q 424 190 374 197 q 540 182 475 182 l 899 182 l 899 699 l 1111 699 l 1111 0 l 528 0 m 494 964 l 494 1111 l 676 1111 l 676 964 l 494 964 m 347 743 l 347 913 l 550 913 l 550 743 l 347 743 m 621 743 l 621 913 l 824 913 l 824 743 l 621 743 z "},"ﺚ":{"ha":1257,"x_min":56,"x_max":1285,"o":"m 1111 0 l 1111 182 l 1257 182 l 1257 0 l 1111 0 m 528 0 q 269 41 375 0 q 110 163 164 82 q 56 361 56 243 q 60 431 56 394 q 69 500 64 467 q 81 559 75 533 q 89 599 86 585 l 296 558 q 285 504 292 538 q 273 434 278 471 q 268 364 268 397 q 286 274 268 310 q 339 218 304 239 q 424 190 374 197 q 540 182 475 182 l 899 182 l 899 699 l 1111 699 l 1111 0 l 528 0 m 1257 0 l 1257 182 q 1269 176 1264 182 q 1278 158 1275 169 q 1283 129 1281 146 q 1285 92 1285 113 q 1283 53 1285 71 q 1278 24 1281 36 q 1269 6 1275 13 q 1257 0 1264 0 m 494 964 l 494 1111 l 676 1111 l 676 964 l 494 964 m 347 743 l 347 913 l 550 913 l 550 743 l 347 743 m 621 743 l 621 913 l 824 913 l 824 743 l 621 743 z "},"ﺜ":{"ha":638,"x_min":-28,"x_max":665,"o":"m 457 0 l 457 182 l 638 182 l 638 0 l 457 0 m 638 0 l 638 182 q 651 176 646 182 q 659 158 656 169 q 664 129 663 146 q 665 92 665 113 q 664 53 665 71 q 659 24 663 36 q 651 6 656 13 q 638 0 646 0 m 0 0 q -13 6 -8 0 q -21 24 -18 13 q -26 53 -24 36 q -28 92 -28 71 q -25 140 -28 119 q -16 171 -22 160 q 0 182 -10 182 l 0 0 m 0 0 l 0 182 l 374 182 l 244 75 l 244 699 l 457 699 l 457 0 l 0 0 m 261 1049 l 261 1196 l 443 1196 l 443 1049 l 261 1049 m 114 828 l 114 997 l 317 997 l 317 828 l 114 828 m 388 828 l 388 997 l 590 997 l 590 828 l 388 828 z "},"ﺛ":{"ha":563,"x_min":-28,"x_max":590,"o":"m 0 0 l 0 182 l 374 182 l 244 75 l 244 699 l 457 699 l 457 0 l 0 0 m 0 0 q -12 6 -7 0 q -21 24 -18 13 q -26 53 -24 36 q -28 92 -28 71 q -25 140 -28 119 q -16 171 -22 160 q 0 182 -10 182 l 0 0 m 261 1049 l 261 1196 l 443 1196 l 443 1049 l 261 1049 m 114 828 l 114 997 l 317 997 l 317 828 l 114 828 m 388 828 l 388 997 l 590 997 l 590 828 l 388 828 z "},"ٹ":{"ha":1188,"x_min":56,"x_max":1111,"o":"m 528 0 q 269 41 375 0 q 110 163 164 82 q 56 361 56 243 q 60 431 56 394 q 69 500 64 467 q 81 559 75 533 q 89 599 86 585 l 296 558 q 285 504 292 538 q 273 434 278 471 q 268 364 268 397 q 286 274 268 310 q 339 218 304 239 q 424 190 374 197 q 540 182 475 182 l 899 182 l 899 699 l 1111 699 l 1111 0 l 528 0 m 418 864 q 441 947 418 911 q 503 1005 464 983 q 590 1026 543 1026 q 677 1005 638 1026 q 740 947 717 983 q 763 864 763 911 l 668 864 q 646 917 668 894 q 590 939 624 939 q 547 928 568 939 q 512 902 525 918 q 499 864 499 886 l 418 864 m 376 778 l 376 864 l 763 864 l 763 778 l 376 778 m 418 864 l 418 1088 l 513 1088 l 513 864 l 418 864 z "},"ﭧ":{"ha":1257,"x_min":56,"x_max":1285,"o":"m 1111 0 l 1111 182 l 1257 182 l 1257 0 l 1111 0 m 528 0 q 269 41 375 0 q 110 163 164 82 q 56 361 56 243 q 60 431 56 394 q 69 500 64 467 q 81 559 75 533 q 89 599 86 585 l 296 558 q 285 504 292 538 q 273 434 278 471 q 268 364 268 397 q 286 274 268 310 q 339 218 304 239 q 424 190 374 197 q 540 182 475 182 l 899 182 l 899 699 l 1111 699 l 1111 0 l 528 0 m 1257 0 l 1257 182 q 1269 176 1264 182 q 1278 158 1275 169 q 1283 129 1281 146 q 1285 92 1285 113 q 1283 53 1285 71 q 1278 24 1281 36 q 1269 6 1275 13 q 1257 0 1264 0 m 418 864 q 441 947 418 911 q 503 1005 464 983 q 590 1026 543 1026 q 677 1005 638 1026 q 740 947 717 983 q 763 864 763 911 l 668 864 q 646 917 668 894 q 590 939 624 939 q 547 928 568 939 q 512 902 525 918 q 499 864 499 886 l 418 864 m 376 778 l 376 864 l 763 864 l 763 778 l 376 778 m 418 864 l 418 1088 l 513 1088 l 513 864 l 418 864 z "},"ﭩ":{"ha":503,"x_min":-28,"x_max":531,"o":"m 357 0 l 357 182 l 503 182 l 503 0 l 357 0 m 0 0 q -13 6 -8 0 q -21 24 -18 13 q -26 53 -24 36 q -28 92 -28 71 q -25 140 -28 119 q -16 171 -22 160 q 0 182 -10 182 l 0 0 m 0 0 l 0 182 l 274 182 l 144 75 l 144 699 l 357 699 l 357 0 l 0 0 m 503 0 l 503 182 q 515 176 510 182 q 524 158 521 169 q 528 129 526 146 q 531 92 531 113 q 528 53 531 71 q 524 24 526 36 q 515 6 521 13 q 503 0 510 0 m 100 913 q 123 996 100 960 q 185 1053 146 1032 q 272 1075 225 1075 q 359 1053 319 1075 q 422 996 399 1032 q 444 913 444 960 l 350 913 q 328 965 350 943 q 272 988 306 988 q 228 977 250 988 q 194 951 207 967 q 181 913 181 935 l 100 913 m 58 826 l 58 913 l 444 913 l 444 826 l 58 826 m 100 913 l 100 1136 l 194 1136 l 194 913 l 100 913 z "},"ﭨ":{"ha":547,"x_min":-28,"x_max":465,"o":"m 0 0 l 0 182 l 374 182 l 244 75 l 244 699 l 457 699 l 457 0 l 0 0 m 0 0 q -12 6 -7 0 q -21 24 -18 13 q -26 53 -24 36 q -28 92 -28 71 q -25 140 -28 119 q -16 171 -22 160 q 0 182 -10 182 l 0 0 m 121 931 q 144 1014 121 978 q 206 1072 167 1050 q 293 1093 246 1093 q 380 1072 340 1093 q 442 1014 419 1050 q 465 931 465 978 l 371 931 q 349 983 371 961 q 293 1006 326 1006 q 249 995 271 1006 q 215 969 228 985 q 201 931 201 953 l 121 931 m 79 844 l 79 931 l 465 931 l 465 844 l 79 844 m 121 931 l 121 1154 l 215 1154 l 215 931 l 121 931 z "},"ج":{"ha":864,"x_min":56,"x_max":781,"o":"m 535 -242 l 535 -110 l 676 -110 l 676 -242 l 535 -242 m 446 -451 q 241 -413 329 -451 q 104 -304 153 -375 q 56 -135 56 -233 q 104 35 56 -36 q 241 144 153 106 q 446 182 329 182 l 568 182 l 568 350 q 517 473 568 431 q 356 515 467 515 q 268 510 322 515 q 146 496 214 506 l 125 661 q 253 688 190 678 q 378 699 317 699 q 586 656 496 699 q 728 537 676 614 q 781 350 781 460 l 781 0 l 446 0 q 310 -33 353 0 q 268 -135 268 -67 q 310 -236 268 -203 q 446 -269 353 -269 q 480 -268 461 -269 q 525 -264 499 -267 l 533 -443 q 491 -449 514 -447 q 446 -451 468 -451 z "},"ﺞ":{"ha":925,"x_min":56,"x_max":953,"o":"m 535 -235 l 535 -103 l 676 -103 l 676 -235 l 535 -235 m 925 0 l 925 182 q 938 176 932 182 q 946 158 943 169 q 951 129 949 146 q 953 92 953 113 q 951 53 953 71 q 946 24 949 36 q 938 6 943 13 q 925 0 932 0 m 446 -451 q 241 -413 329 -451 q 104 -304 153 -375 q 56 -135 56 -233 q 104 35 56 -36 q 241 144 153 106 q 446 182 329 182 l 568 182 l 568 350 q 517 473 568 431 q 356 515 467 515 q 268 510 322 515 q 146 496 214 506 l 125 661 q 253 688 190 678 q 378 699 317 699 q 586 656 496 699 q 728 537 676 614 q 781 350 781 460 l 781 0 l 446 0 q 310 -33 353 0 q 268 -135 268 -67 q 310 -236 268 -203 q 446 -269 353 -269 q 480 -268 461 -269 q 525 -264 499 -267 l 533 -443 q 491 -449 514 -447 q 446 -451 468 -451 m 781 0 l 781 182 l 925 182 l 925 0 l 781 0 z "},"ﺠ":{"ha":876,"x_min":-28,"x_max":904,"o":"m 731 0 l 731 182 l 876 182 l 876 0 l 731 0 m 0 0 q -12 6 -7 0 q -21 24 -18 13 q -26 53 -24 36 q -28 92 -28 71 q -25 140 -28 119 q -16 171 -22 160 q 0 182 -10 182 l 0 0 m 0 0 l 0 182 l 592 182 l 518 125 l 518 350 q 468 473 518 431 q 307 515 418 515 q 225 511 276 515 q 113 499 174 507 l 93 665 q 212 689 151 679 q 329 699 272 699 q 536 656 446 699 q 678 537 626 614 q 731 350 731 460 l 731 0 l 0 0 m 876 0 l 876 182 q 889 176 883 182 q 897 158 894 169 q 902 129 900 146 q 904 92 904 113 q 902 53 904 71 q 897 24 900 36 q 889 6 894 13 q 876 0 883 0 m 258 -311 l 258 -142 l 472 -142 l 472 -311 l 258 -311 z "},"ﺟ":{"ha":814,"x_min":-28,"x_max":731,"o":"m 0 0 l 0 182 l 592 182 l 518 125 l 518 350 q 468 473 518 431 q 307 515 418 515 q 225 511 276 515 q 113 499 174 507 l 93 665 q 212 689 151 679 q 329 699 272 699 q 536 656 446 699 q 678 537 626 614 q 731 350 731 460 l 731 0 l 0 0 m 0 0 q -12 6 -7 0 q -21 24 -18 13 q -26 53 -24 36 q -28 92 -28 71 q -25 140 -28 119 q -16 171 -22 160 q 0 182 -10 182 l 0 0 m 258 -311 l 258 -142 l 472 -142 l 472 -311 l 258 -311 z "},"چ":{"ha":864,"x_min":56,"x_max":781,"o":"m 538 -185 l 633 -185 l 633 -267 l 538 -267 l 538 -185 m 606 -65 l 713 -65 l 713 -157 l 606 -157 l 606 -65 m 460 -65 l 565 -65 l 565 -157 l 460 -157 l 460 -65 m 446 -451 q 241 -413 329 -451 q 104 -304 153 -375 q 56 -135 56 -233 q 104 35 56 -36 q 241 144 153 106 q 446 182 329 182 l 568 182 l 568 350 q 517 473 568 431 q 356 515 467 515 q 268 510 322 515 q 146 496 214 506 l 125 661 q 253 688 190 678 q 378 699 317 699 q 586 656 496 699 q 728 537 676 614 q 781 350 781 460 l 781 0 l 446 0 q 310 -33 353 0 q 268 -135 268 -67 q 310 -236 268 -203 q 446 -269 353 -269 q 480 -268 461 -269 q 525 -264 499 -267 l 533 -443 q 491 -449 514 -447 q 446 -451 468 -451 z "},"ﭻ":{"ha":925,"x_min":56,"x_max":953,"o":"m 538 -185 l 633 -185 l 633 -267 l 538 -267 l 538 -185 m 606 -65 l 713 -65 l 713 -157 l 606 -157 l 606 -65 m 460 -65 l 565 -65 l 565 -157 l 460 -157 l 460 -65 m 925 0 l 925 182 q 938 176 932 182 q 946 158 943 169 q 951 129 949 146 q 953 92 953 113 q 951 53 953 71 q 946 24 949 36 q 938 6 943 13 q 925 0 932 0 m 446 -451 q 241 -413 329 -451 q 104 -304 153 -375 q 56 -135 56 -233 q 104 35 56 -36 q 241 144 153 106 q 446 182 329 182 l 568 182 l 568 350 q 517 473 568 431 q 356 515 467 515 q 268 510 322 515 q 146 496 214 506 l 125 661 q 253 688 190 678 q 378 699 317 699 q 586 656 496 699 q 728 537 676 614 q 781 350 781 460 l 781 0 l 446 0 q 310 -33 353 0 q 268 -135 268 -67 q 310 -236 268 -203 q 446 -269 353 -269 q 480 -268 461 -269 q 525 -264 499 -267 l 533 -443 q 491 -449 514 -447 q 446 -451 468 -451 m 781 0 l 781 182 l 925 182 l 925 0 l 781 0 z "},"ﭽ":{"ha":876,"x_min":-28,"x_max":904,"o":"m 731 0 l 731 182 l 876 182 l 876 0 l 731 0 m 0 0 q -12 6 -7 0 q -21 24 -18 13 q -26 53 -24 36 q -28 92 -28 71 q -25 140 -28 119 q -16 171 -22 160 q 0 182 -10 182 l 0 0 m 0 0 l 0 182 l 592 182 l 518 125 l 518 350 q 468 473 518 431 q 307 515 418 515 q 225 511 276 515 q 113 499 174 507 l 93 665 q 212 689 151 679 q 329 699 272 699 q 536 656 446 699 q 678 537 626 614 q 731 350 731 460 l 731 0 l 0 0 m 876 0 l 876 182 q 889 176 883 182 q 897 158 894 169 q 902 129 900 146 q 904 92 904 113 q 902 53 904 71 q 897 24 900 36 q 889 6 894 13 q 876 0 883 0 m 275 -362 l 457 -362 l 457 -510 l 275 -510 l 275 -362 m 128 -140 l 331 -140 l 331 -311 l 128 -311 l 128 -140 m 401 -140 l 604 -140 l 604 -311 l 401 -311 l 401 -140 z "},"ﭼ":{"ha":814,"x_min":-28,"x_max":731,"o":"m 0 0 l 0 182 l 592 182 l 518 125 l 518 350 q 468 473 518 431 q 307 515 418 515 q 225 511 276 515 q 113 499 174 507 l 93 665 q 212 689 151 679 q 329 699 272 699 q 536 656 446 699 q 678 537 626 614 q 731 350 731 460 l 731 0 l 0 0 m 0 0 q -12 6 -7 0 q -21 24 -18 13 q -26 53 -24 36 q -28 92 -28 71 q -25 140 -28 119 q -16 171 -22 160 q 0 182 -10 182 l 0 0 m 275 -362 l 457 -362 l 457 -510 l 275 -510 l 275 -362 m 128 -140 l 331 -140 l 331 -311 l 128 -311 l 128 -140 m 401 -140 l 604 -140 l 604 -311 l 401 -311 l 401 -140 z "},"ح":{"ha":864,"x_min":56,"x_max":781,"o":"m 643 -254 l 675 -424 q 556 -444 613 -436 q 446 -451 499 -451 q 241 -413 329 -451 q 104 -304 153 -375 q 56 -135 56 -233 q 104 35 56 -36 q 241 144 153 106 q 446 182 329 182 l 568 182 l 568 0 l 446 0 q 310 -33 353 0 q 268 -135 268 -67 q 310 -236 268 -203 q 446 -269 353 -269 q 528 -266 479 -269 q 643 -254 576 -262 m 146 496 l 125 661 q 253 688 190 678 q 378 699 317 699 q 586 656 496 699 q 728 537 676 614 q 781 350 781 460 l 781 0 l 568 0 l 568 350 q 517 473 568 431 q 356 515 467 515 q 268 510 322 515 q 146 496 214 506 z "},"ﺢ":{"ha":925,"x_min":56,"x_max":953,"o":"m 781 0 l 781 182 l 925 182 l 925 0 l 781 0 m 643 -254 l 675 -424 q 556 -444 613 -436 q 446 -451 499 -451 q 241 -413 329 -451 q 104 -304 153 -375 q 56 -135 56 -233 q 104 35 56 -36 q 241 144 153 106 q 446 182 329 182 l 568 182 l 568 0 l 446 0 q 310 -33 353 0 q 268 -135 268 -67 q 310 -236 268 -203 q 446 -269 353 -269 q 528 -266 479 -269 q 643 -254 576 -262 m 146 496 l 125 661 q 253 688 190 678 q 378 699 317 699 q 586 656 496 699 q 728 537 676 614 q 781 350 781 460 l 781 0 l 568 0 l 568 350 q 517 473 568 431 q 356 515 467 515 q 268 510 322 515 q 146 496 214 506 m 925 0 l 925 182 q 938 176 932 182 q 946 158 943 169 q 951 129 949 146 q 953 92 953 113 q 951 53 953 71 q 946 24 949 36 q 938 6 943 13 q 925 0 932 0 z "},"ﺤ":{"ha":876,"x_min":-28,"x_max":904,"o":"m 731 0 l 731 182 l 876 182 l 876 0 l 731 0 m 0 0 q -12 6 -7 0 q -21 24 -18 13 q -26 53 -24 36 q -28 92 -28 71 q -25 140 -28 119 q -16 171 -22 160 q 0 182 -10 182 l 0 0 m 0 0 l 0 182 l 592 182 l 518 125 l 518 350 q 468 473 518 431 q 307 515 418 515 q 225 511 276 515 q 113 499 174 507 l 93 665 q 212 689 151 679 q 329 699 272 699 q 536 656 446 699 q 678 537 626 614 q 731 350 731 460 l 731 0 l 0 0 m 876 0 l 876 182 q 889 176 883 182 q 897 158 894 169 q 902 129 900 146 q 904 92 904 113 q 902 53 904 71 q 897 24 900 36 q 889 6 894 13 q 876 0 883 0 z "},"ﺣ":{"ha":814,"x_min":-28,"x_max":731,"o":"m 0 0 l 0 182 l 592 182 l 518 125 l 518 350 q 468 473 518 431 q 307 515 418 515 q 225 511 276 515 q 113 499 174 507 l 93 665 q 212 689 151 679 q 329 699 272 699 q 536 656 446 699 q 678 537 626 614 q 731 350 731 460 l 731 0 l 0 0 m 0 0 q -12 6 -7 0 q -21 24 -18 13 q -26 53 -24 36 q -28 92 -28 71 q -25 140 -28 119 q -16 171 -22 160 q 0 182 -10 182 l 0 0 z "},"خ":{"ha":864,"x_min":56,"x_max":781,"o":"m 643 -254 l 675 -424 q 556 -444 613 -436 q 446 -451 499 -451 q 241 -413 329 -451 q 104 -304 153 -375 q 56 -135 56 -233 q 104 35 56 -36 q 241 144 153 106 q 446 182 329 182 l 568 182 l 568 0 l 446 0 q 310 -33 353 0 q 268 -135 268 -67 q 310 -236 268 -203 q 446 -269 353 -269 q 528 -266 479 -269 q 643 -254 576 -262 m 146 496 l 125 661 q 253 688 190 678 q 378 699 317 699 q 586 656 496 699 q 728 537 676 614 q 781 350 781 460 l 781 0 l 568 0 l 568 350 q 517 473 568 431 q 356 515 467 515 q 268 510 322 515 q 146 496 214 506 m 271 815 l 271 985 l 485 985 l 485 815 l 271 815 z "},"ﺦ":{"ha":925,"x_min":56,"x_max":953,"o":"m 781 0 l 781 182 l 925 182 l 925 0 l 781 0 m 643 -254 l 675 -424 q 556 -444 613 -436 q 446 -451 499 -451 q 241 -413 329 -451 q 104 -304 153 -375 q 56 -135 56 -233 q 104 35 56 -36 q 241 144 153 106 q 446 182 329 182 l 568 182 l 568 0 l 446 0 q 310 -33 353 0 q 268 -135 268 -67 q 310 -236 268 -203 q 446 -269 353 -269 q 528 -266 479 -269 q 643 -254 576 -262 m 146 496 l 125 661 q 253 688 190 678 q 378 699 317 699 q 586 656 496 699 q 728 537 676 614 q 781 350 781 460 l 781 0 l 568 0 l 568 350 q 517 473 568 431 q 356 515 467 515 q 268 510 322 515 q 146 496 214 506 m 925 0 l 925 182 q 938 176 932 182 q 946 158 943 169 q 951 129 949 146 q 953 92 953 113 q 951 53 953 71 q 946 24 949 36 q 938 6 943 13 q 925 0 932 0 m 271 815 l 271 985 l 485 985 l 485 815 l 271 815 z "},"ﺨ":{"ha":876,"x_min":-28,"x_max":904,"o":"m 731 0 l 731 182 l 876 182 l 876 0 l 731 0 m 0 0 q -12 6 -7 0 q -21 24 -18 13 q -26 53 -24 36 q -28 92 -28 71 q -25 140 -28 119 q -16 171 -22 160 q 0 182 -10 182 l 0 0 m 0 0 l 0 182 l 592 182 l 518 125 l 518 350 q 468 473 518 431 q 307 515 418 515 q 225 511 276 515 q 113 499 174 507 l 93 665 q 212 689 151 679 q 329 699 272 699 q 536 656 446 699 q 678 537 626 614 q 731 350 731 460 l 731 0 l 0 0 m 876 0 l 876 182 q 889 176 883 182 q 897 158 894 169 q 902 129 900 146 q 904 92 904 113 q 902 53 904 71 q 897 24 900 36 q 889 6 894 13 q 876 0 883 0 m 222 813 l 222 982 l 436 982 l 436 813 l 222 813 z "},"ﺧ":{"ha":814,"x_min":-28,"x_max":731,"o":"m 0 0 l 0 182 l 592 182 l 518 125 l 518 350 q 468 473 518 431 q 307 515 418 515 q 225 511 276 515 q 113 499 174 507 l 93 665 q 212 689 151 679 q 329 699 272 699 q 536 656 446 699 q 678 537 626 614 q 731 350 731 460 l 731 0 l 0 0 m 0 0 q -12 6 -7 0 q -21 24 -18 13 q -26 53 -24 36 q -28 92 -28 71 q -25 140 -28 119 q -16 171 -22 160 q 0 182 -10 182 l 0 0 m 222 813 l 222 982 l 436 982 l 436 813 l 222 813 z "},"د":{"ha":694,"x_min":56,"x_max":629,"o":"m 56 0 l 56 182 l 556 182 l 417 63 l 417 272 q 397 421 417 368 q 333 495 378 474 q 211 517 289 517 l 99 517 l 99 699 l 211 699 q 439 654 346 699 q 581 516 532 610 q 629 272 629 422 l 629 0 l 56 0 z "},"ﺪ":{"ha":774,"x_min":56,"x_max":801,"o":"m 629 0 l 629 182 l 774 182 l 774 0 l 629 0 m 56 0 l 56 182 l 556 182 l 417 63 l 417 272 q 397 421 417 368 q 333 495 378 474 q 211 517 289 517 l 99 517 l 99 699 l 211 699 q 439 654 346 699 q 581 516 532 610 q 629 272 629 422 l 629 0 l 56 0 m 774 0 l 774 182 q 787 176 782 182 q 795 158 792 169 q 800 129 799 146 q 801 92 801 113 q 800 53 801 71 q 795 24 799 36 q 787 6 792 13 q 774 0 782 0 z "},"ذ":{"ha":694,"x_min":56,"x_max":629,"o":"m 56 0 l 56 182 l 556 182 l 417 63 l 417 272 q 397 421 417 368 q 333 495 378 474 q 211 517 289 517 l 99 517 l 99 699 l 211 699 q 439 654 346 699 q 581 516 532 610 q 629 272 629 422 l 629 0 l 56 0 m 115 828 l 115 997 l 329 997 l 329 828 l 115 828 z "},"ﺬ":{"ha":774,"x_min":56,"x_max":801,"o":"m 629 0 l 629 182 l 774 182 l 774 0 l 629 0 m 56 0 l 56 182 l 556 182 l 417 63 l 417 272 q 397 421 417 368 q 333 495 378 474 q 211 517 289 517 l 99 517 l 99 699 l 211 699 q 439 654 346 699 q 581 516 532 610 q 629 272 629 422 l 629 0 l 56 0 m 774 0 l 774 182 q 787 176 782 182 q 795 158 792 169 q 800 129 799 146 q 801 92 801 113 q 800 53 801 71 q 795 24 799 36 q 787 6 792 13 q 774 0 782 0 m 115 828 l 115 997 l 329 997 l 329 828 l 115 828 z "},"ڈ":{"ha":694,"x_min":56,"x_max":629,"o":"m 56 0 l 56 182 l 556 182 l 417 63 l 417 272 q 397 421 417 368 q 333 495 378 474 q 211 517 289 517 l 99 517 l 99 699 l 211 699 q 439 654 346 699 q 581 516 532 610 q 629 272 629 422 l 629 0 l 56 0 m 142 931 q 165 1014 142 978 q 227 1072 188 1050 q 314 1093 267 1093 q 401 1072 361 1093 q 463 1014 440 1050 q 486 931 486 978 l 392 931 q 369 983 392 961 q 314 1006 347 1006 q 270 995 292 1006 q 235 969 249 985 q 222 931 222 953 l 142 931 m 100 844 l 100 931 l 486 931 l 486 844 l 100 844 m 142 931 l 142 1154 l 236 1154 l 236 931 l 142 931 z "},"ﮉ":{"ha":774,"x_min":56,"x_max":801,"o":"m 629 0 l 629 182 l 774 182 l 774 0 l 629 0 m 56 0 l 56 182 l 556 182 l 417 63 l 417 272 q 397 421 417 368 q 333 495 378 474 q 211 517 289 517 l 99 517 l 99 699 l 211 699 q 439 654 346 699 q 581 516 532 610 q 629 272 629 422 l 629 0 l 56 0 m 774 0 l 774 182 q 787 176 782 182 q 795 158 792 169 q 800 129 799 146 q 801 92 801 113 q 800 53 801 71 q 795 24 799 36 q 787 6 792 13 q 774 0 782 0 m 142 933 q 165 1017 142 981 q 227 1074 188 1053 q 314 1096 267 1096 q 401 1074 361 1096 q 463 1017 440 1053 q 486 933 486 981 l 392 933 q 369 986 392 964 q 314 1008 347 1008 q 270 998 292 1008 q 235 972 249 988 q 222 933 222 956 l 142 933 m 100 847 l 100 933 l 486 933 l 486 847 l 100 847 m 142 933 l 142 1157 l 236 1157 l 236 933 l 142 933 z "},"ر":{"ha":476,"x_min":-18,"x_max":386,"o":"m 65 -358 q 28 -356 50 -358 q -18 -353 6 -354 l -11 -174 q 32 -175 11 -174 q 63 -176 53 -176 q 144 -136 114 -176 q 174 -19 174 -96 l 174 699 l 386 699 l 386 -19 q 346 -195 386 -118 q 233 -315 306 -272 q 65 -358 161 -358 z "},"ﺮ":{"ha":531,"x_min":-18,"x_max":558,"o":"m 351 0 l 351 182 l 531 182 l 531 0 l 351 0 m 65 -358 q 28 -356 50 -358 q -18 -353 6 -354 l -11 -174 q 32 -175 11 -174 q 63 -176 53 -176 q 144 -136 114 -176 q 174 -19 174 -96 l 174 699 l 386 699 l 386 -19 q 346 -195 386 -118 q 233 -315 306 -272 q 65 -358 161 -358 m 531 0 l 531 182 q 544 176 539 182 q 552 158 549 169 q 557 129 556 146 q 558 92 558 113 q 557 53 558 71 q 552 24 556 36 q 544 6 549 13 q 531 0 539 0 z "},"ز":{"ha":476,"x_min":-18,"x_max":388,"o":"m 65 -358 q 28 -356 50 -358 q -18 -353 6 -354 l -11 -174 q 32 -175 11 -174 q 63 -176 53 -176 q 144 -136 114 -176 q 174 -19 174 -96 l 174 699 l 386 699 l 386 -19 q 346 -195 386 -118 q 233 -315 306 -272 q 65 -358 161 -358 m 174 828 l 174 997 l 388 997 l 388 828 l 174 828 z "},"ﺰ":{"ha":531,"x_min":-18,"x_max":558,"o":"m 351 0 l 351 182 l 531 182 l 531 0 l 351 0 m 65 -358 q 28 -356 50 -358 q -18 -353 6 -354 l -11 -174 q 32 -175 11 -174 q 63 -176 53 -176 q 144 -136 114 -176 q 174 -19 174 -96 l 174 699 l 386 699 l 386 -19 q 346 -195 386 -118 q 233 -315 306 -272 q 65 -358 161 -358 m 531 0 l 531 182 q 544 176 539 182 q 552 158 549 169 q 557 129 556 146 q 558 92 558 113 q 557 53 558 71 q 552 24 556 36 q 544 6 549 13 q 531 0 539 0 m 174 828 l 174 997 l 388 997 l 388 828 l 174 828 z "},"ڑ":{"ha":476,"x_min":-18,"x_max":474,"o":"m 65 -358 q 28 -356 50 -358 q -18 -353 6 -354 l -11 -174 q 32 -175 11 -174 q 63 -176 53 -176 q 144 -136 114 -176 q 174 -19 174 -96 l 174 699 l 386 699 l 386 -19 q 346 -195 386 -118 q 233 -315 306 -272 q 65 -358 161 -358 m 129 931 q 152 1014 129 978 q 215 1072 175 1050 q 301 1093 254 1093 q 388 1072 349 1093 q 451 1014 428 1050 q 474 931 474 978 l 379 931 q 357 983 379 961 q 301 1006 335 1006 q 258 995 279 1006 q 223 969 236 985 q 210 931 210 953 l 129 931 m 88 844 l 88 931 l 474 931 l 474 844 l 88 844 m 129 931 l 129 1154 l 224 1154 l 224 931 l 129 931 z "},"ﮍ":{"ha":546,"x_min":-3,"x_max":574,"o":"m 367 0 l 367 182 l 546 182 l 546 0 l 367 0 m 81 -358 q 43 -356 65 -358 q -3 -353 21 -354 l 4 -174 q 47 -175 26 -174 q 78 -176 68 -176 q 159 -136 129 -176 q 189 -19 189 -96 l 189 699 l 401 699 l 401 -19 q 361 -195 401 -118 q 249 -315 321 -272 q 81 -358 176 -358 m 546 0 l 546 182 q 559 176 554 182 q 567 158 564 169 q 572 129 571 146 q 574 92 574 113 q 572 53 574 71 q 567 24 571 36 q 559 6 564 13 q 546 0 554 0 m 144 931 q 167 1014 144 978 q 230 1072 190 1050 q 317 1093 269 1093 q 403 1072 364 1093 q 466 1014 443 1050 q 489 931 489 978 l 394 931 q 372 983 394 961 q 317 1006 350 1006 q 273 995 294 1006 q 238 969 251 985 q 225 931 225 953 l 144 931 m 103 844 l 103 931 l 489 931 l 489 844 l 103 844 m 144 931 l 144 1154 l 239 1154 l 239 931 l 144 931 z "},"ژ":{"ha":476,"x_min":-18,"x_max":519,"o":"m 65 -358 q 28 -356 50 -358 q -18 -353 6 -354 l -11 -174 q 32 -175 11 -174 q 63 -176 53 -176 q 144 -136 114 -176 q 174 -19 174 -96 l 174 699 l 386 699 l 386 -19 q 346 -195 386 -118 q 233 -315 306 -272 q 65 -358 161 -358 m 190 1049 l 190 1196 l 372 1196 l 372 1049 l 190 1049 m 43 828 l 43 997 l 246 997 l 246 828 l 43 828 m 317 828 l 317 997 l 519 997 l 519 828 l 317 828 z "},"ﮋ":{"ha":531,"x_min":-18,"x_max":558,"o":"m 351 0 l 351 182 l 531 182 l 531 0 l 351 0 m 65 -358 q 28 -356 50 -358 q -18 -353 6 -354 l -11 -174 q 32 -175 11 -174 q 63 -176 53 -176 q 144 -136 114 -176 q 174 -19 174 -96 l 174 699 l 386 699 l 386 -19 q 346 -195 386 -118 q 233 -315 306 -272 q 65 -358 161 -358 m 531 0 l 531 182 q 544 176 539 182 q 552 158 549 169 q 557 129 556 146 q 558 92 558 113 q 557 53 558 71 q 552 24 556 36 q 544 6 549 13 q 531 0 539 0 m 190 1049 l 190 1196 l 372 1196 l 372 1049 l 190 1049 m 43 828 l 43 997 l 246 997 l 246 828 l 43 828 m 317 828 l 317 997 l 519 997 l 519 828 l 317 828 z "},"س":{"ha":1815,"x_min":56,"x_max":1732,"o":"m 485 -344 q 264 -299 361 -344 q 111 -175 167 -254 q 56 6 56 -96 q 60 78 56 33 q 71 179 64 124 q 87 294 78 235 q 104 408 96 353 l 314 381 q 290 212 300 288 q 274 84 279 136 q 268 7 268 32 q 293 -83 268 -44 q 367 -142 318 -121 q 485 -162 415 -162 q 601 -141 558 -162 q 663 -84 644 -119 q 681 -4 681 -49 l 681 556 l 893 556 l 893 -4 q 840 -183 893 -107 q 695 -302 788 -260 q 485 -344 603 -344 m 890 0 l 893 182 l 992 182 q 1058 195 1035 182 q 1091 249 1082 208 q 1100 374 1100 290 l 1100 625 l 1313 625 l 1313 374 q 1278 160 1313 243 q 1172 39 1243 78 q 992 0 1101 0 l 890 0 m 1371 0 q 1251 23 1310 0 q 1140 90 1192 46 l 1269 224 q 1319 192 1294 203 q 1371 182 1344 182 l 1636 182 l 1519 79 l 1519 381 q 1515 447 1519 401 q 1501 549 1510 492 q 1481 667 1492 607 l 1690 699 q 1709 586 1700 649 q 1725 468 1718 524 q 1732 381 1732 413 l 1732 0 l 1371 0 z "},"ﺲ":{"ha":1876,"x_min":56,"x_max":1904,"o":"m 1732 0 l 1732 182 l 1876 182 l 1876 0 l 1732 0 m 485 -344 q 264 -299 361 -344 q 111 -175 167 -254 q 56 6 56 -96 q 60 78 56 33 q 71 179 64 124 q 87 294 78 235 q 104 408 96 353 l 314 381 q 290 212 300 288 q 274 84 279 136 q 268 7 268 32 q 293 -83 268 -44 q 367 -142 318 -121 q 485 -162 415 -162 q 601 -141 558 -162 q 663 -84 644 -119 q 681 -4 681 -49 l 681 556 l 893 556 l 893 -4 q 840 -183 893 -107 q 695 -302 788 -260 q 485 -344 603 -344 m 890 0 l 893 182 l 992 182 q 1058 195 1035 182 q 1091 249 1082 208 q 1100 374 1100 290 l 1100 625 l 1313 625 l 1313 374 q 1278 160 1313 243 q 1172 39 1243 78 q 992 0 1101 0 l 890 0 m 1371 0 q 1251 23 1310 0 q 1140 90 1192 46 l 1269 224 q 1319 192 1294 203 q 1371 182 1344 182 l 1636 182 l 1519 79 l 1519 381 q 1515 447 1519 401 q 1501 549 1510 492 q 1481 667 1492 607 l 1690 699 q 1709 586 1700 649 q 1725 468 1718 524 q 1732 381 1732 413 l 1732 0 l 1371 0 m 1876 0 l 1876 182 q 1890 176 1885 182 q 1898 158 1894 169 q 1903 129 1901 146 q 1904 92 1904 113 q 1903 53 1904 71 q 1898 24 1901 36 q 1890 6 1894 13 q 1876 0 1885 0 z "},"ﺴ":{"ha":1353,"x_min":-28,"x_max":1381,"o":"m 1208 0 l 1208 182 l 1353 182 l 1353 0 l 1208 0 m 0 0 q -12 6 -7 0 q -21 24 -18 13 q -26 53 -24 36 q -28 92 -28 71 q -25 140 -28 119 q -16 171 -22 160 q 0 182 -10 182 l 0 0 m 846 0 q 726 23 785 0 q 617 90 667 46 l 746 224 q 796 192 771 203 q 846 182 821 182 l 1111 182 l 996 79 l 996 381 q 991 447 996 401 q 977 549 986 492 q 957 667 968 607 l 1165 699 q 1185 586 1175 649 q 1201 468 1194 524 q 1208 381 1208 413 l 1208 0 l 846 0 m 0 0 l 0 182 l 201 182 l 157 135 l 157 556 l 369 556 l 369 0 l 0 0 m 369 0 l 369 182 l 468 182 q 534 195 511 182 q 566 249 557 208 q 575 374 575 290 l 575 625 l 788 625 l 788 374 q 753 160 788 243 q 648 39 718 78 q 468 0 578 0 l 369 0 m 1353 0 l 1353 182 q 1365 176 1360 182 q 1374 158 1371 169 q 1378 129 1376 146 q 1381 92 1381 113 q 1378 53 1381 71 q 1374 24 1376 36 q 1365 6 1371 13 q 1353 0 1360 0 z "},"ﺳ":{"ha":1301,"x_min":-28,"x_max":1208,"o":"m 846 0 q 726 23 785 0 q 617 90 667 46 l 746 224 q 796 192 771 203 q 846 182 821 182 l 1111 182 l 996 79 l 996 381 q 991 447 996 401 q 977 549 986 492 q 957 667 968 607 l 1165 699 q 1185 586 1175 649 q 1201 468 1194 524 q 1208 381 1208 413 l 1208 0 l 846 0 m 0 0 l 0 182 l 201 182 l 157 135 l 157 556 l 369 556 l 369 0 l 0 0 m 369 0 l 369 182 l 468 182 q 534 195 511 182 q 566 249 557 208 q 575 374 575 290 l 575 625 l 788 625 l 788 374 q 753 160 788 243 q 648 39 718 78 q 468 0 578 0 l 369 0 m 0 0 q -12 6 -7 0 q -21 24 -18 13 q -26 53 -24 36 q -28 92 -28 71 q -25 140 -28 119 q -16 171 -22 160 q 0 182 -10 182 l 0 0 z "},"ش":{"ha":1815,"x_min":56,"x_max":1732,"o":"m 485 -344 q 264 -299 361 -344 q 111 -175 167 -254 q 56 6 56 -96 q 60 78 56 33 q 71 179 64 124 q 87 294 78 235 q 104 408 96 353 l 314 381 q 290 212 300 288 q 274 84 279 136 q 268 7 268 32 q 293 -83 268 -44 q 367 -142 318 -121 q 485 -162 415 -162 q 601 -141 558 -162 q 663 -84 644 -119 q 681 -4 681 -49 l 681 556 l 893 556 l 893 -4 q 840 -183 893 -107 q 695 -302 788 -260 q 485 -344 603 -344 m 890 0 l 893 182 l 992 182 q 1058 195 1035 182 q 1091 249 1082 208 q 1100 374 1100 290 l 1100 625 l 1313 625 l 1313 374 q 1278 160 1313 243 q 1172 39 1243 78 q 992 0 1101 0 l 890 0 m 1371 0 q 1251 23 1310 0 q 1140 90 1192 46 l 1269 224 q 1319 192 1294 203 q 1371 182 1344 182 l 1636 182 l 1519 79 l 1519 381 q 1515 447 1519 401 q 1501 549 1510 492 q 1481 667 1492 607 l 1690 699 q 1709 586 1700 649 q 1725 468 1718 524 q 1732 381 1732 413 l 1732 0 l 1371 0 m 1117 1049 l 1117 1196 l 1299 1196 l 1299 1049 l 1117 1049 m 969 828 l 969 997 l 1172 997 l 1172 828 l 969 828 m 1243 828 l 1243 997 l 1446 997 l 1446 828 l 1243 828 z "},"ﺶ":{"ha":1876,"x_min":56,"x_max":1904,"o":"m 1732 0 l 1732 182 l 1876 182 l 1876 0 l 1732 0 m 485 -344 q 264 -299 361 -344 q 111 -175 167 -254 q 56 6 56 -96 q 60 78 56 33 q 71 179 64 124 q 87 294 78 235 q 104 408 96 353 l 314 381 q 290 212 300 288 q 274 84 279 136 q 268 7 268 32 q 293 -83 268 -44 q 367 -142 318 -121 q 485 -162 415 -162 q 601 -141 558 -162 q 663 -84 644 -119 q 681 -4 681 -49 l 681 556 l 893 556 l 893 -4 q 840 -183 893 -107 q 695 -302 788 -260 q 485 -344 603 -344 m 890 0 l 893 182 l 992 182 q 1058 195 1035 182 q 1091 249 1082 208 q 1100 374 1100 290 l 1100 625 l 1313 625 l 1313 374 q 1278 160 1313 243 q 1172 39 1243 78 q 992 0 1101 0 l 890 0 m 1371 0 q 1251 23 1310 0 q 1140 90 1192 46 l 1269 224 q 1319 192 1294 203 q 1371 182 1344 182 l 1636 182 l 1519 79 l 1519 381 q 1515 447 1519 401 q 1501 549 1510 492 q 1481 667 1492 607 l 1690 699 q 1709 586 1700 649 q 1725 468 1718 524 q 1732 381 1732 413 l 1732 0 l 1371 0 m 1876 0 l 1876 182 q 1890 176 1885 182 q 1898 158 1894 169 q 1903 129 1901 146 q 1904 92 1904 113 q 1903 53 1904 71 q 1898 24 1901 36 q 1890 6 1894 13 q 1876 0 1885 0 m 1117 1049 l 1117 1196 l 1299 1196 l 1299 1049 l 1117 1049 m 969 828 l 969 997 l 1172 997 l 1172 828 l 969 828 m 1243 828 l 1243 997 l 1446 997 l 1446 828 l 1243 828 z "},"ﺸ":{"ha":1353,"x_min":-28,"x_max":1381,"o":"m 1208 0 l 1208 182 l 1353 182 l 1353 0 l 1208 0 m 0 0 q -12 6 -7 0 q -21 24 -18 13 q -26 53 -24 36 q -28 92 -28 71 q -25 140 -28 119 q -16 171 -22 160 q 0 182 -10 182 l 0 0 m 846 0 q 726 23 785 0 q 617 90 667 46 l 746 224 q 796 192 771 203 q 846 182 821 182 l 1111 182 l 996 79 l 996 381 q 991 447 996 401 q 977 549 986 492 q 957 667 968 607 l 1165 699 q 1185 586 1175 649 q 1201 468 1194 524 q 1208 381 1208 413 l 1208 0 l 846 0 m 0 0 l 0 182 l 201 182 l 157 135 l 157 556 l 369 556 l 369 0 l 0 0 m 369 0 l 369 182 l 468 182 q 534 195 511 182 q 566 249 557 208 q 575 374 575 290 l 575 625 l 788 625 l 788 374 q 753 160 788 243 q 648 39 718 78 q 468 0 578 0 l 369 0 m 1353 0 l 1353 182 q 1365 176 1360 182 q 1374 158 1371 169 q 1378 129 1376 146 q 1381 92 1381 113 q 1378 53 1381 71 q 1374 24 1376 36 q 1365 6 1371 13 q 1353 0 1360 0 m 592 1049 l 592 1196 l 774 1196 l 774 1049 l 592 1049 m 444 828 l 444 997 l 647 997 l 647 828 l 444 828 m 718 828 l 718 997 l 921 997 l 921 828 l 718 828 z "},"ﺷ":{"ha":1301,"x_min":-28,"x_max":1208,"o":"m 846 0 q 726 23 785 0 q 617 90 667 46 l 746 224 q 796 192 771 203 q 846 182 821 182 l 1111 182 l 996 79 l 996 381 q 991 447 996 401 q 977 549 986 492 q 957 667 968 607 l 1165 699 q 1185 586 1175 649 q 1201 468 1194 524 q 1208 381 1208 413 l 1208 0 l 846 0 m 0 0 l 0 182 l 201 182 l 157 135 l 157 556 l 369 556 l 369 0 l 0 0 m 369 0 l 369 182 l 468 182 q 534 195 511 182 q 566 249 557 208 q 575 374 575 290 l 575 625 l 788 625 l 788 374 q 753 160 788 243 q 648 39 718 78 q 468 0 578 0 l 369 0 m 0 0 q -12 6 -7 0 q -21 24 -18 13 q -26 53 -24 36 q -28 92 -28 71 q -25 140 -28 119 q -16 171 -22 160 q 0 182 -10 182 l 0 0 m 592 1049 l 592 1196 l 774 1196 l 774 1049 l 592 1049 m 444 828 l 444 997 l 647 997 l 647 828 l 444 828 m 718 828 l 718 997 l 921 997 l 921 828 l 718 828 z "},"ص":{"ha":1700,"x_min":56,"x_max":1607,"o":"m 485 -344 q 264 -299 361 -344 q 111 -175 167 -254 q 56 6 56 -96 q 60 78 56 33 q 71 179 64 124 q 87 294 78 235 q 104 408 96 353 l 314 381 q 290 212 300 288 q 274 84 279 136 q 268 7 268 32 q 293 -83 268 -44 q 367 -142 318 -121 q 485 -162 415 -162 q 601 -141 558 -162 q 663 -84 644 -119 q 681 -4 681 -49 l 681 699 l 893 699 l 893 -4 q 840 -183 893 -107 q 695 -302 788 -260 q 485 -344 603 -344 m 890 0 l 893 182 l 1571 182 l 1394 31 l 1394 311 q 1374 431 1394 386 q 1318 496 1354 475 q 1232 517 1282 517 q 1119 492 1172 517 q 1019 428 1065 467 q 933 344 972 389 q 863 260 893 300 q 814 196 833 219 l 769 340 q 875 473 829 415 q 961 573 921 531 q 1044 643 1001 615 q 1138 685 1086 671 q 1258 699 1189 699 q 1415 668 1349 699 q 1523 583 1481 638 q 1586 459 1565 529 q 1607 311 1607 389 l 1607 0 l 890 0 z "},"ﺺ":{"ha":1751,"x_min":56,"x_max":1779,"o":"m 1607 0 l 1607 182 l 1751 182 l 1751 0 l 1607 0 m 485 -344 q 264 -299 361 -344 q 111 -175 167 -254 q 56 6 56 -96 q 60 78 56 33 q 71 179 64 124 q 87 294 78 235 q 104 408 96 353 l 314 381 q 290 212 300 288 q 274 84 279 136 q 268 7 268 32 q 293 -83 268 -44 q 367 -142 318 -121 q 485 -162 415 -162 q 601 -141 558 -162 q 663 -84 644 -119 q 681 -4 681 -49 l 681 699 l 893 699 l 893 -4 q 840 -183 893 -107 q 695 -302 788 -260 q 485 -344 603 -344 m 890 0 l 893 182 l 1571 182 l 1394 31 l 1394 311 q 1374 431 1394 386 q 1318 496 1354 475 q 1232 517 1282 517 q 1119 492 1172 517 q 1019 428 1065 467 q 933 344 972 389 q 863 260 893 300 q 814 196 833 219 l 769 340 q 875 473 829 415 q 961 573 921 531 q 1044 643 1001 615 q 1138 685 1086 671 q 1258 699 1189 699 q 1415 668 1349 699 q 1523 583 1481 638 q 1586 459 1565 529 q 1607 311 1607 389 l 1607 0 l 890 0 m 1751 0 l 1751 182 q 1765 176 1760 182 q 1773 158 1769 169 q 1778 129 1776 146 q 1779 92 1779 113 q 1778 53 1779 71 q 1773 24 1776 36 q 1765 6 1769 13 q 1751 0 1760 0 z "},"ﺼ":{"ha":1239,"x_min":-28,"x_max":1267,"o":"m 1094 0 l 1094 182 l 1239 182 l 1239 0 l 1094 0 m 0 0 q -12 6 -7 0 q -21 24 -18 13 q -26 53 -24 36 q -28 92 -28 71 q -25 140 -28 119 q -16 171 -22 160 q 0 182 -10 182 l 0 0 m 0 0 l 0 182 l 1058 182 l 882 31 l 882 311 q 862 431 882 386 q 806 496 842 475 q 719 517 769 517 q 606 492 660 517 q 506 428 553 467 q 420 344 460 389 q 351 260 381 300 q 300 196 321 219 l 257 340 q 363 473 317 415 q 449 573 408 531 q 531 643 489 615 q 625 685 574 671 q 746 699 676 699 q 902 668 836 699 q 1010 583 968 638 q 1074 459 1053 529 q 1094 311 1094 389 l 1094 0 l 0 0 m 168 182 l 168 699 l 381 699 l 381 182 l 168 182 m 1239 0 l 1239 182 q 1251 176 1246 182 q 1260 158 1257 169 q 1265 129 1263 146 q 1267 92 1267 113 q 1265 53 1267 71 q 1260 24 1263 36 q 1251 6 1257 13 q 1239 0 1246 0 z "},"ﺻ":{"ha":1188,"x_min":-28,"x_max":1094,"o":"m 0 0 l 0 182 l 1058 182 l 882 31 l 882 311 q 862 431 882 386 q 806 496 842 475 q 719 517 769 517 q 606 492 660 517 q 506 428 553 467 q 420 344 460 389 q 351 260 381 300 q 300 196 321 219 l 257 340 q 363 473 317 415 q 449 573 408 531 q 531 643 489 615 q 625 685 574 671 q 746 699 676 699 q 902 668 836 699 q 1010 583 968 638 q 1074 459 1053 529 q 1094 311 1094 389 l 1094 0 l 0 0 m 168 182 l 168 699 l 381 699 l 381 182 l 168 182 m 0 0 q -12 6 -7 0 q -21 24 -18 13 q -26 53 -24 36 q -28 92 -28 71 q -25 140 -28 119 q -16 171 -22 160 q 0 182 -10 182 l 0 0 z "},"ض":{"ha":1700,"x_min":56,"x_max":1607,"o":"m 485 -344 q 264 -299 361 -344 q 111 -175 167 -254 q 56 6 56 -96 q 60 78 56 33 q 71 179 64 124 q 87 294 78 235 q 104 408 96 353 l 314 381 q 290 212 300 288 q 274 84 279 136 q 268 7 268 32 q 293 -83 268 -44 q 367 -142 318 -121 q 485 -162 415 -162 q 601 -141 558 -162 q 663 -84 644 -119 q 681 -4 681 -49 l 681 699 l 893 699 l 893 -4 q 840 -183 893 -107 q 695 -302 788 -260 q 485 -344 603 -344 m 890 0 l 893 182 l 1571 182 l 1394 31 l 1394 311 q 1374 431 1394 386 q 1318 496 1354 475 q 1232 517 1282 517 q 1119 492 1172 517 q 1019 428 1065 467 q 933 344 972 389 q 863 260 893 300 q 814 196 833 219 l 769 340 q 875 473 829 415 q 961 573 921 531 q 1044 643 1001 615 q 1138 685 1086 671 q 1258 699 1189 699 q 1415 668 1349 699 q 1523 583 1481 638 q 1586 459 1565 529 q 1607 311 1607 389 l 1607 0 l 890 0 m 1054 826 l 1054 996 l 1268 996 l 1268 826 l 1054 826 z "},"ﺾ":{"ha":1751,"x_min":56,"x_max":1779,"o":"m 1607 0 l 1607 182 l 1751 182 l 1751 0 l 1607 0 m 485 -344 q 264 -299 361 -344 q 111 -175 167 -254 q 56 6 56 -96 q 60 78 56 33 q 71 179 64 124 q 87 294 78 235 q 104 408 96 353 l 314 381 q 290 212 300 288 q 274 84 279 136 q 268 7 268 32 q 293 -83 268 -44 q 367 -142 318 -121 q 485 -162 415 -162 q 601 -141 558 -162 q 663 -84 644 -119 q 681 -4 681 -49 l 681 699 l 893 699 l 893 -4 q 840 -183 893 -107 q 695 -302 788 -260 q 485 -344 603 -344 m 890 0 l 893 182 l 1571 182 l 1394 31 l 1394 311 q 1374 431 1394 386 q 1318 496 1354 475 q 1232 517 1282 517 q 1119 492 1172 517 q 1019 428 1065 467 q 933 344 972 389 q 863 260 893 300 q 814 196 833 219 l 769 340 q 875 473 829 415 q 961 573 921 531 q 1044 643 1001 615 q 1138 685 1086 671 q 1258 699 1189 699 q 1415 668 1349 699 q 1523 583 1481 638 q 1586 459 1565 529 q 1607 311 1607 389 l 1607 0 l 890 0 m 1751 0 l 1751 182 q 1765 176 1760 182 q 1773 158 1769 169 q 1778 129 1776 146 q 1779 92 1779 113 q 1778 53 1779 71 q 1773 24 1776 36 q 1765 6 1769 13 q 1751 0 1760 0 m 1054 826 l 1054 996 l 1268 996 l 1268 826 l 1054 826 z "},"ﻀ":{"ha":1239,"x_min":-28,"x_max":1267,"o":"m 1094 0 l 1094 182 l 1239 182 l 1239 0 l 1094 0 m 0 0 q -12 6 -7 0 q -21 24 -18 13 q -26 53 -24 36 q -28 92 -28 71 q -25 140 -28 119 q -16 171 -22 160 q 0 182 -10 182 l 0 0 m 0 0 l 0 182 l 1058 182 l 882 31 l 882 311 q 862 431 882 386 q 806 496 842 475 q 719 517 769 517 q 606 492 660 517 q 506 428 553 467 q 420 344 460 389 q 351 260 381 300 q 300 196 321 219 l 257 340 q 363 473 317 415 q 449 573 408 531 q 531 643 489 615 q 625 685 574 671 q 746 699 676 699 q 902 668 836 699 q 1010 583 968 638 q 1074 459 1053 529 q 1094 311 1094 389 l 1094 0 l 0 0 m 168 182 l 168 699 l 381 699 l 381 182 l 168 182 m 1239 0 l 1239 182 q 1251 176 1246 182 q 1260 158 1257 169 q 1265 129 1263 146 q 1267 92 1267 113 q 1265 53 1267 71 q 1260 24 1263 36 q 1251 6 1257 13 q 1239 0 1246 0 m 542 826 l 542 996 l 756 996 l 756 826 l 542 826 z "},"ﺿ":{"ha":1188,"x_min":-28,"x_max":1094,"o":"m 0 0 l 0 182 l 1058 182 l 882 31 l 882 311 q 862 431 882 386 q 806 496 842 475 q 719 517 769 517 q 606 492 660 517 q 506 428 553 467 q 420 344 460 389 q 351 260 381 300 q 300 196 321 219 l 257 340 q 363 473 317 415 q 449 573 408 531 q 531 643 489 615 q 625 685 574 671 q 746 699 676 699 q 902 668 836 699 q 1010 583 968 638 q 1074 459 1053 529 q 1094 311 1094 389 l 1094 0 l 0 0 m 168 182 l 168 699 l 381 699 l 381 182 l 168 182 m 0 0 q -12 6 -7 0 q -21 24 -18 13 q -26 53 -24 36 q -28 92 -28 71 q -25 140 -28 119 q -16 171 -22 160 q 0 182 -10 182 l 0 0 m 542 826 l 542 996 l 756 996 l 756 826 l 542 826 z "},"ط":{"ha":1144,"x_min":28,"x_max":1050,"o":"m 28 0 l 28 182 l 1014 182 l 838 31 l 838 311 q 817 431 838 386 q 761 496 797 475 q 675 517 725 517 q 562 492 615 517 q 462 428 508 467 q 376 344 415 389 q 307 260 338 300 q 257 196 276 219 l 213 340 q 325 486 274 421 q 431 599 376 551 q 549 673 485 647 q 701 699 614 699 q 858 668 792 699 q 967 583 924 638 q 1030 459 1010 529 q 1050 311 1050 389 l 1050 0 l 28 0 m 125 182 l 125 976 l 338 976 l 338 182 l 125 182 z "},"ﻂ":{"ha":1196,"x_min":28,"x_max":1224,"o":"m 1050 0 l 1050 182 l 1196 182 l 1196 0 l 1050 0 m 28 0 l 28 182 l 1014 182 l 838 31 l 838 311 q 817 431 838 386 q 761 496 797 475 q 675 517 725 517 q 562 492 615 517 q 462 428 508 467 q 376 344 415 389 q 307 260 338 300 q 257 196 276 219 l 213 340 q 325 486 274 421 q 431 599 376 551 q 549 673 485 647 q 701 699 614 699 q 858 668 792 699 q 967 583 924 638 q 1030 459 1010 529 q 1050 311 1050 389 l 1050 0 l 28 0 m 125 182 l 125 976 l 338 976 l 338 182 l 125 182 m 1196 0 l 1196 182 q 1208 176 1203 182 q 1217 158 1214 169 q 1222 129 1219 146 q 1224 92 1224 113 q 1222 53 1224 71 q 1217 24 1219 36 q 1208 6 1214 13 q 1196 0 1203 0 z "},"ﻄ":{"ha":1140,"x_min":-28,"x_max":1168,"o":"m 994 0 l 994 182 l 1140 182 l 1140 0 l 994 0 m 0 0 l 0 182 l 986 182 l 810 31 l 810 311 q 790 431 810 386 q 733 496 769 475 q 647 517 697 517 q 534 492 588 517 q 434 428 481 467 q 349 344 388 389 q 279 260 310 300 q 229 196 249 219 l 185 340 q 297 486 246 421 q 403 599 349 551 q 522 673 457 647 q 674 699 586 699 q 830 668 764 699 q 939 583 896 638 q 1002 459 982 529 q 1022 311 1022 389 l 1022 0 l 0 0 m 97 182 l 97 976 l 310 976 l 310 182 l 97 182 m 0 0 q -12 6 -7 0 q -21 24 -18 13 q -26 53 -24 36 q -28 92 -28 71 q -25 140 -28 119 q -16 171 -22 160 q 0 182 -10 182 l 0 0 m 1140 0 l 1140 182 q 1153 176 1147 182 q 1161 158 1158 169 q 1166 129 1164 146 q 1168 92 1168 113 q 1166 53 1168 71 q 1161 24 1164 36 q 1153 6 1158 13 q 1140 0 1147 0 z "},"ﻃ":{"ha":1115,"x_min":-28,"x_max":1022,"o":"m 0 0 l 0 182 l 986 182 l 810 31 l 810 311 q 790 431 810 386 q 733 496 769 475 q 647 517 697 517 q 534 492 588 517 q 434 428 481 467 q 349 344 388 389 q 279 260 310 300 q 229 196 249 219 l 185 340 q 297 486 246 421 q 403 599 349 551 q 522 673 457 647 q 674 699 586 699 q 830 668 764 699 q 939 583 896 638 q 1002 459 982 529 q 1022 311 1022 389 l 1022 0 l 0 0 m 97 182 l 97 976 l 310 976 l 310 182 l 97 182 m 0 0 q -12 6 -7 0 q -21 24 -18 13 q -26 53 -24 36 q -28 92 -28 71 q -25 140 -28 119 q -16 171 -22 160 q 0 182 -10 182 l 0 0 z "},"ظ":{"ha":1144,"x_min":28,"x_max":1050,"o":"m 28 0 l 28 182 l 1014 182 l 838 31 l 838 311 q 817 431 838 386 q 761 496 797 475 q 675 517 725 517 q 562 492 615 517 q 462 428 508 467 q 376 344 415 389 q 307 260 338 300 q 257 196 276 219 l 213 340 q 325 486 274 421 q 431 599 376 551 q 549 673 485 647 q 701 699 614 699 q 858 668 792 699 q 967 583 924 638 q 1030 459 1010 529 q 1050 311 1050 389 l 1050 0 l 28 0 m 125 182 l 125 976 l 338 976 l 338 182 l 125 182 m 533 828 l 533 997 l 747 997 l 747 828 l 533 828 z "},"ﻆ":{"ha":1196,"x_min":28,"x_max":1224,"o":"m 1050 0 l 1050 182 l 1196 182 l 1196 0 l 1050 0 m 28 0 l 28 182 l 1014 182 l 838 31 l 838 311 q 817 431 838 386 q 761 496 797 475 q 675 517 725 517 q 562 492 615 517 q 462 428 508 467 q 376 344 415 389 q 307 260 338 300 q 257 196 276 219 l 213 340 q 325 486 274 421 q 431 599 376 551 q 549 673 485 647 q 701 699 614 699 q 858 668 792 699 q 967 583 924 638 q 1030 459 1010 529 q 1050 311 1050 389 l 1050 0 l 28 0 m 125 182 l 125 976 l 338 976 l 338 182 l 125 182 m 1196 0 l 1196 182 q 1208 176 1203 182 q 1217 158 1214 169 q 1222 129 1219 146 q 1224 92 1224 113 q 1222 53 1224 71 q 1217 24 1219 36 q 1208 6 1214 13 q 1196 0 1203 0 m 533 828 l 533 997 l 747 997 l 747 828 l 533 828 z "},"ﻈ":{"ha":1140,"x_min":-28,"x_max":1168,"o":"m 994 0 l 994 182 l 1140 182 l 1140 0 l 994 0 m 0 0 l 0 182 l 986 182 l 810 31 l 810 311 q 790 431 810 386 q 733 496 769 475 q 647 517 697 517 q 534 492 588 517 q 434 428 481 467 q 349 344 388 389 q 279 260 310 300 q 229 196 249 219 l 185 340 q 297 486 246 421 q 403 599 349 551 q 522 673 457 647 q 674 699 586 699 q 830 668 764 699 q 939 583 896 638 q 1002 459 982 529 q 1022 311 1022 389 l 1022 0 l 0 0 m 97 182 l 97 976 l 310 976 l 310 182 l 97 182 m 0 0 q -12 6 -7 0 q -21 24 -18 13 q -26 53 -24 36 q -28 92 -28 71 q -25 140 -28 119 q -16 171 -22 160 q 0 182 -10 182 l 0 0 m 1140 0 l 1140 182 q 1153 176 1147 182 q 1161 158 1158 169 q 1166 129 1164 146 q 1168 92 1168 113 q 1166 53 1168 71 q 1161 24 1164 36 q 1153 6 1158 13 q 1140 0 1147 0 m 506 828 l 506 997 l 719 997 l 719 828 l 506 828 z "},"ﻇ":{"ha":1115,"x_min":-28,"x_max":1022,"o":"m 0 0 l 0 182 l 986 182 l 810 31 l 810 311 q 790 431 810 386 q 733 496 769 475 q 647 517 697 517 q 534 492 588 517 q 434 428 481 467 q 349 344 388 389 q 279 260 310 300 q 229 196 249 219 l 185 340 q 297 486 246 421 q 403 599 349 551 q 522 673 457 647 q 674 699 586 699 q 830 668 764 699 q 939 583 896 638 q 1002 459 982 529 q 1022 311 1022 389 l 1022 0 l 0 0 m 97 182 l 97 976 l 310 976 l 310 182 l 97 182 m 0 0 q -12 6 -7 0 q -21 24 -18 13 q -26 53 -24 36 q -28 92 -28 71 q -25 140 -28 119 q -16 171 -22 160 q 0 182 -10 182 l 0 0 m 506 828 l 506 997 l 719 997 l 719 828 l 506 828 z "},"ع":{"ha":801,"x_min":56,"x_max":711,"o":"m 446 -451 q 241 -413 329 -451 q 104 -304 153 -375 q 56 -135 56 -233 q 104 35 56 -36 q 241 144 153 106 q 446 182 329 182 l 711 182 l 711 0 l 446 0 q 310 -33 353 0 q 268 -135 268 -67 q 310 -236 268 -203 q 446 -269 353 -269 q 528 -266 479 -269 q 643 -254 576 -262 l 675 -424 q 556 -444 613 -436 q 446 -451 499 -451 m 268 28 q 165 168 199 96 q 131 322 131 240 q 163 476 131 407 q 249 594 194 544 q 374 672 303 644 q 524 699 444 699 q 611 690 567 699 q 697 668 656 682 l 638 496 q 583 511 610 506 q 532 517 557 517 q 431 492 474 517 q 365 424 389 467 q 342 325 342 382 q 362 233 342 276 q 421 153 382 190 l 268 28 z "},"ﻊ":{"ha":935,"x_min":56,"x_max":963,"o":"m 643 -253 l 675 -424 q 556 -444 613 -436 q 446 -451 499 -451 q 241 -413 329 -451 q 104 -304 153 -375 q 56 -135 56 -233 q 97 24 56 -44 q 211 137 138 93 q 382 192 285 181 l 386 201 q 461 233 422 211 q 535 286 500 256 q 599 353 571 317 q 642 432 626 390 q 658 517 658 474 l 658 608 l 758 440 q 615 497 689 478 q 475 517 540 517 q 335 497 410 517 q 192 440 261 478 l 292 608 l 292 517 q 310 431 292 476 q 358 341 328 385 q 430 261 389 297 q 519 203 471 225 q 618 182 568 182 l 935 182 l 935 0 l 697 0 q 494 35 589 0 q 324 127 400 69 q 192 253 247 185 q 108 391 138 322 q 79 517 79 460 l 79 594 q 208 651 139 628 q 347 687 278 675 q 475 699 417 699 q 602 687 533 699 q 741 651 671 675 q 871 594 811 628 l 871 517 q 841 383 871 449 q 760 259 811 318 q 642 152 708 200 q 504 72 576 104 q 472 58 493 67 q 430 42 451 50 q 392 27 408 33 q 371 18 375 21 q 322 -14 346 6 q 284 -64 299 -33 q 269 -137 269 -94 q 313 -235 269 -201 q 446 -269 357 -269 q 527 -265 478 -269 q 643 -253 576 -261 m 935 0 l 935 182 q 947 176 942 182 q 956 158 953 169 q 960 129 958 146 q 963 92 963 113 q 960 53 963 71 q 956 24 958 36 q 947 6 953 13 q 935 0 942 0 z "},"ﻌ":{"ha":944,"x_min":-28,"x_max":972,"o":"m 0 0 l 0 182 l 332 182 q 431 203 383 182 q 521 261 479 225 q 594 341 563 297 q 642 431 625 385 q 660 517 660 476 l 660 608 l 760 440 q 616 497 690 478 q 476 517 542 517 q 337 497 411 517 q 193 440 263 478 l 293 608 l 293 517 q 310 431 293 476 q 359 341 328 385 q 432 261 390 297 q 522 203 474 225 q 619 182 569 182 l 944 182 l 944 0 l 699 0 q 496 35 590 0 q 325 127 401 69 q 194 253 249 185 q 110 391 139 322 q 81 517 81 460 l 81 594 q 210 651 140 628 q 349 687 279 675 q 476 699 418 699 q 603 687 535 699 q 742 651 672 675 q 872 594 813 628 l 872 517 q 843 391 872 460 q 759 253 814 322 q 628 127 704 185 q 457 35 551 69 q 254 0 363 0 l 0 0 m 0 0 q -12 6 -7 0 q -21 24 -18 13 q -26 53 -24 36 q -28 92 -28 71 q -25 140 -28 119 q -16 171 -22 160 q 0 182 -10 182 l 0 0 m 944 0 l 944 182 q 957 176 951 182 q 965 158 963 169 q 970 129 968 146 q 972 92 972 113 q 970 53 972 71 q 965 24 968 36 q 957 6 963 13 q 944 0 951 0 z "},"ﻋ":{"ha":797,"x_min":-28,"x_max":689,"o":"m 246 28 q 144 168 178 96 q 110 322 110 240 q 141 476 110 407 q 227 594 172 544 q 353 672 282 644 q 503 699 424 699 q 590 690 544 699 q 676 668 635 682 l 615 496 q 563 511 589 506 q 510 517 536 517 q 411 492 454 517 q 345 424 368 467 q 322 325 322 382 q 342 233 322 276 q 401 153 361 190 l 246 28 m 0 0 l 0 182 l 689 182 l 689 0 l 0 0 m 0 0 q -12 6 -7 0 q -21 24 -18 13 q -26 53 -24 36 q -28 92 -28 71 q -25 140 -28 119 q -16 171 -22 160 q 0 182 -10 182 l 0 0 z "},"غ":{"ha":801,"x_min":56,"x_max":711,"o":"m 446 -451 q 241 -413 329 -451 q 104 -304 153 -375 q 56 -135 56 -233 q 104 35 56 -36 q 241 144 153 106 q 446 182 329 182 l 711 182 l 711 0 l 446 0 q 310 -33 353 0 q 268 -135 268 -67 q 310 -236 268 -203 q 446 -269 353 -269 q 528 -266 479 -269 q 643 -254 576 -262 l 675 -424 q 556 -444 613 -436 q 446 -451 499 -451 m 268 28 q 165 168 199 96 q 131 322 131 240 q 163 476 131 407 q 249 594 194 544 q 374 672 303 644 q 524 699 444 699 q 611 690 567 699 q 697 668 656 682 l 638 496 q 583 511 610 506 q 532 517 557 517 q 431 492 474 517 q 365 424 389 467 q 342 325 342 382 q 362 233 342 276 q 421 153 382 190 l 268 28 m 357 828 l 357 997 l 571 997 l 571 828 l 357 828 z "},"ﻎ":{"ha":935,"x_min":56,"x_max":963,"o":"m 643 -253 l 675 -424 q 556 -444 613 -436 q 446 -451 499 -451 q 241 -413 329 -451 q 104 -304 153 -375 q 56 -135 56 -233 q 97 24 56 -44 q 211 137 138 93 q 382 192 285 181 l 386 201 q 461 233 422 211 q 535 286 500 256 q 599 353 571 317 q 642 432 626 390 q 658 517 658 474 l 658 608 l 758 440 q 615 497 689 478 q 475 517 540 517 q 335 497 410 517 q 192 440 261 478 l 292 608 l 292 517 q 310 431 292 476 q 358 341 328 385 q 430 261 389 297 q 519 203 471 225 q 618 182 568 182 l 935 182 l 935 0 l 697 0 q 494 35 589 0 q 324 127 400 69 q 192 253 247 185 q 108 391 138 322 q 79 517 79 460 l 79 594 q 208 651 139 628 q 347 687 278 675 q 475 699 417 699 q 602 687 533 699 q 741 651 671 675 q 871 594 811 628 l 871 517 q 841 383 871 449 q 760 259 811 318 q 642 152 708 200 q 504 72 576 104 q 472 58 493 67 q 430 42 451 50 q 392 27 408 33 q 371 18 375 21 q 322 -14 346 6 q 284 -64 299 -33 q 269 -137 269 -94 q 313 -235 269 -201 q 446 -269 357 -269 q 527 -265 478 -269 q 643 -253 576 -261 m 935 0 l 935 182 q 947 176 942 182 q 956 158 953 169 q 960 129 958 146 q 963 92 963 113 q 960 53 963 71 q 956 24 958 36 q 947 6 953 13 q 935 0 942 0 m 367 828 l 367 997 l 581 997 l 581 828 l 367 828 z "},"ﻐ":{"ha":944,"x_min":-28,"x_max":972,"o":"m 0 0 l 0 182 l 332 182 q 431 203 383 182 q 521 261 479 225 q 594 341 563 297 q 642 431 625 385 q 660 517 660 476 l 660 608 l 760 440 q 616 497 690 478 q 476 517 542 517 q 337 497 411 517 q 193 440 263 478 l 293 608 l 293 517 q 310 431 293 476 q 359 341 328 385 q 432 261 390 297 q 522 203 474 225 q 619 182 569 182 l 944 182 l 944 0 l 699 0 q 496 35 590 0 q 325 127 401 69 q 194 253 249 185 q 110 391 139 322 q 81 517 81 460 l 81 594 q 210 651 140 628 q 349 687 279 675 q 476 699 418 699 q 603 687 535 699 q 742 651 672 675 q 872 594 813 628 l 872 517 q 843 391 872 460 q 759 253 814 322 q 628 127 704 185 q 457 35 551 69 q 254 0 363 0 l 0 0 m 0 0 q -12 6 -7 0 q -21 24 -18 13 q -26 53 -24 36 q -28 92 -28 71 q -25 140 -28 119 q -16 171 -22 160 q 0 182 -10 182 l 0 0 m 944 0 l 944 182 q 957 176 951 182 q 965 158 963 169 q 970 129 968 146 q 972 92 972 113 q 970 53 972 71 q 965 24 968 36 q 957 6 963 13 q 944 0 951 0 m 367 828 l 367 997 l 581 997 l 581 828 l 367 828 z "},"ﻏ":{"ha":797,"x_min":-28,"x_max":689,"o":"m 246 28 q 144 168 178 96 q 110 322 110 240 q 141 476 110 407 q 227 594 172 544 q 353 672 282 644 q 503 699 424 699 q 590 690 544 699 q 676 668 635 682 l 615 496 q 563 511 589 506 q 510 517 536 517 q 411 492 454 517 q 345 424 368 467 q 322 325 322 382 q 342 233 322 276 q 401 153 361 190 l 246 28 m 0 0 l 0 182 l 689 182 l 689 0 l 0 0 m 0 0 q -12 6 -7 0 q -21 24 -18 13 q -26 53 -24 36 q -28 92 -28 71 q -25 140 -28 119 q -16 171 -22 160 q 0 182 -10 182 l 0 0 m 315 828 l 315 997 l 529 997 l 529 828 l 315 828 z "},"ف":{"ha":1468,"x_min":75,"x_max":1360,"o":"m 547 0 q 289 41 394 0 q 129 163 183 82 q 75 361 75 243 q 79 431 75 394 q 89 500 83 467 q 100 559 94 533 q 108 599 106 585 l 315 558 q 304 504 311 538 q 292 434 297 471 q 288 364 288 397 q 306 274 288 310 q 358 218 324 239 q 444 190 393 197 q 560 182 494 182 l 1197 182 l 1147 138 l 1147 553 l 1190 517 l 1036 517 q 951 502 982 517 q 906 451 919 488 q 893 349 893 415 q 906 240 893 275 q 951 193 919 204 q 1036 182 982 182 l 1036 14 q 840 47 919 14 q 720 155 760 81 q 681 349 681 229 q 720 539 681 461 q 840 658 760 617 q 1036 699 919 699 l 1360 699 l 1360 0 l 547 0 m 949 828 l 949 997 l 1163 997 l 1163 828 l 949 828 z "},"ﻒ":{"ha":1504,"x_min":75,"x_max":1532,"o":"m 1360 0 l 1360 182 l 1504 182 l 1504 0 l 1360 0 m 547 0 q 289 41 394 0 q 129 163 183 82 q 75 361 75 243 q 79 431 75 394 q 89 500 83 467 q 100 559 94 533 q 108 599 106 585 l 315 558 q 304 504 311 538 q 292 434 297 471 q 288 364 288 397 q 306 274 288 310 q 358 218 324 239 q 444 190 393 197 q 560 182 494 182 l 1197 182 l 1147 138 l 1147 553 l 1190 517 l 1036 517 q 951 502 982 517 q 906 451 919 488 q 893 349 893 415 q 906 240 893 275 q 951 193 919 204 q 1036 182 982 182 l 1036 14 q 840 47 919 14 q 720 155 760 81 q 681 349 681 229 q 720 539 681 461 q 840 658 760 617 q 1036 699 919 699 l 1360 699 l 1360 0 l 547 0 m 1504 0 l 1504 182 q 1517 176 1513 182 q 1526 158 1522 169 q 1531 129 1529 146 q 1532 92 1532 113 q 1531 53 1532 71 q 1526 24 1529 36 q 1517 6 1522 13 q 1504 0 1513 0 m 949 828 l 949 997 l 1163 997 l 1163 828 l 949 828 z "},"ﻔ":{"ha":936,"x_min":-28,"x_max":964,"o":"m 792 0 l 792 182 l 936 182 l 936 0 l 792 0 m 0 0 q -12 6 -7 0 q -21 24 -18 13 q -26 53 -24 36 q -28 92 -28 71 q -25 140 -28 119 q -16 171 -22 160 q 0 182 -10 182 l 0 0 m 0 0 l 0 182 l 631 182 l 579 138 l 579 553 l 622 517 l 468 517 q 383 502 414 517 q 338 451 351 488 q 325 349 325 415 q 338 240 325 275 q 383 193 351 204 q 468 182 414 182 l 468 14 q 272 47 351 14 q 152 155 192 81 q 113 349 113 229 q 152 539 113 461 q 272 658 192 617 q 468 699 351 699 l 792 699 l 792 0 l 0 0 m 936 0 l 936 182 q 949 176 944 182 q 958 158 954 169 q 963 129 961 146 q 964 92 964 113 q 963 53 964 71 q 958 24 961 36 q 949 6 954 13 q 936 0 944 0 m 381 828 l 381 997 l 594 997 l 594 828 l 381 828 z "},"ﻓ":{"ha":886,"x_min":-28,"x_max":792,"o":"m 0 0 l 0 182 l 631 182 l 579 138 l 579 553 l 622 517 l 468 517 q 383 502 414 517 q 338 451 351 488 q 325 349 325 415 q 338 240 325 275 q 383 193 351 204 q 468 182 414 182 l 468 14 q 272 47 351 14 q 152 155 192 81 q 113 349 113 229 q 152 539 113 461 q 272 658 192 617 q 468 699 351 699 l 792 699 l 792 0 l 0 0 m 0 0 q -12 6 -7 0 q -21 24 -18 13 q -26 53 -24 36 q -28 92 -28 71 q -25 140 -28 119 q -16 171 -22 160 q 0 182 -10 182 l 0 0 m 381 828 l 381 997 l 594 997 l 594 828 l 381 828 z "},"ڤ":{"ha":1468,"x_min":75,"x_max":1360,"o":"m 547 0 q 289 41 394 0 q 129 163 183 82 q 75 361 75 243 q 79 431 75 394 q 89 500 83 467 q 100 559 94 533 q 108 599 106 585 l 315 558 q 304 504 311 538 q 292 434 297 471 q 288 364 288 397 q 306 274 288 310 q 358 218 324 239 q 444 190 393 197 q 560 182 494 182 l 1197 182 l 1147 138 l 1147 553 l 1190 517 l 1036 517 q 951 502 982 517 q 906 451 919 488 q 893 349 893 415 q 906 240 893 275 q 951 193 919 204 q 1036 182 982 182 l 1036 14 q 840 47 919 14 q 720 155 760 81 q 681 349 681 229 q 720 539 681 461 q 840 658 760 617 q 1036 699 919 699 l 1360 699 l 1360 0 l 547 0 m 965 1049 l 965 1196 l 1147 1196 l 1147 1049 l 965 1049 m 818 828 l 818 997 l 1021 997 l 1021 828 l 818 828 m 1092 828 l 1092 997 l 1294 997 l 1294 828 l 1092 828 z "},"ﭫ":{"ha":1504,"x_min":75,"x_max":1532,"o":"m 1360 0 l 1360 182 l 1504 182 l 1504 0 l 1360 0 m 547 0 q 289 41 394 0 q 129 163 183 82 q 75 361 75 243 q 79 431 75 394 q 89 500 83 467 q 100 559 94 533 q 108 599 106 585 l 315 558 q 304 504 311 538 q 292 434 297 471 q 288 364 288 397 q 306 274 288 310 q 358 218 324 239 q 444 190 393 197 q 560 182 494 182 l 1197 182 l 1147 138 l 1147 553 l 1190 517 l 1036 517 q 951 502 982 517 q 906 451 919 488 q 893 349 893 415 q 906 240 893 275 q 951 193 919 204 q 1036 182 982 182 l 1036 14 q 840 47 919 14 q 720 155 760 81 q 681 349 681 229 q 720 539 681 461 q 840 658 760 617 q 1036 699 919 699 l 1360 699 l 1360 0 l 547 0 m 1504 0 l 1504 182 q 1517 176 1513 182 q 1526 158 1522 169 q 1531 129 1529 146 q 1532 92 1532 113 q 1531 53 1532 71 q 1526 24 1529 36 q 1517 6 1522 13 q 1504 0 1513 0 m 965 1049 l 965 1196 l 1147 1196 l 1147 1049 l 965 1049 m 818 828 l 818 997 l 1021 997 l 1021 828 l 818 828 m 1092 828 l 1092 997 l 1294 997 l 1294 828 l 1092 828 z "},"ﭭ":{"ha":936,"x_min":-28,"x_max":964,"o":"m 792 0 l 792 182 l 936 182 l 936 0 l 792 0 m 0 0 q -12 6 -7 0 q -21 24 -18 13 q -26 53 -24 36 q -28 92 -28 71 q -25 140 -28 119 q -16 171 -22 160 q 0 182 -10 182 l 0 0 m 0 0 l 0 182 l 631 182 l 579 138 l 579 553 l 622 517 l 468 517 q 383 502 414 517 q 338 451 351 488 q 325 349 325 415 q 338 240 325 275 q 383 193 351 204 q 468 182 414 182 l 468 14 q 272 47 351 14 q 152 155 192 81 q 113 349 113 229 q 152 539 113 461 q 272 658 192 617 q 468 699 351 699 l 792 699 l 792 0 l 0 0 m 936 0 l 936 182 q 949 176 944 182 q 958 158 954 169 q 963 129 961 146 q 964 92 964 113 q 963 53 964 71 q 958 24 961 36 q 949 6 954 13 q 936 0 944 0 m 397 1049 l 397 1196 l 579 1196 l 579 1049 l 397 1049 m 250 828 l 250 997 l 453 997 l 453 828 l 250 828 m 524 828 l 524 997 l 726 997 l 726 828 l 524 828 z "},"ﭬ":{"ha":886,"x_min":-28,"x_max":792,"o":"m 0 0 l 0 182 l 631 182 l 579 138 l 579 553 l 622 517 l 468 517 q 383 502 414 517 q 338 451 351 488 q 325 349 325 415 q 338 240 325 275 q 383 193 351 204 q 468 182 414 182 l 468 14 q 272 47 351 14 q 152 155 192 81 q 113 349 113 229 q 152 539 113 461 q 272 658 192 617 q 468 699 351 699 l 792 699 l 792 0 l 0 0 m 0 0 q -12 6 -7 0 q -21 24 -18 13 q -26 53 -24 36 q -28 92 -28 71 q -25 140 -28 119 q -16 171 -22 160 q 0 182 -10 182 l 0 0 m 397 1049 l 397 1196 l 579 1196 l 579 1049 l 397 1049 m 250 828 l 250 997 l 453 997 l 453 828 l 250 828 m 524 828 l 524 997 l 726 997 l 726 828 l 524 828 z "},"ڡ":{"ha":1468,"x_min":75,"x_max":1360,"o":"m 547 0 q 289 41 394 0 q 129 163 183 82 q 75 361 75 243 q 79 431 75 394 q 89 500 83 467 q 100 559 94 533 q 108 599 106 585 l 315 558 q 304 504 311 538 q 292 434 297 471 q 288 364 288 397 q 306 274 288 310 q 358 218 324 239 q 444 190 393 197 q 560 182 494 182 l 1197 182 l 1147 138 l 1147 553 l 1190 517 l 1036 517 q 951 502 982 517 q 906 451 919 488 q 893 349 893 415 q 906 240 893 275 q 951 193 919 204 q 1036 182 982 182 l 1036 14 q 840 47 919 14 q 720 155 760 81 q 681 349 681 229 q 720 539 681 461 q 840 658 760 617 q 1036 699 919 699 l 1360 699 l 1360 0 l 547 0 z "},"ٯ":{"ha":1290,"x_min":56,"x_max":1196,"o":"m 471 -369 q 258 -326 353 -369 q 110 -205 164 -282 q 56 -31 56 -128 q 60 44 56 -3 q 72 147 64 90 q 88 263 79 203 q 106 378 97 322 l 315 350 q 290 182 301 257 q 274 54 279 107 q 268 -26 268 1 q 292 -115 268 -79 q 361 -169 315 -150 q 471 -187 407 -187 l 799 -187 q 903 -171 863 -187 q 964 -121 944 -154 q 983 -39 983 -87 l 983 553 l 1028 517 l 874 517 q 787 502 818 517 q 742 451 756 488 q 729 349 729 415 q 742 240 729 275 q 787 193 756 204 q 874 182 818 182 l 983 182 l 983 0 l 874 0 q 676 38 756 0 q 557 152 597 75 q 517 349 517 229 q 557 539 517 461 q 676 658 597 617 q 874 699 756 699 l 1196 699 l 1196 -39 q 1145 -213 1196 -139 q 1004 -328 1094 -287 q 799 -369 914 -369 l 471 -369 z "},"ق":{"ha":1199,"x_min":56,"x_max":1196,"o":"m 471 -369 q 258 -326 353 -369 q 110 -205 164 -282 q 56 -31 56 -128 q 60 44 56 -3 q 72 147 64 90 q 88 263 79 203 q 106 378 97 322 l 315 350 q 290 182 301 257 q 274 54 279 107 q 268 -26 268 1 q 292 -115 268 -79 q 361 -169 315 -150 q 471 -187 407 -187 l 799 -187 q 903 -171 863 -187 q 964 -121 944 -154 q 983 -39 983 -87 l 983 553 l 1028 517 l 874 517 q 787 502 818 517 q 742 451 756 488 q 729 349 729 415 q 742 240 729 275 q 787 193 756 204 q 874 182 818 182 l 983 182 l 983 0 l 874 0 q 676 38 756 0 q 557 152 597 75 q 517 349 517 229 q 557 539 517 461 q 676 658 597 617 q 874 699 756 699 l 1196 699 l 1196 -39 q 1145 -213 1196 -139 q 1004 -328 1094 -287 q 799 -369 914 -369 l 471 -369 m 678 768 l 678 938 l 892 938 l 892 768 l 678 768 m 868 768 l 868 938 l 1082 938 l 1082 768 l 868 768 z "},"ﻖ":{"ha":1243,"x_min":56,"x_max":1369,"o":"m 1196 0 l 1196 182 l 1342 182 l 1342 0 l 1196 0 m 471 -369 q 258 -326 353 -369 q 110 -205 164 -282 q 56 -31 56 -128 q 60 44 56 -3 q 72 147 64 90 q 88 263 79 203 q 106 378 97 322 l 315 350 q 290 182 301 257 q 274 54 279 107 q 268 -26 268 1 q 292 -115 268 -79 q 361 -169 315 -150 q 471 -187 407 -187 l 799 -187 q 903 -171 863 -187 q 964 -121 944 -154 q 983 -39 983 -87 l 983 553 l 1028 517 l 874 517 q 787 502 818 517 q 742 451 756 488 q 729 349 729 415 q 742 240 729 275 q 787 193 756 204 q 874 182 818 182 l 983 182 l 983 0 l 874 0 q 676 38 756 0 q 557 152 597 75 q 517 349 517 229 q 557 539 517 461 q 676 658 597 617 q 874 699 756 699 l 1196 699 l 1196 -39 q 1145 -213 1196 -139 q 1004 -328 1094 -287 q 799 -369 914 -369 l 471 -369 m 1342 0 l 1342 182 q 1354 176 1349 182 q 1363 158 1360 169 q 1367 129 1365 146 q 1369 92 1369 113 q 1367 53 1369 71 q 1363 24 1365 36 q 1354 6 1360 13 q 1342 0 1349 0 m 678 768 l 678 938 l 892 938 l 892 768 l 678 768 m 868 768 l 868 938 l 1082 938 l 1082 768 l 868 768 z "},"ﻘ":{"ha":888,"x_min":-28,"x_max":964,"o":"m 792 0 l 792 182 l 936 182 l 936 0 l 792 0 m 0 0 q -12 6 -7 0 q -21 24 -18 13 q -26 53 -24 36 q -28 92 -28 71 q -25 140 -28 119 q -16 171 -22 160 q 0 182 -10 182 l 0 0 m 0 0 l 0 182 l 631 182 l 579 138 l 579 553 l 622 517 l 468 517 q 383 502 414 517 q 338 451 351 488 q 325 349 325 415 q 338 240 325 275 q 383 193 351 204 q 468 182 414 182 l 468 14 q 272 47 351 14 q 152 155 192 81 q 113 349 113 229 q 152 539 113 461 q 272 658 192 617 q 468 699 351 699 l 792 699 l 792 0 l 0 0 m 936 0 l 936 182 q 949 176 944 182 q 958 158 954 169 q 963 129 961 146 q 964 92 964 113 q 963 53 964 71 q 958 24 961 36 q 949 6 954 13 q 936 0 944 0 m 322 768 l 322 938 l 536 938 l 536 768 l 322 768 m 513 768 l 513 938 l 726 938 l 726 768 l 513 768 z "},"ﻗ":{"ha":843,"x_min":-28,"x_max":792,"o":"m 0 0 l 0 182 l 631 182 l 579 138 l 579 553 l 622 517 l 468 517 q 383 502 414 517 q 338 451 351 488 q 325 349 325 415 q 338 240 325 275 q 383 193 351 204 q 468 182 414 182 l 468 14 q 272 47 351 14 q 152 155 192 81 q 113 349 113 229 q 152 539 113 461 q 272 658 192 617 q 468 699 351 699 l 792 699 l 792 0 l 0 0 m 0 0 q -12 6 -7 0 q -21 24 -18 13 q -26 53 -24 36 q -28 92 -28 71 q -25 140 -28 119 q -16 171 -22 160 q 0 182 -10 182 l 0 0 m 322 768 l 322 938 l 536 938 l 536 768 l 322 768 m 513 768 l 513 938 l 726 938 l 726 768 l 513 768 z "},"ك":{"ha":1206,"x_min":56,"x_max":1111,"o":"m 528 0 q 269 41 375 0 q 110 163 164 82 q 56 361 56 243 q 60 431 56 394 q 69 500 64 467 q 81 559 75 533 q 89 599 86 585 l 296 558 q 285 504 292 538 q 273 434 278 471 q 268 364 268 397 q 286 274 268 310 q 339 218 304 239 q 424 190 374 197 q 540 182 475 182 l 1028 182 l 899 75 l 899 976 l 1111 976 l 1111 0 l 528 0 m 493 539 q 451 603 465 572 q 436 667 436 633 q 463 758 436 718 q 532 820 489 797 q 626 843 575 843 q 685 835 656 843 q 733 814 714 828 l 683 721 q 658 731 671 728 q 632 733 644 733 q 581 715 599 733 q 563 669 563 697 q 569 638 563 653 q 590 607 576 622 l 493 539 m 404 525 l 404 633 l 763 633 l 763 525 l 404 525 z "},"ﻚ":{"ha":1257,"x_min":56,"x_max":1285,"o":"m 1111 0 l 1111 182 l 1257 182 l 1257 0 l 1111 0 m 528 0 q 269 41 375 0 q 110 163 164 82 q 56 361 56 243 q 60 431 56 394 q 69 500 64 467 q 81 559 75 533 q 89 599 86 585 l 296 558 q 285 504 292 538 q 273 434 278 471 q 268 364 268 397 q 286 274 268 310 q 339 218 304 239 q 424 190 374 197 q 540 182 475 182 l 1028 182 l 899 75 l 899 976 l 1111 976 l 1111 0 l 528 0 m 1257 0 l 1257 182 q 1269 176 1264 182 q 1278 158 1275 169 q 1283 129 1281 146 q 1285 92 1285 113 q 1283 53 1285 71 q 1278 24 1281 36 q 1269 6 1275 13 q 1257 0 1264 0 m 493 539 q 451 603 465 572 q 436 667 436 633 q 463 758 436 718 q 532 820 489 797 q 626 843 575 843 q 685 835 656 843 q 733 814 714 828 l 683 721 q 658 731 671 728 q 632 733 644 733 q 581 715 599 733 q 563 669 563 697 q 569 638 563 653 q 590 607 576 622 l 493 539 m 404 525 l 404 633 l 763 633 l 763 525 l 404 525 z "},"ﻜ":{"ha":988,"x_min":-28,"x_max":1015,"o":"m 842 0 l 842 182 l 988 182 l 988 0 l 842 0 m 0 0 q -12 6 -7 0 q -21 24 -18 13 q -26 53 -24 36 q -28 92 -28 71 q -25 140 -28 119 q -16 171 -22 160 q 0 182 -10 182 l 0 0 m 0 0 l 0 182 l 697 182 l 631 128 l 631 296 q 616 408 631 367 q 574 468 601 450 q 503 486 546 486 l 197 486 l 71 668 l 144 808 q 170 855 156 829 q 209 919 185 881 q 271 1015 233 957 l 450 915 q 394 831 415 865 q 359 771 374 796 q 332 721 344 746 l 282 626 l 254 668 l 503 668 q 657 639 593 668 q 762 558 721 610 q 822 439 803 506 q 842 296 842 372 l 842 0 l 0 0 m 988 0 l 988 182 q 1000 176 994 182 q 1008 158 1006 169 q 1013 129 1011 146 q 1015 92 1015 113 q 1013 53 1015 71 q 1008 24 1011 36 q 1000 6 1006 13 q 988 0 994 0 z "}}}
